
<svg version="1.1" id="Female-Front" xmlns="http://www.w3.org/2000/svg" xmlns:xlink="http://www.w3.org/1999/xlink" x="0px"
	 y="0px" viewBox="0 0 453.3 964" enable-background="new 0 0 453.3 964" xml:space="preserve">
<path fill="#454545" d="M180.1,915.8c2-8.7,4-17.3,6.1-25.9c13.4,3.2,26.3,39.2,18.6,53.2c-2.1-2.3-4-4.6-6.1-6.6
	c-4.9-4.8-10-9.5-14.9-14.2c-1.4-1.4-2.6-2.9-3.8-4.5L180.1,915.8z"/>
<path fill="#454545" d="M286.5,741.6c0.5-1.4,1-2.8,1.6-4.1c0.1-0.2,0.5-0.3,1.8-0.9c1,7.4,2.3,14.4,2.8,21.5
	c1.3,17.6-2.2,34.4-9.3,50.9c-3.9,9.2-5.8,19.2-9.1,28.7c-2.8,8.1-6.2,16-9.4,23.9c-0.8,1.6-1.6,3.2-2.6,4.6
	c3.3-21,6.6-42.1,9.9-63.3C277,782.4,281.8,762,286.5,741.6z"/>
<path fill="#454545" d="M182.1,809.8c3.1,18.8,6.1,37.6,9.2,57c-1.7-3-3.3-6-4.8-9.1c-2.6-6.4-5.1-12.8-7.4-19.4
	c-4.6-13.7-9.1-27.4-13.6-41.1c-6.2-18.7-6.3-37.7-2.5-56.7c0.3-1.2,0.8-2.4,1.3-3.5l2.4,3.8c0.7,2.9,1.3,5.7,2,8.6
	C173.1,769.5,177.6,789.6,182.1,809.8z"/>
<path fill="#454545" d="M267.8,889.8c0.4,2.5,0.8,5.1,1.3,7.6c1,5,1.9,9.9,3.1,14.8c1.1,4.3,1,7.7-3.2,10.8
	c-7.8,5.7-15.1,12-22,17.5C240.5,930.3,253.6,893.3,267.8,889.8z"/>
<path fill="#454545" d="M293.2,956.7c-9.7,3.9-18.7,4.5-27.9,4c-0.8-0.1-1.6-0.4-2.2-1c-8.8-8.4-5.1-24,6.6-27.9
	c1.2-0.4,3.5-0.3,4.1,0.4C280.2,940,286.4,948,293.2,956.7z"/>
<path fill="#454545" d="M159.7,957.4c7.4-9.4,13.6-17.4,19.9-25.3c0.6-0.6,1.4-0.9,2.2-0.9c5.9-0.1,14.4,9.1,13.1,14.5
	c-4,17.4-2.8,16-19.6,14.5C170.6,959.8,166,958.6,159.7,957.4z"/>
<path fill="#464646" d="M20.6,509.5l-3.8,5.9l-1.6-0.4c-0.1-1.6-0.8-3.4-0.3-4.7c3.4-9.2,7-18.4,10.8-27.6c0.5-1.1,2.4-1.7,3.7-2.6
	c0.5,1.5,1.6,3.1,1.4,4.6c-0.2,2.4-1.3,4.7-2,7.1L20.6,509.5z"/>
<path fill="#464646" d="M250.8,900.7c-4.4-10.6-1.9-19.7,7.4-25.5c1.3-0.8,3.3-0.6,5-0.9c0.3,1.9,1.5,4.3,0.6,5.7
	C259.8,887,255.2,893.7,250.8,900.7z"/>
<path fill="#464646" d="M202.8,900.9c-4.5-7.1-9.1-13.9-13.2-21c-0.8-1.3-0.2-3.7,0.6-5.2c0.3-0.5,3.5-0.3,4.7,0.4
	C204.5,880.8,207,889.2,202.8,900.9z"/>
<path fill="#474747" d="M23.4,472c0.6,1.5,2.1,3.3,1.6,4.3c-3.9,8.9-8.1,17.6-12.3,26.4c-0.3,0.7-1.5,1.1-3.6,2.5
	c0.2-13.3,7.7-22.6,12-33L23.4,472z"/>
<path fill="#4B4B4B" d="M4.5,463.8c0.6-0.8,1.3-1.5,2-2.1c8.1-5.4,16.2-10.8,24.5-16.1c1.2-0.7,3-0.6,4.5-0.8
	c-0.3,1.5-0.1,3.3-0.9,4.3c-1.6,2-3.5,3.7-5.6,5c-5.7,3.6-11.5,7.2-17.5,10.4c-1.8,1-4.3,0.8-6.5,1.2L4.5,463.8z"/>
<path fill="#474747" d="M30,493.8c1-2.1,2.1-4.1,3.3-6c0.6-0.9,1.9-1.4,3-2.1c0.7,1.2,2.2,2.7,1.9,3.4c-3.6,8.1-7.4,16-11.4,23.9
	c-0.2,0.3-2.5-0.3-3.9-0.5C25.2,506.3,27.6,500,30,493.8z"/>
<path fill="#474747" d="M196.6,953.8c-0.1-0.8-0.1-1.5,0-2.3c1-2.6,2-5.2,3-7.8c2.3,2.2,5.8,3.9,6.7,6.5c2.3,6.5,1.2,11.2-5.5,10.5
	C195.1,960.2,197.1,956,196.6,953.8z"/>
<path fill="#474747" d="M258.1,953.3c-1.5,2.9-2,5.9-3.8,7c-4,2.3-7.7-0.1-8-4.6v-0.5c-0.2-4.6,5-12.6,6.8-11.2
	C255.6,946,256.4,950,258.1,953.3z"/>
<path fill="#A1A1A1" d="M167.8,739.6c5.1,21.7,10.2,43.4,15.3,65.1c-0.4,1.7-0.7,3.3-1.1,5c-4.5-20.1-8.9-40.3-13.4-60.4
	c-0.7-2.9-1.3-5.7-2-8.6L167.8,739.6z"/>
<path fill="#9F9F9F" d="M271.2,799.8c4.8-20,9.6-40.1,14.4-60.1c0.3,0.6,0.6,1.3,1,1.9c-4.7,20.4-9.5,40.8-14.3,61.2L271.2,799.8z"
	/>
<path fill="#A6A6A6" d="M30,493.8c-2.4,6.3-4.8,12.5-7.2,18.7l-2.2-3l8.3-17.7C29.3,492.5,29.6,493.2,30,493.8z"/>
<path fill="#BEBEBE" d="M164.5,297.1l-11.7-13c-1.1,5.3-1.8,11.3-3.8,17c-4.3,12.2-9.3,24.2-14.1,36.3c-0.8,2-2.1,3.9-2.2,6
	c-1,16.9-9.7,30.6-19.9,43.5c-13.8,17.5-28.5,34.5-42.2,52.1c-3.9,5-6.3,11.2-8.4,17.1c-4.6,12.8-8.4,26-13,38.8
	c-1.7,4.6-4.8,8.7-7.4,12.9c-2,3.2-4.8,4.7-8.8,1.6c-0.8,1.5-1.6,2.7-2.2,4c-1.9,3.9-4.4,6.4-9.2,3.5c-0.8-0.5-2.2-0.2-3.3-0.2
	c-2.1,0.1-5.4,1.2-6.2,0.2c-1.2-1.3-0.7-4.1-0.9-6.2c0-0.8,0.2-1.5,0.4-2.2c-5.5-0.9-5.9-4.7-5.5-8.9c1.3-12.4,4.6-24.2,12.3-34.5
	c0.6-0.8,1.1-1.6,2.3-3.4c-7.5,2.6-13,8.6-20.8,5.5v-6.9c5.9-3.7,11.9-7.1,17.5-11.1c6.8-4.7,12.1-11.4,21-13c1-0.4,1.8-1,2.3-1.9
	c9.8-12.2,18.8-24.8,22.6-40c5.7-23.2,14.9-44.7,31.5-62.8c3.1-3.2,4.7-7.5,4.6-12c0.2-18.5,2.8-36.5,10.1-53.9
	c2-4.7,2.4-10.1,3-15.2c1.5-12.5,1.6-25.2,4.5-37.4c3.1-13.2,11.9-22.8,26.7-26c6-1.3,12.2-2.1,18.3-3.2c4.3-0.8,8.5-1.9,12.8-2.8
	c1.2,0.1,2.4,0,3.6-0.1c7.1-1.5,14.5-2.7,18.3-9.8c5.3-2.4,5.8-7.4,6.3-11.9c0.2-1.8-2.4-3.9-3.7-5.9l-1.2,0.6l-1.3,12.4
	c1-9.9-1.5-19.7-7.2-27.9c-1.6-2.3-2.2-5.1-3.3-7.7c-0.5-1.1-0.8-2.4-1.7-3c-8-5.2-7.8-13.4-8.5-21.1c-0.1-1.3,1.3-3.8,2.4-4
	c5-0.9,6-4.4,6.8-8.2s1.2-7.5,2.4-11c0.7-2,2.2-3.6,4.2-4.4c12.6-4.1,24.8-9.7,36.1-16.6c3.4-2.1,8.4-2.4,12.7-2.4
	c3.8,0,7.6,1.9,11.5,2.6c6.9,1.1,9.5,5.2,10.5,11.4c1.2,7.4,2.8,14.8,4.8,22.1c0.6,2.1,2.6,5.3,4.3,5.5c5.9,0.6,5.7,4.1,5.6,8
	c0.1,1.1,0.4,2.2,0.9,3.3c-0.6,2.4-1.3,4.7-1.9,7.1c-0.1-0.3-0.2-0.6-0.3-0.9c0-0.1-0.2-0.2-0.4-0.2c-1.6,2.4-3.2,4.9-4.7,7.3
	c-2,3.1-3.9,6.2-5.7,9.5c-0.2,0.3,1.1,1.3,1.8,2c-2,1.9-3.9,3.9-5.7,6.1c-3.1,3.9-6,8-8.6,12.2c-1.1,1.8-2,4.3-1.6,6.2
	c2.4,11.4,11.5,16.4,22.2,18.7c9.7,2.1,19.7,3,29.5,4.8c21.9,4,32.4,14.3,35.5,35.3c1.3,8.9,2,17.9,2.1,26.9
	c0.1,6.6,0.9,12.9,3.5,19.1c7.4,17.2,9.8,35.3,10.1,53.9c0.1,3.7,1.5,7.2,3.9,10.1c16.9,18.5,26,40.3,31.9,63.7
	c3.9,15.3,12.9,28.1,23,40.2c0.8,0.8,1.8,1.5,2.8,2.1c5.7,3.5,11.4,7,17.1,10.5c4.2,2.6,8.3,5.2,12.4,7.8c2.1,1.4,4.8,2.5,6,4.4
	c1.2,2.2,1.5,4.8,0.8,7.2c-0.2,0.8-4.4,1.4-6.3,0.8c-4.2-1.3-8-3.5-12.8-4.9c1.1,1.3,2.1,2.6,3,4c7,10.7,11,22.3,11,34.9
	c0,2.1-2.3,4.2-3.2,6.4c-0.7,1.5-1.1,3.1-1.1,4.8c0.2,4.9-2.2,6.5-7,4.5c-1-0.5-2.1-0.7-3.2-0.6c-6.7,1.9-7.5,1.6-10.5-4.2
	c-0.4-0.7-0.8-1.4-1.4-2.6c-4.3,3.4-7.3,0.8-9.1-2.5c-4.8-9-9.4-18.1-13.5-27.5c-2.1-4.8-3.6-9.9-4.3-15.2
	c-2.4-16.6-12.4-29.1-23.3-41.4c-2.9-3.2-5.5-6.7-8.2-10.1c0-0.7,0.1-1.5,0.1-2.2l29,25h4.3c-0.4-1.4-0.9-2.8-1.3-4.1
	c-5.5-8.4-10.6-17.1-16.7-25.3c-6.5-8.8-13.6-17.2-21-25.4c-3.4-3.9-7.4-7.9-13.8-6.7l-1.2,1.2l-5.4-6.5l-1.4,0.7
	c0.9,2.8,2,5.6,3.3,8.3c3.1,5.7,6.6,11.3,9.9,16.9l-0.4,0.6c-11.2-12.8-21.4-26.5-25.2-42.9c-2-8.9-5.6-17-8.8-25.4
	c-5.5-14.2-9.6-28.9-14.2-42.9c-3.4,7.3-11.7,13.1-11,24.6c1.2,18.7-0.3,37.6-0.8,56.5c-0.2,5.5,1.7,10.8,5.3,14.9
	c13.5,16.6,21.5,35.7,25.7,56.2c6.7,32.9,5.3,65.8,0.7,98.7c-5.4,38-16.1,74.7-27.1,111.4c-4.5,15-6.1,30.9-7.1,46.5
	c-0.5,8.2,3.3,16.6,4.8,25c2.8,15.8,6.1,31.6,7.8,47.5c1.5,14.3-2.7,28.2-7.8,41.7c-8.5,22.4-14.9,45.4-18.1,69
	c-1.1,8.2,0.9,16.8,1.5,25.2c0.2,4.2,0.6,8.4,1.2,12.6c0.7,4.1,1.8,8.2,3.5,12c2.3,5.1,5,10.1,8.2,14.7c2.2,3.2,5.3,5.9,8.1,8.7
	c1.4,1.4,3.3,2.5,4.4,4c3.3,5,1.5,8.4-4.6,9.1c-1.3,0.2-2.7,0.5-4,0.9h-40.4c-9.5-2.8-10.4-3.9-10.4-14c-0.1-3.4,0.1-6.9,0.7-10.3
	c4.3-18.3,4.4-37,4.4-55.6c0-10.3-0.2-20.7-1.2-30.9c-1-11.1-2.7-22.1-5.1-33c-5.6-24.9-8.1-49.8-3-75.1c4.3-21.5,6.7-43.1,5.1-65
	c-1.5-21.4-3.5-42.7-5.2-64.1c-2.9-35.1-5.9-70.2-4-105.4c0.2-4.7,0.9-9.4,1.4-14.5h-11c0.5,3.8,1.3,7,1.3,10.2
	c0.1,20,0.2,39.9-0.2,59.9c-0.2,11.3-1.2,22.6-2.1,33.8c-1.9,24.5-3.9,48.9-6.1,73.3c-2,22.2-0.7,44.6,3.8,66.5
	c4.8,23.2,4.8,47.1-0.3,70.3c-1.8,8.3-4.3,16.6-5.3,25c-1.4,11.5-1.6,23.2-2.3,34.8c-1.5,22.8-1.1,45.5,3.5,68
	c0.7,3.5,1,7.1,0.9,10.7c0.1,11.7-0.4,12.3-11.4,15.2h-39.3c-1.2-0.2-2.3-0.5-3.4-0.9c-2.1-1-5.9-2-5.9-3.2
	c-0.1-2.6,0.7-6.3,2.7-7.7c6-4.2,10.6-10.1,13.3-16.9c2.6-6.1,6.6-11.7,9.9-17.6c1.2,1.6,2.5,3.1,3.8,4.5c4.9,4.8,10,9.4,14.9,14.2
	c2.1,2,4,4.3,6.1,6.6c7.7-14-5.3-50.1-18.6-53.2c-2,8.7-4,17.3-6.1,25.9c-0.2-3.8-1.6-7.9-0.5-11.3c4.1-12.2,2.6-24.2,0.6-36.4
	c-4.1-25.4-13.3-49.5-21.1-73.9c-4.9-15.6-3.8-31.5-1.3-47.3c2.3-14.6,5.4-29,9.1-43.4c2.4-9.3,0.9-18.2,0.1-27.3
	c-2.3-25.2-12.4-48.6-18.9-72.9c-11.1-42.1-19.2-84.5-17.9-128.2c0.8-27.4,5.6-53.8,19-78.4c3.3-5.9,7.2-11.5,11.6-16.7
	c3.3-3.7,5-8.6,4.8-13.6C165.3,343.3,164.9,320.2,164.5,297.1l3.6,11.7c4.6-12.3,1.3-21.6-9.6-28.7L164.5,297.1z M430.3,513.5
	l2.3-3.9l3.9,5.8l1.8-0.5c0-1.9,0.5-4-0.1-5.7c-3.1-8.6-6.5-17.1-10-25.6c-0.8-2-2.1-4.8-5.1-3.1c-1,0.6-0.5,3.5-0.8,5.3
	c-0.4,1.1-0.9,2.2-1.3,3.3l-2.9-3.8l-1.8,0.1c-0.1,1.8-1,4-0.4,5.5c3.1,7.1,6.5,14.1,10.1,20.9C426.6,512.8,428.9,513,430.3,513.5
	L430.3,513.5z M30,493.8c-0.3-0.6-0.7-1.3-1-2c0.7-2.4,1.7-4.7,2-7.1c0.1-1.5-0.9-3-1.4-4.6c-1.3,0.9-3.2,1.4-3.7,2.6
	c-3.8,9.2-7.5,18.4-10.9,27.6c-0.5,1.4,0.2,3.1,0.3,4.7l1.6,0.3l3.8-5.9l2.2,3c1.3,0.2,3.7,0.8,3.9,0.5c4-7.9,7.8-15.9,11.4-23.9
	c0.3-0.8-1.2-2.3-1.9-3.4c-1,0.7-2.3,1.2-3,2.1C32.1,489.7,31,491.7,30,493.8z M113,374h-5.3c-3.8,2.5-8.1,4.6-11.1,7.7
	c-14.7,15.5-27.4,32.7-37.8,51.3l-1.2,3.7l3.6,0.1c6.6-5.5,13.5-10.8,19.9-16.5c13.3-12,25-25.2,33.8-40.6c1.7-2.9,2.5-6.2,3.8-9.4
	l-1.6-0.6L113,374z M420.2,453.5c2.2,0.8,4.6,1.2,6.6,2.3c5.7,3.1,11.1,6.6,16.8,9.6c1.2,0.6,3.3-0.5,5-0.8
	c-0.9-1.2-1.5-2.7-2.7-3.5c-2.8-1.8-6-3.1-8.8-5c-5-3.4-9.8-7.1-14.9-10.6c-3-2.1-5.5-2.1-6.1,2.2c-1.7-1.8-3.3-3.7-5.2-5.4
	c-3.6-3.1-13.9-0.7-14.2,3.5c-0.7,11.9,0.3,23.6,6.4,34.3c3.3,5.8,6.6,6.1,11.7,1.5c3.7-3.4,7.7-6.5,11.1-10.2c1.2-1.3,2-4,1.3-5.4
	C425.3,461.7,422.6,457.7,420.2,453.5L420.2,453.5z M285.6,739.7l-0.2-27.1l-1.7-0.1c-0.5,0.8-0.9,1.6-1.2,2.5
	c-4.1,14.9-9.4,29.6-12,44.7c-3.6,20.6-4.8,41.6-7.7,62.4c-2,14.3-5,28.4-7.4,42.6c-0.4,2.2,0.2,4.6,0.3,6.9h1.9
	c0.7-2.5,1.6-4.9,2.1-7.4c2.2-11.9,4.4-23.9,6.6-35.8c1.7-9.5,3.4-19,5-28.5l1.1,3c-3.3,21.2-6.6,42.3-9.9,63.3c1-1.5,1.9-3,2.6-4.6
	c3.2-7.9,6.6-15.8,9.4-23.9c3.3-9.5,5.1-19.5,9.1-28.7c7-16.4,10.5-33.2,9.3-50.9c-0.5-7.1-1.8-14.1-2.8-21.5
	c-1.2,0.6-1.7,0.7-1.8,0.9c-0.6,1.4-1.1,2.8-1.6,4.1L285.6,739.7z M167.8,739.7l-1.1,1.1l-2.4-3.8c-0.5,1.1-0.9,2.3-1.3,3.5
	c-3.8,19.1-3.7,38,2.5,56.7c4.6,13.7,9,27.5,13.6,41.1c2.2,6.5,4.7,13,7.4,19.4c1.3,3.1,3.1,5.9,4.8,9.1c-3.1-19.3-6.2-38.2-9.2-57
	c0.4-1.7,0.7-3.3,1.1-5c3.7,20.5,7.4,40.9,11.2,61.4c0.5,1.9,1.1,3.8,1.9,5.6l2.1-0.3c-0.2-3.1,0.1-6.3-0.7-9.2
	c-5.5-18.6-6.8-37.7-8.3-56.8c-2.4-29.8-7.2-59.2-17.2-87.6c-0.6-1.8-1.6-3.6-2.4-5.4l-2,0.3L167.8,739.7z M101.4,362.2
	c0.6-1.5,1.4-3,1.9-4.5c3-8.8,6-17.7,8.9-26.6c0.5-1.5,0.1-3.4,0.1-5.1l-1.2-0.9c-3.2,2.5-7.3,4.5-9.5,7.6
	c-6.9,9.7-14.4,19.3-19.4,29.9c-9.9,21-18.2,42.8-27.2,64.2c-0.6,1.4-1.1,2.8-1.6,4.2l1.1,0.6c1.2-1.2,2.3-2.5,3.3-3.9
	c2.9-4.8,5.2-10,8.5-14.6c11-15.6,22.2-31,33.4-46.5v5.3c2-0.3,3.4-0.2,4.6-0.7c6.6-3.1,13.2-6.4,19.7-9.7c1.1-0.7,1.8-1.9,1.9-3.2
	c0.3-4.6,0.4-9.1,0.2-13.7c-0.2-3.3-2.4-3.9-4.8-1.7c-3.2,2.9-6.2,6.1-9.3,9.2C108.3,355.5,104.8,358.8,101.4,362.2z M304,420.1
	l-1.5,0.1c-0.5,1-0.9,2-1.3,3.1c-8.6,25.8-17.2,51.6-25.8,77.3c-3.2,9.7-7.6,19.2-9.2,29.1c-4.5,28-4,56.2-3,84.4
	c0.4,9.3,1.7,18.6,2.9,27.8c0.4,2.8,2,4.9,5.6,4.4s3.6-2.9,3.6-5.5c0-11.6-0.2-23.3,0.1-34.9c0.2-4.2,1.1-8.4,2.6-12.3
	c4-11,8.8-21.7,12.6-32.8c12.9-37.1,21.5-75,17.8-114.4C307.5,437.6,305.5,428.9,304,420.1z M151.2,420.3H150
	c-0.7,2.5-1.5,5-2.1,7.5c-4.3,19.4-4.8,39-2.6,58.7c3.9,36.2,14.7,70.7,29.1,104.2c2.6,5.7,3.9,11.9,3.8,18.1c-0.3,11-0.3,22,0,32.9
	c0,1.6,2.1,4.3,3.3,4.3c1.8,0,4.1-1.5,5.3-3.1s1.2-3.7,1.4-5.7c3.3-30.7,3.2-61.5,0.9-92.3c-0.6-7.5-1.1-15.2-3.4-22.3
	c-8.8-27.2-18.4-54.3-27.6-81.4C155.8,434.4,153.6,427.4,151.2,420.3L151.2,420.3z M224.6,267c-0.9-15.9-1.6-30.5-2.7-45
	c-0.4-2.1-1.9-3.9-3.9-4.8c-22.1-6.7-42.8,0.6-53.6,20.3c-5.2,9.4-7.8,20.2-11.5,30.3c-1.1,2.9,0.2,4.7,2.9,5.9
	c10.3,4.6,20.3,9.8,30.9,13.6c6.5,2.2,13.3,3.4,20.1,3.6c8.5,0.5,15.9-5.7,16.9-14.1C224.4,273.2,224.4,269.4,224.6,267z
	 M228.6,269.4c0.6,2.8,0.6,9,3.4,13.7c4.6,8,13.2,9.3,22.1,7.6c16-2.9,30.3-9.9,44.1-17.7c1.4-0.8,2.6-4,2.1-5.6
	c-3.2-9.8-5.9-20-10.7-29.1c-10.5-20-31.7-27.9-54.1-21.2c-1.6,0.5-3.6,2.7-3.7,4.2C230.6,236.4,229.7,251.4,228.6,269.4
	L228.6,269.4z M198.7,854.8l1.6-0.1c0.5-1,0.9-2.1,1.2-3.1c2.5-10.5,5.2-21,7.4-31.7c3.1-14.9,8.2-29.7,6.1-45.1
	c-2.7-19.6-6.2-39.2-9.5-58.7c-0.5-1.8-1.1-3.5-1.9-5.2l-2.1-0.1c-2.9,11.8-8,23.6-8.4,35.5c-1,29.1-2.3,58.3,1.8,87.4
	C195.9,840.8,197.4,847.7,198.7,854.8z M251.2,711h-1.5c-0.9,2.2-1.7,4.6-2.2,6.9c-2.9,16-6.1,31.9-8.2,48
	c-1.1,9.2-1.5,18.8,0.1,27.8c3.4,19.4,8.3,38.5,12.6,57.7c0.2,1,0.9,1.9,1.9,3.8c0.7-1.6,1.3-3.2,1.8-4.9c1.5-9.7,3.9-19.4,4.2-29.2
	c0.9-24.2,1.2-48.5,0.9-72.7C260.5,735.5,255.3,723.3,251.2,711z M220.9,421.6h-1.4c0-8.3-0.3-16.7,0.1-25c0.6-11-6.8-15.8-15-18.6
	c-3.6-1.2-7.8-1.3-11.7-1.3c-6.6-0.1-7.1,0.4-6.6,6.8c1.4,17.5,5.4,34.8,11.9,51.1c2.5,6.4,6.1,12.4,9.4,18.5c1.6,3,4.3,4.1,7.8,2.8
	s5.7-3.1,5.6-7.2C220.7,439.6,220.9,430.6,220.9,421.6L220.9,421.6z M233.9,429.3h-1.2c0,6.7-0.4,13.5,0.2,20.1
	c0.2,2.3,3,4.9,5.2,6.2c2.8,1.7,5.7,0.5,7.5-2.3c2-2.9,3.8-5.8,5.4-8.9c8.2-17.3,13.4-35.8,15.5-54.9c1.6-13.9,2.9-13.9-13.5-12.6
	c-11.6,0.9-18.9,8.9-19.1,19.9C233.7,407.6,233.9,418.5,233.9,429.3L233.9,429.3z M312.3,488.1c-5.1,31.2-14.4,61.4-24.7,91.2
	c-6.6,19.1-6.3,38.7-5.8,58.3c0,1.7,1.2,3.3,1.9,5l1.9-0.1C305,592.7,321.3,542.4,312.3,488.1L312.3,488.1z M168,642.5l1.8,0.2
	c0.6-1.4,1.9-2.8,1.8-4.2c-0.6-15.5,0.5-31.4-2.6-46.4c-4.4-21.1-12.4-41.5-18.2-62.4c-3.8-13.7-6.6-27.7-9.9-42.2
	C132.2,542.4,148.3,592.7,168,642.5z M294.7,412.7c-3,8.1-5.6,16.5-9.2,24.4c-7.9,17.6-16.2,35.1-24.5,52.5
	c-13.7,28.6-20.1,58.7-21,90v4.8c1.9-2.7,2.6-5.3,3.5-8c4.6-13.9,8.8-27.9,13.8-41.7c10.2-28.2,21-56.2,31.1-84.4
	C293,438.3,295.1,425.5,294.7,412.7z M213,585.8l0.8-0.2c-0.2-3.3-0.1-6.7-0.6-10c-2.3-16.7-2.4-34-7.6-49.9
	c-7.3-22.7-18.2-44.4-27.6-66.5c-5-11.7-10.2-23.3-15.2-34.9c-1.5-3.4-2.4-7-3.6-10.5c-1,3.4-1.1,7.1-0.3,10.6
	c4.6,17.4,8.6,35.1,14.7,52.1c12.7,35.8,28.6,70.5,38.4,107.3C212.3,584.5,212.6,585.2,213,585.8z M109.7,305.2
	c-0.2,3.4-0.1,6.7,0.1,10.1c0.2,1.9,1.6,4.8,2.9,5c2.4,0.3,4.9-0.3,6.8-1.8c4.1-3.5,7.9-7.3,11.5-11.3
	c11.5-12.2,16.6-26.5,15.8-42.9c-0.2-4-2.1-6.4-6.2-6.4c-8.5,0-17.7,2.3-23,11.5C111.3,280.1,109.2,291.8,109.7,305.2z M343.6,303.5
	l1.5-0.2c-1.9-8.8-3.1-17.7-5.7-26.3c-3.3-10.7-10.5-17.9-23-19c-7.1-0.7-9.5,1.1-9.9,7.8c-1.3,23.1,11.9,39.3,28.4,53.8
	c3.5,3.1,8.1,1.3,8.5-3.4C343.9,312,343.6,307.7,343.6,303.5z M341.8,325.5c-0.5,1-0.9,1.5-0.9,1.9c0,1.3,0.1,2.6,0.3,3.9
	c3.2,18.9,12.2,35.4,24,50.5c10,12.8,19.8,25.5,26.8,40.1c1.8,3.7,4.5,7,6.9,10.5l1.4-0.7c-0.6-1.6-1.2-3.2-1.9-4.9
	c-6.7-16.1-12.9-32.5-20.1-48.3c-6-13-12.7-25.7-19.9-38.2C354.6,333.6,348.8,328.4,341.8,325.5z M256.8,551.3
	c-1.2,1.2-1.5,1.4-1.7,1.7c-11.5,25.8-17.4,52.4-13.6,80.4c0.7,4.9,2.7,9.8,4.9,14.3c0.9,1.8,4.2,3.5,6.4,3.4
	c1.6-0.1,3.9-2.9,4.3-4.8c0.9-4.2,1.2-8.4,0.9-12.7c-2.1-23.1-5.9-46.2-1.3-69.4C257.4,560.3,256.8,556.2,256.8,551.3L256.8,551.3z
	 M197.5,552.2l-1.4,0.4c0.4,5.7,0.4,11.4,1.1,17c1.7,13.5,2.3,26.9,0.7,40.6c-1.4,11.9-1.4,24.1-1.5,36.1c0,1.8,2.5,4.9,4.1,5
	c2.1,0.1,5.5-1.5,6.4-3.3c2.3-4.8,4.4-10,5.1-15.3c3.7-27.5-2.3-53.7-13.4-79C198.3,553.1,197.9,552.6,197.5,552.2L197.5,552.2z
	 M322.9,249.2c4.1,0.7,5.3-1.1,4.2-5.3c-5.3-20.3-19.6-34-36.8-45.7c-1-0.7-2.9-1.1-3.7-0.6s-1.1,2.3-1,3.4
	c1.4,8.2,2.3,16.6,4.7,24.6C294.5,239.4,307.7,248.7,322.9,249.2L322.9,249.2z M126.4,248.9c1.6,0.1,3.2,0.3,4.9,0.2
	c15-0.6,27.8-10,32-24.4c2.1-7.4,3-15.1,4.4-22.7c0.1-1.6,0.1-3.1,0-4.7C152.4,198.2,124.8,232.7,126.4,248.9L126.4,248.9z
	 M181.2,351c0.2-5.2,0.7-10.7-4.6-14.3c-4-2.6-6.4-1.9-6.4,2.7c-0.2,21.6-0.1,43.2,0,64.8c0,4.9,3.3,7.5,7.7,9.4
	c3.7,1.6,6.1,1.1,6.6-2.9c0.4-3.7,0.6-7.5,0.4-11.2C183.6,383.3,182.3,367.2,181.2,351L181.2,351z M283.6,369.3h-0.2
	c0-9.8,0.1-19.6-0.1-29.4c0-1.5-1.2-4-2.4-4.4c-1.4-0.4-4.2,0.8-4.8,2c-1.8,3.5-3.7,7.4-4,11.2c-1.5,17.6-2.5,35.2-3.5,52.9
	c-0.1,3.3,0.1,6.5,0.6,9.7c0.5,3.1,2.4,4,5.6,2.7c5.4-2.1,8.9-5.4,8.8-11.3C283.6,391.5,283.6,380.4,283.6,369.3L283.6,369.3z
	 M58.3,452.9l-1.5-0.4c0-1.5,0.4-3.1-0.1-4.4c-0.8-2.1-1.7-4.9-3.4-5.7c-3.4-1.5-7.9-4-10.9-0.1c-5.9,7.6-11.2,15.6-16.2,23.7
	c-0.8,1.2,0.4,4.3,1.7,5.7c3,3.3,6.7,6,10,9.2c5.8,5.6,9.8,5.5,12.8-1.8C54.1,470.7,55.9,461.6,58.3,452.9z M234,361.1h-0.1
	c0.3,4.1,0.6,8.1,0.9,12.2c0.2,2.8,1.4,2.9,4.1,2.3c6.9-1.6,13.9-3.2,21-3.8c8-0.7,8.3-0.2,8.7-8c0.2-4.1,1.5-9.2-3.6-11.3
	c-5.7-2.3-11.9-4.6-18-4.8c-11.4-0.3-13.2,2.1-12.9,12.9C234,360.8,234,361,234,361.1z M219.5,361.4c0.2-11.9-2.2-14.1-14.9-13.9
	c-2.1,0-4.1,0.3-6.1,0.8c-12.3,2.9-14.7,6.4-13.4,18.4c0.4,3.6,1.9,4.8,5.8,5.2c7.8,0.8,15.6,2,23.2,3.5c3,0.6,4.2,0.1,4.4-2.7
	C218.9,368.9,219.2,365.1,219.5,361.4L219.5,361.4z M167,416l-0.7,0.4l28.4,70.4c4.1-8.4,7.7-15.5,11.2-22.7
	c1.9-3.8,0.6-6.6-2.5-9.5c-8.6-8-16.9-16.2-25-24.8C174.2,425.6,170.8,420.7,167,416z M267.8,889.8c-14.2,3.5-27.3,40.5-20.9,50.7
	c6.9-5.6,14.2-11.9,22-17.5c4.3-3.1,4.3-6.5,3.2-10.8c-1.2-4.9-2.1-9.9-3.1-14.8C268.6,894.9,268.2,892.4,267.8,889.8L267.8,889.8z
	 M259.2,485.4l1.6-0.2c2.2-7.8,4.1-15.7,6.8-23.3c2.8-7.9,6.3-15.5,9.7-23.2c3.3-7.4,6.9-14.7,10.7-22.9c-1.6,0.6-2,0.6-2.2,0.8
	c-11.1,14.4-23,28.2-37.4,39.8c-1.2,1.1-1.9,2.7-1.8,4.3C248.7,469.9,253.4,477.9,259.2,485.4L259.2,485.4z M219.4,331.2v-6.9
	c0-5.6-0.8-6.4-6.5-6.1c-8.1,0.3-15.9,3.3-22,8.6c-4.6,4.1-6.6,9.1-5.2,15.1c0.8,3.5,2.5,4.9,6.6,4.2c4.1-0.7,8.2-1,12.3-1
	C219.3,345,219.3,345.1,219.4,331.2z M247.4,345.2v-0.2c4,0.2,7.9,0.2,11.8,0.8c7,0.9,9.3-0.5,8.7-7.3c-0.3-3.7-1.8-7.3-4.2-10.1
	c-6.6-7.1-15.5-10.1-25.4-10.1c-2.9,0-4.5,1.2-4.4,4.1c0.1,4.6,0,9.2,0.1,13.8c0.2,9.2,0.3,9.2,9.7,9.1
	C245,345.2,246.2,345.2,247.4,345.2L247.4,345.2z M293.2,956.7c-6.8-8.7-13-16.7-19.4-24.5c-0.6-0.7-2.9-0.8-4.1-0.4
	c-11.8,3.9-15.4,19.5-6.6,27.9c0.6,0.6,1.4,0.9,2.2,1C274.5,961.2,283.5,960.6,293.2,956.7L293.2,956.7z M159.7,957.4
	c6.3,1.2,10.9,2.4,15.6,2.8c16.9,1.5,15.7,2.9,19.7-14.5c1.2-5.4-7.3-14.6-13.1-14.5c-0.8,0-1.6,0.3-2.2,0.9
	C173.3,940,167.1,948,159.7,957.4L159.7,957.4z M185.9,323.9c3.6-2.1,6.6-4.3,10.1-5.7c3.5-1.3,7.2-2.3,10.9-2.8
	c12.9-2.3,13-2.2,12.4-14.8c0-0.3,0.1-0.8,0-1c-1-1.1-1.8-2.9-3.1-3.2C198.4,292.2,182.8,306.2,185.9,323.9L185.9,323.9z
	 M267.5,324.7c2.3-17.5-6.6-27.6-23.7-28.5c-9.6-0.5-10.1,0-9.5,8.9c0.1,1.6,0.4,3.3,0.4,4.9c-0.1,2.9,1.4,4.1,4.3,4.4
	C249,315.6,259.2,316.7,267.5,324.7L267.5,324.7z M333.1,239l1.7-0.3c0.3-1.5,0.5-3,0.5-4.6c-0.6-5.5-1.1-11.1-2.3-16.5
	c-2.2-10.8-9.2-18.5-19.3-23.6c-2.6-1.3-5.9-1.7-8.9-2.1c-1-0.1-2.5,0.9-3.2,1.8c-0.3,0.4,0.6,2.1,1.4,2.7
	c13.1,10.5,21.3,24.2,27.9,39C331.6,236.7,332.3,237.9,333.1,239z M152.6,194.6c-4.1-4.2-8.2-2.8-11.8-1.1
	c-8.3,3.9-15.2,9.6-17.8,18.2c-2.4,7.6-3.3,15.6-4.7,23.5c-0.2,1.2,0.6,2.5,0.9,3.7l1.5,0.2C128.1,222.2,137.1,206.4,152.6,194.6z
	 M188.6,690.1c1.8-3.2,3.6-5.1,4.1-7.3c1.7-6,2.9-12.1,3.8-18.2c0.6-5.4-2.5-7.7-8.7-7.2c-7.9,0.5-11,3-9.6,8.6
	c1.4,5.6,3.2,11,5.3,16.4C184.5,684.7,186.5,686.8,188.6,690.1L188.6,690.1z M264.1,689.7c5.5-5.2,8.5-11.5,10.6-20.8
	c1.9-8.4-0.9-11.6-10.1-11.5c-6,0-8.3,2.1-7.8,7.7c0.5,4.9,1.4,9.7,2.7,14.4C260.5,682.8,262.3,685.9,264.1,689.7L264.1,689.7z
	 M239.4,467.8l-2.2,0.5c0.2,3.5,0.2,7,0.6,10.5c1.1,10.9,2.2,21.8,3.5,32.7c0.4,3.7,1.2,7.5,5.2,10.6c0.5-1.8,1-2.7,1-3.5
	c-0.3-6.5,0.1-12.7,3.4-18.6c0.9-1.6,1-3.5,0.5-5.2C247.6,485.7,243.5,476.8,239.4,467.8z M216.3,468.5l-1.3-0.4
	c-0.6,0.5-1.1,1-1.6,1.6c-3.6,7.4-7.4,14.8-10.6,22.4c-1.1,2.7-1.1,5.7,0,8.5c2.4,5.4,3.5,11.3,3,17.2c0.1,1.3,0.4,2.6,0.8,3.8h2.2
	C215.1,504.3,214.8,486.3,216.3,468.5L216.3,468.5z M353.7,372.3c0.2-1.4,0.4-1.7,0.3-2c-4.3-11.8-13.7-19.8-22.8-28
	c-0.3-0.3-3.5,1.3-3.6,2.1c-0.3,4.7-0.3,9.5,0.1,14.2c0.1,1.2,1.4,2.6,2.6,3.3c5.5,3,11.1,5.9,16.8,8.6
	C349.1,371.3,351.3,371.6,353.7,372.3z M246.4,169.1c-1.6,1.9-3,3.2-3.8,4.8c-4.9,9.2-10.2,18.2-14.1,27.7
	c-1.7,4.1-0.3,9.4-0.3,14.5C238.1,210.1,250.5,178.7,246.4,169.1z M207.8,169.5c-4.3,10.4,7.2,39.1,16.3,44.8
	c2.5-4.5,2.6-10,0.3-14.6c-3-6.3-6.1-12.5-9.4-18.6C212.8,177,210.2,173.3,207.8,169.5L207.8,169.5z M183,202.9
	c1.6-0.1,2.8,0.2,3.3-0.2c5.3-4.8,10.5-9.7,15.5-14.7c0.6-0.6,0.2-3-0.5-3.5c-1.3-0.7-2.9-0.8-4.2-0.2c-8.1,4-16.1,8.2-24,12.5
	c-0.9,0.5-2.1,2.1-1.9,2.5c0.7,1.1,1.8,1.9,3,2.2C177.2,202.1,180.5,202.5,183,202.9z M269.4,203c3.4-0.5,6.5-0.9,9.5-1.6
	c1.3-0.3,2.4-1.4,3.6-2.2c-0.8-1-1.4-2.2-2.5-2.8c-7.5-4.1-14.9-8.1-22.6-11.8c-1.5-0.7-3.7,0-5.6,0.1c0.3,1.8,0,4.2,1.1,5.4
	c3.9,4.1,8.1,8,12.5,11.7C266.4,202.6,268.2,202.7,269.4,203L269.4,203z M283.4,667.8l-1.5-0.5c-3,14.5-14.3,26-16.1,41.2
	c3.1-0.9,5.5-2.4,8.1-3.5c4.6-1.9,6.6-5,7-9.9C281.4,686,282.5,676.9,283.4,667.8L283.4,667.8z M171.2,666.6l-1.3,0.3
	c0.9,9.2,1.7,18.4,2.7,27.6c0.8,7.3,7,12.8,15.9,13.9C185.5,693.1,174.4,681.4,171.2,666.6L171.2,666.6z M250.4,662.5
	c-6.4,20.3,1.2,38.4,10.6,56.2C261.7,699.2,252.5,681.4,250.4,662.5L250.4,662.5z M192.7,718.4c9.6-17.4,16.3-35.4,10.3-56.3
	C201,681.8,191.4,699.2,192.7,718.4L192.7,718.4z M308.8,292.1l-2.6,1.4c1.2,12.5,9.2,21.9,17.6,30.9c3,3.2,6.2,7.2,12.2,6.4
	C324.2,320,314.9,306.8,308.8,292.1z M145.1,292.6c-4,6.8-7.5,13.9-12.1,20.2s-10.3,11.8-15.5,17.7l1.5,1.4
	c10.8-4.5,16.8-13.8,22.8-23C147.4,300.2,148,296,145.1,292.6L145.1,292.6z M225.5,193.4h1.9c1.5-2.5,3.1-4.9,4.4-7.5
	c5.4-10.7,3.8-12.8-8.5-12.1c-4.4,0.3-5.5,2.3-4.1,5.8C221.1,184.3,223.4,188.8,225.5,193.4L225.5,193.4z M250.7,900.7
	c4.5-7,9-13.7,13.1-20.7c0.8-1.4-0.4-3.8-0.6-5.7c-1.7,0.3-3.7,0.1-5,0.9C248.8,881,246.3,890.1,250.7,900.7L250.7,900.7z
	 M202.7,900.9c4.2-11.7,1.7-20.1-7.9-25.8c-1.3-0.8-4.4-1-4.7-0.4c-0.8,1.5-1.4,3.9-0.6,5.2C193.7,886.9,198.2,893.8,202.7,900.9
	L202.7,900.9z M432.1,472.3l-2.3-0.2c-0.4,1.7-1.7,3.7-1.1,5.1c3.2,7.9,6.8,15.7,10.5,23.4c0.7,1.5,2.4,2.6,3.7,3.8l1.5-0.9
	C443.8,491.9,436.8,482.5,432.1,472.3z M23.4,472l-2.2,0.2c-4.2,10.4-11.8,19.7-12,33c2.1-1.4,3.2-1.8,3.6-2.5
	c4.2-8.7,8.4-17.5,12.3-26.4C25.5,475.3,24,473.5,23.4,472z M4.5,463.8l0.5,1.9c2.2-0.4,4.7-0.2,6.5-1.2c6-3.2,11.8-6.8,17.5-10.4
	c2.1-1.3,4-3,5.6-5c0.8-1.1,0.7-2.9,0.9-4.3c-1.5,0.2-3.4,0.1-4.5,0.8c-8.2,5.2-16.4,10.7-24.5,16.1C5.7,462.3,5,463,4.5,463.8z
	 M196.6,953.8c0.4,2.2-1.5,6.3,4.2,6.9c6.7,0.7,7.8-4,5.5-10.5c-0.9-2.6-4.4-4.4-6.7-6.5c-1,2.6-2,5.2-3,7.8
	C196.5,952.3,196.5,953.1,196.6,953.8z M258.1,953.3c-1.6-3.3-2.5-7.3-5-9.3c-1.8-1.5-7.1,6.6-6.8,11.2v0.5c0.4,4.5,4,7,8,4.6
	C256.1,959.2,256.6,956.1,258.1,953.3L258.1,953.3z M284.6,310c3.6-10.6,6.7-19.9,10-29.5C284.7,286.2,281.1,296.1,284.6,310z
	 M248.8,194.8c-1.9,3.2-3.4,5-4,7.1s-1.4,5.1-0.4,6.2s4.4,1,6.6,0.8c3.9-0.4,4.9-2.7,3.1-5.9C252.8,200.7,251.1,198.4,248.8,194.8z
	 M204.7,194.6c-2.5,4-4.5,6.6-5.6,9.5c-0.4,1.1,0.8,3.9,1.7,4.1c2.6,0.6,5.5,0.2,8.3,0.3c-0.1-2.3,0.1-4.6-0.5-6.8
	C208.1,199.8,206.6,198.1,204.7,194.6z M179.9,332.7c2-7-0.1-10.4-9.9-16.1C168.6,324.3,172.2,330.1,179.9,332.7z M273.6,332.6
	c7.8-2.9,11-8,10-16C275.1,320.9,272.3,325.3,273.6,332.6z M171.2,285.8c1.4,5.4,7.9,11,11.6,10.6c1.3-0.2,2.3-1,2.9-2.2
	c0.3-1.1-0.3-3.3-1.2-3.6C180.5,288.9,176.3,287.6,171.2,285.8z M282.2,286c-5,1.8-9.5,3.2-13.7,4.9c-0.7,0.3-1.1,2.4-0.7,3.4
	c0.6,1.1,1.7,1.9,2.9,2.2C274.4,296.8,280.9,291.2,282.2,286L282.2,286z M37.4,506.6l2.4,0.9l7.3-19l-1.8-0.6
	C39.7,493,38.7,499.8,37.4,506.6z M179.8,321c2-6.1,0.9-9.8-3.9-11.9c-1.3-0.6-3.1-0.4-4.6-0.5c0.2,1.4,0,3,0.7,4
	C174.1,315.4,176.6,317.8,179.8,321z M407.3,488.3c1.3,6.7,2.8,13.4,7.8,18.5C414.7,499.8,413.8,492.9,407.3,488.3z M282.2,299.8
	c-0.5-0.7-1-1.5-1.5-2.2c-3,1-6.4,1.5-8.6,3.4c-1.2,1-0.2,4.3-0.2,6.5l1.8,1C276.5,305.5,279.3,302.6,282.2,299.8z M179.8,308.4
	l2.1-0.9c-0.2-2.4,0.6-5.8-0.7-6.9c-2.1-1.8-5.7-2-8.6-2.9l-1.3,2.2L179.8,308.4z M273.7,319.5c6.4-2.9,8.6-6.4,7-11.1
	C272.7,311.1,271.8,312.6,273.7,319.5z"/>
<path fill="#595959" d="M174.9,181.1c-12.9-0.2-25.7-0.7-38.6-0.7s-14-0.7-9.9-12.7c2.6-7.8,5.7-15.5,9.2-22.9
	c10.2-21.2,12.4-43.3,8.8-66.2c-2-12.9-3.4-25.8,0-39c5-19.4,16.6-32.3,36.8-38c1.1-0.4,2.1-1,3-1.7h19.6c5.4,1.5,10.9,2.8,16.2,4.7
	c9.7,3.4,17.7,8.8,21.5,18.5c0.8,1.4,2.1,2.5,3.7,3c20.5,6,30.5,20.2,34.5,39.3c3.3,15.9,1.7,31.7-1.5,47.4c-0.5-1-0.7-2.1-0.9-3.3
	c0.2-4,0.3-7.4-5.6-8c-1.7-0.2-3.8-3.4-4.3-5.5c-2-7.3-3.6-14.7-4.8-22.1c-0.9-6.2-3.6-10.3-10.5-11.4c-3.9-0.6-7.7-2.5-11.5-2.6
	c-4.3,0-9.3,0.3-12.7,2.4c-11.4,6.9-23.5,12.5-36.1,16.6c-1.9,0.8-3.4,2.4-4.2,4.3c-1.2,3.6-1.6,7.3-2.4,11s-1.8,7.3-6.8,8.2
	c-1.1,0.2-2.5,2.7-2.4,4c0.7,7.7,0.5,15.9,8.5,21.1c0.9,0.6,1.2,1.9,1.7,3c1.1,2.6,1.8,5.4,3.3,7.7c5.7,8.1,8.2,18,7.2,27.9
	c0,1.6-0.1,3.2-0.1,4.9c-3.8,7.1-11.1,8.3-18.3,9.8C177.2,181.1,176.1,181.1,174.9,181.1z M215.9,24.1H237
	C230.1,18.8,222.9,18.8,215.9,24.1L215.9,24.1z"/>
<path fill="#626262" d="M267,137.7c-0.6-0.7-1.9-1.7-1.8-2c1.8-3.2,3.7-6.4,5.7-9.5c1.5-2.5,3.1-4.9,4.7-7.3
	c0.1,0.1,0.3,0.1,0.4,0.2c0.1,0.3,0.2,0.6,0.3,0.9c-1.7,4.3-3.2,8.8-5.2,13C270.2,134.8,268.4,136.1,267,137.7z"/>
<path fill="#CDCDCD" d="M362.3,411c0,0.7-0.1,1.5-0.1,2.2l-14.6-17.5l0.4-0.6L362.3,411z"/>
<path fill="#454545" d="M304,420.1c1.5,8.8,3.5,17.5,4.3,26.3c3.8,39.5-4.9,77.3-17.8,114.4c-3.8,11-8.6,21.8-12.6,32.8
	c-1.5,4-2.4,8.1-2.6,12.3c-0.3,11.6-0.1,23.3-0.1,34.9c0,2.6,0,5-3.6,5.5s-5.3-1.6-5.6-4.4c-1.2-9.3-2.5-18.5-2.9-27.8
	c-1.1-28.2-1.6-56.5,3-84.4c1.6-9.9,6-19.4,9.2-29.1c8.6-25.8,17.1-51.6,25.8-77.3c0.4-1,0.9-2,1.3-3.1L304,420.1z"/>
<path fill="#454545" d="M151.3,420.4c2.3,7,4.5,14,6.9,21c9.2,27.1,18.8,54.2,27.6,81.4c2.3,7.1,2.8,14.8,3.4,22.3
	c2.4,30.8,2.4,61.6-0.9,92.3c-0.2,1.9-0.3,4.2-1.4,5.7c-1.3,1.7-3.2,2.8-5.3,3.1c-1.1,0-3.2-2.8-3.3-4.3c-0.3-11-0.3-22,0-32.9
	c0.1-6.2-1.2-12.4-3.8-18.1c-14.4-33.5-25.2-68-29.1-104.2c-2.1-19.7-1.6-39.3,2.6-58.7c0.6-2.5,1.4-5,2.1-7.5L151.3,420.4z"/>
<path fill="#454545" d="M224.6,267c-0.2,2.4-0.2,6.2-0.8,9.9c-1,8.4-8.4,14.6-16.9,14.1c-6.9-0.2-13.6-1.5-20.1-3.7
	c-10.6-3.9-20.6-9-30.9-13.6c-2.7-1.2-4-3-2.9-5.9c3.8-10.1,6.3-20.9,11.5-30.3c10.8-19.6,31.5-27,53.6-20.3c2,0.9,3.4,2.7,3.9,4.8
	C223,236.5,223.7,251.1,224.6,267z"/>
<path fill="#454545" d="M228.6,269.4c1.1-18,2-33,3.2-48c0.1-1.5,2.1-3.8,3.7-4.2c22.4-6.7,43.6,1.2,54.1,21.2
	c4.8,9.1,7.5,19.3,10.7,29.1c0.5,1.6-0.6,4.8-2.1,5.6c-13.8,7.8-28.1,14.8-44.1,17.7c-9,1.6-17.5,0.4-22.1-7.6
	C229.2,278.4,229.2,272.2,228.6,269.4z"/>
<path fill="#454545" d="M198.7,854.8c-1.3-7-2.9-14-3.8-21.1c-4.1-29-2.8-58.3-1.8-87.4c0.4-11.9,5.5-23.7,8.4-35.5l2.1,0.1
	c0.8,1.7,1.4,3.4,1.9,5.2c3.3,19.6,6.8,39.1,9.5,58.7c2.1,15.4-3,30.2-6.1,45.1c-2.2,10.6-4.9,21.1-7.4,31.7
	c-0.3,1.1-0.7,2.1-1.2,3.1L198.7,854.8z"/>
<path fill="#454545" d="M251.2,711c4.1,12.3,9.3,24.5,9.4,37.4c0.3,24.2,0,48.5-0.9,72.7c-0.4,9.8-2.7,19.5-4.2,29.2
	c-0.5,1.7-1,3.3-1.8,4.9c-0.8-1.2-1.4-2.5-1.9-3.8c-4.3-19.2-9.2-38.4-12.6-57.7c-1.6-9-1.2-18.7-0.1-27.8c2-16.1,5.3-32,8.2-48
	c0.6-2.4,1.3-4.7,2.2-6.9L251.2,711z"/>
<path fill="#454545" d="M220.9,421.6c0,9-0.2,18,0.1,27c0.1,4.1-2.1,5.9-5.6,7.2s-6.2,0.2-7.8-2.8c-3.3-6.1-6.9-12.1-9.4-18.5
	c-6.5-16.3-10.5-33.6-11.9-51.1c-0.5-6.4,0.1-6.9,6.6-6.8c3.9,0.1,8.1,0.1,11.7,1.3c8.2,2.8,15.5,7.6,15,18.6
	c-0.4,8.3-0.1,16.7-0.1,25L220.9,421.6z"/>
<path fill="#454545" d="M233.9,429.3c0-10.8-0.2-21.6,0-32.4c0.2-11,7.5-19,19.1-19.9c16.4-1.3,15.1-1.2,13.5,12.6
	c-2.1,19-7.3,37.6-15.4,54.9c-1.6,3.1-3.4,6-5.4,8.9c-1.8,2.8-4.7,4-7.5,2.3c-2.3-1.4-5-4-5.2-6.2c-0.7-6.6-0.2-13.4-0.2-20.1H233.9
	z"/>
<path fill="#454545" d="M312.2,488.1c9,54.4-7.3,104.6-26.8,154.4l-1.9,0.1c-0.6-1.7-1.8-3.3-1.9-5c-0.5-19.6-0.8-39.2,5.8-58.3
	C297.9,549.5,307.1,519.3,312.2,488.1z"/>
<path fill="#454545" d="M168,642.5c-19.7-49.8-35.8-100.1-27.2-155.1c3.4,14.5,6.1,28.5,9.9,42.2c5.8,20.9,13.8,41.3,18.2,62.4
	c3.1,15,2,30.9,2.6,46.4c0,1.4-1.2,2.8-1.8,4.2L168,642.5z"/>
<path fill="#454545" d="M294.7,412.7c0.4,12.8-1.7,25.6-6.2,37.7c-10.2,28.2-20.9,56.2-31.1,84.4c-5,13.8-9.3,27.8-13.8,41.7
	c-0.9,2.6-1.6,5.3-3.5,8v-4.8c0.9-31.3,7.3-61.4,21-90c8.3-17.4,16.6-34.9,24.5-52.5C289.1,429.2,291.7,420.9,294.7,412.7z"/>
<path fill="#454545" d="M213,585.8c-0.4-0.6-0.7-1.3-0.9-2c-9.9-36.8-25.7-71.6-38.5-107.4c-6.1-17-10-34.7-14.7-52.1
	c-0.8-3.5-0.7-7.1,0.3-10.6c1.2,3.5,2.2,7.1,3.6,10.5c5,11.7,10.2,23.3,15.2,34.9c9.4,22.1,20.3,43.8,27.6,66.5
	c5.1,15.9,5.3,33.2,7.6,49.9c0.4,3.3,0.4,6.7,0.6,10L213,585.8z"/>
<path fill="#454545" d="M109.7,305.2c-0.5-13.4,1.6-25,8-35.8c5.4-9.2,14.6-11.5,23-11.5c4,0,6,2.4,6.2,6.4
	c0.8,16.4-4.3,30.7-15.8,42.9c-3.6,4-7.4,7.8-11.5,11.3c-2,1.5-4.4,2.1-6.8,1.8c-1.3-0.2-2.6-3.2-2.9-5
	C109.6,311.9,109.5,308.5,109.7,305.2z"/>
<path fill="#454545" d="M343.6,303.5c0,4.3,0.3,8.5-0.1,12.8c-0.5,4.6-5,6.5-8.5,3.4c-16.5-14.5-29.7-30.7-28.4-53.8
	c0.4-6.7,2.8-8.5,9.9-7.8c12.5,1.2,19.7,8.4,23,19c2.6,8.6,3.9,17.5,5.7,26.3L343.6,303.5z"/>
<path fill="#454545" d="M99.5,366.7c-11.2,15.5-22.4,30.9-33.4,46.5c-3.2,4.6-5.6,9.8-8.5,14.6c-1,1.4-2.1,2.7-3.3,3.9l-1.1-0.6
	c0.5-1.4,1.1-2.8,1.6-4.2c9-21.4,17.3-43.1,27.2-64.2c5-10.6,12.5-20.2,19.4-29.9c2.2-3.1,6.3-5.1,9.5-7.6l1.2,0.9
	c0,1.7,0.4,3.5-0.1,5.1c-2.8,8.9-5.9,17.7-8.9,26.6c-0.5,1.5-1.2,3-1.9,4.5S100.1,365.2,99.5,366.7z"/>
<path fill="#454545" d="M341.8,325.5c7,3,12.8,8.1,16.6,14.8c7.2,12.4,14,25.1,19.9,38.2c7.3,15.9,13.5,32.2,20.1,48.3
	c0.7,1.6,1.2,3.2,1.9,4.9l-1.4,0.7c-2.3-3.5-5.1-6.8-6.9-10.5c-7-14.5-16.8-27.4-26.8-40.1c-11.9-15.1-20.9-31.6-24-50.5
	c-0.2-1.3-0.3-2.6-0.3-3.9C341,326.9,341.3,326.5,341.8,325.5z"/>
<path fill="#454545" d="M256.8,551.3c0,4.9,0.6,9-0.1,12.9c-4.5,23.2-0.8,46.3,1.3,69.4c0.3,4.2,0,8.5-0.9,12.7
	c-0.4,1.9-2.7,4.8-4.3,4.8c-2.1,0.1-5.5-1.6-6.4-3.4c-2.3-4.5-4.3-9.4-4.9-14.3c-3.8-28,2.1-54.7,13.6-80.4
	C255.2,552.7,255.6,552.5,256.8,551.3z"/>
<path fill="#454545" d="M197.5,552.2c0.4,0.4,0.8,0.9,1.1,1.5c11.1,25.3,17.1,51.5,13.4,79c-0.7,5.2-2.8,10.4-5.1,15.3
	c-0.9,1.8-4.3,3.4-6.4,3.3c-1.5-0.1-4.1-3.2-4.1-5c0.1-12,0.1-24.2,1.5-36.1c1.6-13.7,1-27.1-0.7-40.6c-0.7-5.6-0.8-11.3-1.1-17
	L197.5,552.2z"/>
<path fill="#454545" d="M322.9,249.1c-15.2-0.4-28.4-9.8-32.6-23.6c-2.4-8-3.3-16.3-4.7-24.6c-0.2-1.1,0.2-3,1-3.4s2.7,0,3.7,0.6
	c17.1,11.7,31.5,25.3,36.8,45.7C328.2,248,327,249.8,322.9,249.1z"/>
<path fill="#454545" d="M126.4,248.9c-1.6-16.2,26-50.7,41.3-51.6c0.1,1.6,0.1,3.1,0,4.7c-1.3,7.6-2.2,15.3-4.4,22.7
	c-4.2,14.4-17,23.8-32,24.4C129.6,249.2,128,249,126.4,248.9z"/>
<path fill="#454545" d="M167.8,739.6v-26.8l2-0.3c0.8,1.8,1.7,3.6,2.4,5.4c10,28.4,14.8,57.8,17.2,87.6c1.5,19.1,2.8,38.2,8.3,56.8
	c0.9,2.9,0.5,6.1,0.7,9.2l-2.1,0.3c-0.8-1.8-1.4-3.7-1.9-5.6c-3.8-20.5-7.5-40.9-11.2-61.4C178.1,783,172.9,761.3,167.8,739.6z"/>
<path fill="#454545" d="M271.2,799.8c-1.7,9.5-3.3,19-5,28.5c-2.1,11.9-4.3,23.9-6.6,35.8c-0.5,2.5-1.4,5-2.1,7.4h-1.9
	c-0.1-2.3-0.7-4.7-0.3-6.9c2.4-14.2,5.4-28.3,7.4-42.6c2.9-20.8,4.1-41.8,7.7-62.4c2.6-15.1,7.9-29.8,12-44.7
	c0.3-0.9,0.7-1.7,1.2-2.5l1.7,0.1l0.2,27.1C280.8,759.7,276,779.8,271.2,799.8z"/>
<path fill="#454545" d="M181.1,351c1.2,16.1,2.5,32.3,3.5,48.4c0.2,3.7,0.1,7.5-0.4,11.2c-0.5,4-2.9,4.5-6.6,2.9
	c-4.4-1.9-7.7-4.5-7.7-9.4c-0.1-21.6-0.2-43.2,0-64.8c0-4.6,2.5-5.3,6.4-2.7C181.9,340.3,181.4,345.7,181.1,351z"/>
<path fill="#454545" d="M283.6,369.2v33.4c0,5.9-3.4,9.2-8.8,11.3c-3.2,1.3-5.1,0.4-5.6-2.7c-0.5-3.2-0.7-6.5-0.6-9.7
	c1-17.6,2-35.3,3.5-52.9c0.3-3.8,2.2-7.7,4-11.2c0.6-1.2,3.4-2.4,4.8-2c1.1,0.3,2.3,2.8,2.4,4.4c0.2,9.8,0.1,19.6,0.1,29.4
	L283.6,369.2z"/>
<path fill="#454545" d="M420.2,453.5c2.4,4.1,5.1,8.1,7,12.5c0.6,1.4-0.1,4.2-1.3,5.4c-3.4,3.6-7.4,6.8-11.1,10.2
	c-5.1,4.6-8.4,4.4-11.7-1.5c-6.1-10.7-7.1-22.4-6.4-34.3c0.3-4.2,10.6-6.7,14.2-3.5c1.9,1.6,3.5,3.6,5.2,5.4L420.2,453.5z"/>
<path fill="#454545" d="M58.3,452.9c-2.5,8.8-4.2,17.8-7.6,26.2c-2.9,7.3-7,7.3-12.8,1.8c-3.2-3.1-7-5.9-10-9.2
	c-1.3-1.4-2.5-4.5-1.7-5.7c5.1-8.1,10.4-16.1,16.2-23.6c3-3.9,7.5-1.3,10.9,0.1c1.7,0.7,2.6,3.6,3.4,5.7c0.5,1.3,0.1,2.9,0.1,4.4
	L58.3,452.9z"/>
<path fill="#454545" d="M234,361.1v-0.5c-0.2-10.8,1.5-13.2,12.9-12.9c6.1,0.1,12.3,2.5,18,4.8c5.1,2.1,3.8,7.2,3.6,11.3
	c-0.4,7.8-0.7,7.4-8.7,8c-7.1,0.6-14.1,2.2-21,3.8c-2.7,0.6-3.9,0.5-4.1-2.3c-0.3-4.1-0.6-8.1-0.9-12.2H234z"/>
<path fill="#454545" d="M219.5,361.4c-0.3,3.8-0.6,7.5-0.9,11.3c-0.2,2.9-1.5,3.3-4.4,2.7c-7.7-1.6-15.4-2.7-23.2-3.5
	c-3.9-0.4-5.4-1.6-5.8-5.2c-1.3-12,1-15.5,13.4-18.4c2-0.5,4.1-0.7,6.1-0.8C217.4,347.3,219.7,349.5,219.5,361.4z"/>
<path fill="#454545" d="M167,416c3.8,4.6,7.2,9.5,11.3,13.9c8.1,8.4,16.4,16.7,25,24.8c3.1,2.9,4.4,5.7,2.5,9.5
	c-3.5,7.2-7.1,14.4-11.2,22.7l-28.4-70.4L167,416z"/>
<path fill="#454545" d="M259.3,485.4c-5.9-7.4-10.6-15.5-12.5-24.7c-0.1-1.6,0.5-3.2,1.8-4.3c14.4-11.6,26.3-25.4,37.4-39.8
	c0.2-0.2,0.6-0.2,2.2-0.8c-3.8,8.2-7.4,15.5-10.7,22.9c-3.4,7.7-6.9,15.3-9.7,23.2c-2.7,7.6-4.6,15.5-6.8,23.3L259.3,485.4z"/>
<path fill="#454545" d="M219.4,331.2c-0.1,14-0.1,13.9-14.9,14c-4.1,0-8.3,0.3-12.3,1c-4,0.7-5.8-0.7-6.6-4.2
	c-1.4-6,0.6-11,5.2-15.1c6.1-5.3,13.9-8.4,22-8.6c5.7-0.3,6.4,0.5,6.5,6.1C219.4,326.6,219.4,328.9,219.4,331.2z"/>
<path fill="#454545" d="M247.4,345.2h-3.6c-9.5,0.1-9.5,0.1-9.7-9.1c-0.1-4.6,0-9.2-0.1-13.8c-0.1-3,1.5-4.1,4.4-4.1
	c10,0,18.8,3,25.4,10.1c2.4,2.9,3.9,6.4,4.2,10.1c0.6,6.8-1.7,8.2-8.7,7.3c-3.9-0.5-7.9-0.5-11.8-0.8L247.4,345.2z"/>
<path fill="#454545" d="M185.9,324c-3.1-17.8,12.6-31.8,30.3-27.5c1.2,0.3,2.1,2,3.1,3.2c0.2,0.2,0,0.6,0,1
	c0.6,12.6,0.6,12.5-12.4,14.8c-3.7,0.6-7.4,1.5-10.9,2.8C192.5,319.6,189.5,321.9,185.9,324z"/>
<path fill="#454545" d="M267.5,324.7c-8.4-8-18.5-9-28.6-10.2c-2.8-0.3-4.4-1.5-4.3-4.4c0.1-1.6-0.3-3.3-0.4-4.9
	c-0.6-8.9,0-9.4,9.5-8.9C260.9,297,269.8,307.2,267.5,324.7z"/>
<path fill="#454545" d="M333.1,239c-0.8-1.1-1.5-2.3-2.1-3.6c-6.6-14.7-14.8-28.4-27.9-39c-0.8-0.6-1.7-2.3-1.4-2.7
	c0.7-0.9,2.2-1.9,3.2-1.8c3,0.4,6.2,0.8,8.9,2.1c10.1,5.1,17,12.7,19.3,23.6c1.1,5.4,1.6,11,2.3,16.5c0,1.5-0.1,3.1-0.5,4.6
	L333.1,239z"/>
<path fill="#454545" d="M152.6,194.6c-15.5,11.9-24.5,27.7-31.9,44.5l-1.5-0.2c-0.3-1.2-1.1-2.6-0.9-3.7c1.4-7.9,2.3-15.9,4.7-23.5
	c2.7-8.6,9.5-14.3,17.8-18.2C144.4,191.8,148.6,190.4,152.6,194.6z"/>
<path fill="#454545" d="M342.8,374.6c6.4-1.1,10.4,2.9,13.8,6.7c7.3,8.2,14.4,16.6,21,25.4c6,8.1,11.2,16.8,16.7,25.3
	c-1-0.1-2.3,0.1-2.9-0.4c-2.8-2.5-5.5-5.1-8.2-7.7L342.8,374.6z"/>
<path fill="#454545" d="M58.7,432.9c10.4-18.6,23.1-35.8,37.8-51.3c3-3.2,7.4-5.2,11.1-7.7c3.7,0.4,1.5,2.2,0.7,3.2
	C94.7,397,79,415.3,61.7,432C61,432.6,59.7,432.6,58.7,432.9z"/>
<path fill="#454545" d="M188.6,690.1c-2.2-3.3-4.2-5.4-5.1-7.9c-2.1-5.3-3.9-10.8-5.3-16.4c-1.4-5.5,1.7-8.1,9.6-8.6
	c6.2-0.4,9.4,1.8,8.7,7.2c-0.8,6.1-2.1,12.2-3.8,18.2C192.2,685,190.5,687,188.6,690.1z"/>
<path fill="#464646" d="M264.1,689.7c-1.8-3.8-3.7-6.9-4.6-10.2c-1.3-4.7-2.2-9.6-2.7-14.5c-0.5-5.6,1.8-7.7,7.8-7.7
	c9.3-0.1,12.1,3.1,10.1,11.5C272.6,678.2,269.6,684.5,264.1,689.7z"/>
<path fill="#464646" d="M239.4,467.8c4,9,8.2,17.9,12,26.9c0.6,1.7,0.4,3.6-0.4,5.3c-3.3,5.9-3.7,12.1-3.4,18.6
	c-0.2,1.2-0.5,2.4-1,3.5c-4-3.1-4.8-6.9-5.2-10.6c-1.3-10.9-2.4-21.8-3.5-32.7c-0.4-3.5-0.4-7-0.6-10.5L239.4,467.8z"/>
<path fill="#464646" d="M216.3,468.5c-1.6,17.8-1.2,35.8-7.4,53h-2.2c-0.5-1.2-0.7-2.5-0.8-3.8c0.5-5.9-0.6-11.8-3-17.2
	c-1.1-2.7-1.1-5.7,0-8.5c3.1-7.6,7-14.9,10.6-22.4c0.4-0.6,1-1.2,1.6-1.6L216.3,468.5z"/>
<path fill="#464646" d="M99.5,366.7c0.7-1.5,1.3-3,1.9-4.5c3.4-3.3,6.9-6.7,10.3-10c3.1-3.1,6.1-6.3,9.3-9.2
	c2.4-2.2,4.6-1.7,4.8,1.7c0.2,4.6,0.1,9.1-0.2,13.7c-0.1,1.3-0.8,2.5-1.9,3.2c-6.5,3.4-13.1,6.6-19.7,9.7c-1.1,0.5-2.6,0.4-4.6,0.7
	V366.7z"/>
<path fill="#464646" d="M353.7,372.3c-2.2-0.5-4.4-1.1-6.5-1.9c-5.7-2.7-11.3-5.6-16.8-8.6c-1.2-0.6-2.5-2.1-2.6-3.3
	c-0.4-4.7-0.4-9.5-0.1-14.2c0-0.8,3.3-2.3,3.6-2.1c9.1,8.2,18.5,16.2,22.8,28C354.1,370.6,354,370.9,353.7,372.3z"/>
<path fill="#484848" d="M246.4,169.1c4.1,9.5-8.2,41-18.2,46.9c0-5.1-1.4-10.4,0.3-14.5c3.9-9.5,9.2-18.6,14.1-27.7
	C243.4,172.4,244.8,171.1,246.4,169.1z"/>
<path fill="#464646" d="M207.8,169.5c2.4,3.8,5,7.5,7.2,11.5c3.3,6.1,6.4,12.4,9.4,18.6c2.3,4.6,2.2,10.1-0.3,14.6
	C214.9,208.6,203.5,179.9,207.8,169.5z"/>
<path fill="#474747" d="M362.3,411L348,395.2c-3.3-5.6-6.8-11.2-9.9-16.9c-1.3-2.7-2.4-5.5-3.3-8.3l1.4-0.7l5.4,6.5
	c2.5,3.7,4.8,7.5,7.7,11c10.7,12.9,21.6,25.6,32.5,38.4c1.3,1.3,2.6,2.6,3.8,4c2,2.3,3.8,4.6,5.7,6.9L362.3,411z"/>
<path fill="#474747" d="M113,374l4-4.3l1.6,0.6c-1.2,3.1-2.1,6.4-3.8,9.4c-8.8,15.4-20.5,28.6-33.8,40.6
	c-6.4,5.7-13.2,10.9-19.9,16.4c1.4-1.8,2.5-3.8,4.2-5.3C84.3,414.6,99.3,394.8,113,374z"/>
<path fill="#464646" d="M183,202.9c-2.5-0.4-5.8-0.8-8.9-1.5c-1.2-0.4-2.3-1.1-3-2.2c-0.2-0.4,1-2,1.9-2.5c7.9-4.3,15.9-8.5,24-12.5
	c1.4-0.5,2.9-0.4,4.2,0.2c0.7,0.4,1.1,2.9,0.5,3.5c-5,5-10.2,9.9-15.5,14.7C185.8,203,184.6,202.8,183,202.9z"/>
<path fill="#464646" d="M269.4,203c-1.2-0.4-3-0.4-4-1.2c-4.4-3.7-8.5-7.6-12.5-11.8c-1.1-1.2-0.8-3.6-1.1-5.4
	c1.9-0.1,4.1-0.8,5.6-0.1c7.6,3.7,15.1,7.7,22.6,11.8c1.1,0.6,1.7,1.9,2.5,2.8c-1.2,0.8-2.3,1.9-3.6,2.2
	C275.9,202.2,272.8,202.5,269.4,203z"/>
<path fill="#464646" d="M283.4,667.8c-0.9,9.1-2,18.2-2.6,27.3c-0.3,4.8-2.4,8-7,9.9c-2.6,1.1-5,2.6-8.1,3.5
	c1.8-15.2,13.1-26.7,16.1-41.2L283.4,667.8z"/>
<path fill="#464646" d="M171.2,666.6c3.1,14.8,14.2,26.5,17.3,41.8c-8.9-1-15.1-6.5-15.9-13.9c-1-9.2-1.8-18.4-2.7-27.6L171.2,666.6
	z"/>
<path fill="#474747" d="M250.4,662.5c2.1,18.8,11.3,36.7,10.6,56.2C251.5,700.9,244,682.8,250.4,662.5z"/>
<path fill="#474747" d="M192.7,718.5c-1.3-19.2,8.3-36.7,10.3-56.3C209,683.1,202.2,701,192.7,718.5z"/>
<path fill="#464646" d="M422.4,485.8c0.2-1.8-0.2-4.7,0.8-5.3c3-1.8,4.2,1,5.1,3.1c3.5,8.5,6.9,17,10,25.6c0.6,1.7,0.1,3.8,0.1,5.7
	l-1.8,0.5l-3.9-5.8C429.2,501.7,425.8,493.8,422.4,485.8z"/>
<path fill="#474747" d="M308.8,292.1c6.1,14.7,15.4,27.9,27.1,38.6c-6,0.8-9.1-3.1-12.2-6.4c-8.5-9-16.5-18.4-17.6-30.9L308.8,292.1
	z"/>
<path fill="#464646" d="M145.1,292.6c2.9,3.4,2.3,7.5-3.4,16.3c-6,9.1-12,18.4-22.8,23l-1.5-1.4c5.2-5.9,10.9-11.4,15.5-17.7
	S141,299.5,145.1,292.6z"/>
<path fill="#474747" d="M225.5,193.4c-2.1-4.6-4.4-9.1-6.4-13.7c-1.4-3.5-0.2-5.5,4.1-5.8c12.3-0.8,13.9,1.3,8.5,12.1
	c-1.3,2.6-2.9,5-4.4,7.5L225.5,193.4z"/>
<path fill="#AFAFAF" d="M113,374c-13.7,20.8-28.7,40.6-47.7,57.4c-1.7,1.5-2.8,3.5-4.2,5.3l-3.6-0.1c0.4-1.2,0.8-2.5,1.2-3.7
	c1-0.3,2.3-0.3,3-0.9c17.3-16.7,33-35,46.7-54.8c0.7-1.1,3-2.9-0.7-3.2L113,374z"/>
<path fill="#474747" d="M420.2,453.5l-4.1-5.9c0.6-4.3,3.1-4.2,6.1-2.2c5,3.5,9.8,7.2,14.9,10.6c2.8,1.9,6,3.2,8.8,5
	c1.2,0.8,1.8,2.3,2.7,3.5c-1.7,0.3-3.8,1.4-5,0.8c-5.7-3-11.2-6.5-16.8-9.6C424.8,454.7,422.4,454.2,420.2,453.5z"/>
<path fill="#474747" d="M432.1,472.3c4.7,10.2,11.6,19.6,12.3,31.2l-1.5,0.9c-1.2-1.3-3-2.3-3.7-3.8c-3.7-7.7-7.2-15.5-10.5-23.4
	c-0.5-1.4,0.7-3.4,1.1-5.1L432.1,472.3z"/>
<path fill="#474747" d="M430.3,513.5c-1.5-0.5-3.7-0.7-4.2-1.6c-3.6-6.9-7-13.8-10.1-20.9c-0.7-1.5,0.2-3.6,0.4-5.5l1.8-0.1l2.9,3.8
	c1.7,3.7,3.5,7.4,4.9,11.1C427.6,504.6,428.9,509,430.3,513.5z"/>
<path fill="#B5B5B5" d="M381.8,425.1c-10.8-12.8-21.8-25.5-32.5-38.4c-2.9-3.4-5.1-7.3-7.7-11l1.2-1.2l40.4,49.2L381.8,425.1z"/>
<path fill="#525252" d="M164.5,297.1l-6.1-17c11,7.1,14.3,16.4,9.6,28.7L164.5,297.1L164.5,297.1z"/>
<path fill="#515151" d="M284.6,310c-3.5-13.9,0.1-23.8,10-29.5C291.3,290,288.2,299.4,284.6,310z"/>
<path fill="#4A4A4A" d="M248.8,194.8c2.4,3.7,4,5.9,5.4,8.3c1.8,3.2,0.8,5.5-3.1,5.9c-2.3,0.2-5.5,0.4-6.6-0.8s-0.3-4.2,0.4-6.2
	S246.9,198,248.8,194.8z"/>
<path fill="#4A4A4A" d="M204.7,194.6c2,3.4,3.4,5.2,3.9,7.1c0.6,2.1,0.4,4.5,0.5,6.8c-2.8,0-5.7,0.3-8.3-0.3c-0.9-0.2-2.2-3-1.7-4.1
	C200.2,201.2,202.2,198.6,204.7,194.6z"/>
<path fill="#4B4B4B" d="M179.9,332.7c-7.7-2.6-11.3-8.4-9.9-16.1C179.8,322.3,181.9,325.7,179.9,332.7z"/>
<path fill="#484848" d="M273.6,332.6c-1.3-7.3,1.5-11.7,10-16C284.6,324.6,281.4,329.8,273.6,332.6z"/>
<path fill="#4C4C4C" d="M171.2,285.8c5.1,1.8,9.3,3.1,13.3,4.8c0.9,0.4,1.4,2.5,1.2,3.6c-0.6,1.1-1.6,2-2.9,2.2
	C179,296.8,172.6,291.3,171.2,285.8z"/>
<path fill="#4B4B4B" d="M282.2,286c-1.3,5.2-7.8,10.8-11.5,10.5c-1.3-0.2-2.3-1-2.9-2.2c-0.4-1,0-3.1,0.7-3.4
	C272.7,289.1,277.1,287.7,282.2,286z"/>
<path fill="#505050" d="M37.4,506.6c1.3-6.8,2.3-13.6,7.9-18.8l1.8,0.6c-2.4,6.3-4.9,12.7-7.3,19L37.4,506.6z"/>
<path fill="#4B4B4B" d="M179.8,321c-3.1-3.3-5.7-5.7-7.8-8.4c-0.8-1-0.5-2.7-0.7-4c1.5,0.1,3.3-0.1,4.6,0.5
	C180.7,311.3,181.8,315,179.8,321z"/>
<path fill="#4C4C4C" d="M407.3,488.3c6.4,4.7,7.4,11.5,7.8,18.5C410.1,501.6,408.7,495,407.3,488.3z"/>
<path fill="#4B4B4B" d="M282.2,299.8c-2.9,2.9-5.7,5.8-8.6,8.6l-1.8-1c0-2.3-1-5.6,0.2-6.5c2.2-1.8,5.7-2.3,8.6-3.4
	C281.2,298.3,281.7,299,282.2,299.8z"/>
<path fill="#4A4A4A" d="M179.8,308.4l-8.6-8.4l1.3-2.2c2.9,0.9,6.5,1.1,8.6,2.9c1.3,1.1,0.6,4.5,0.7,6.9L179.8,308.4z"/>
<path fill="#484848" d="M273.7,319.5c-1.9-6.9-1-8.4,7-11.1C282.3,313.1,280.1,316.6,273.7,319.5z"/>
<path fill="#AFAFAF" d="M430.3,513.5c-1.4-4.4-2.7-8.9-4.4-13.2c-1.4-3.8-3.3-7.4-4.9-11.1c0.5-1.1,0.9-2.2,1.3-3.3
	c3.4,7.9,6.8,15.8,10.2,23.8C431.8,510.9,431.1,512.2,430.3,513.5z"/>
<path fill="#A0A0A0" d="M381.8,425.1l1.4-1.3c2.7,2.6,5.4,5.2,8.2,7.7c0.6,0.5,1.9,0.3,2.9,0.4c0.4,1.4,0.9,2.8,1.3,4.1h-4.3
	c-1.9-2.3-3.8-4.7-5.7-6.9C384.4,427.7,383,426.4,381.8,425.1z"/>
<path fill="#B9B9B9" d="M215.9,24.1c7-5.3,14.1-5.3,21.1,0H215.9z"/>
</svg>
