<?xml version="1.0" encoding="utf-8"?>
<!-- Generator: Adobe Illustrator 26.1.0, SVG Export Plug-In . SVG Version: 6.00 Build 0)  -->
<svg version="1.1" id="f0f91b01-4364-4c46-8044-6b92f85b608b"
	 xmlns="http://www.w3.org/2000/svg" xmlns:xlink="http://www.w3.org/1999/xlink" x="0px" y="0px" viewBox="0 0 453.3 964"
	 enable-background="new 0 0 453.3 964" xml:space="preserve">
<path fill="#454545" d="M181.3,814.8c-11.9-14.8-22.9-29.6-19.3-50.2c4.6-26.6,8.3-53.5,12.3-80.2c0.9-6.3,1.5-12.6,2.2-18.9
	c5.9,0.4,8.8,3.5,8.7,9c-0.4,16.4-1.3,32.8-1.2,49.1c0.1,15.7,1.4,31.4,1.7,47.1c0.2,11.9-0.2,23.9-0.6,35.8c-0.1,2.8-1.3,5.5-2,8.3
	L181.3,814.8z"/>
<path fill="#454545" d="M277,665.3c0.7,5.8,1.1,11.6,2,17.4c3.7,24.3,7.7,48.6,11.3,72.9c1.5,10.5,3.5,21-0.5,31.6
	c-3.1,8.2-12.7,23.1-19.4,28.3c-0.9-4.3-2.3-8-2.3-11.7c0.2-17.7,1-35.3,1-53c0-24.9-0.3-49.8-0.8-74.6
	C268.2,669.5,269.8,666.6,277,665.3z"/>
<path fill="#454545" d="M189.6,673.5c0.8,1.1,1.6,2.3,2.2,3.6c13.5,35.3,23.2,71.3,23.5,109.1c-0.1,5.2-0.9,10.4-2.3,15.5
	c-1.6,6-3.3,6.4-8.5,3c-6.4-4.1-11.1-9.5-11.6-17.1c-2-34.6-3.8-69.3-5.5-103.9c-0.2-3.3,0.6-6.6,0.9-9.9L189.6,673.5z"/>
<path fill="#454545" d="M265.2,673.7c0.2,1.9,0.6,3.8,0.7,5.6c0.9,33.6-1.3,67.1-4.6,100.5c-0.6,6.5-0.3,13.3-5.5,18.5
	c-2.8,2.6-5.7,5.1-8.8,7.4c-2.6,2-4.7,1.1-5.5-1.6c-1.4-5.2-3.1-10.5-3.4-15.8c-1-24.5,4.3-48.2,10.6-71.7
	c3.4-12.8,8.1-25.3,12.3-38c0.7-1.8,1.6-3.5,2.6-5.1L265.2,673.7z"/>
<path fill="#454545" d="M251.7,921.2c2.2,8.9,4.2,17.8,6.7,26.6c0.5,1.9,2.5,3.5,3.9,5.2c1.7-1.6,4.7-3,4.9-4.7
	c0.8-6.6,1.3-13.3,1.4-19.9c0.1-3.3-0.3-6.7-0.5-10l1.4-0.3c1.6,3.9,3.5,7.7,4.9,11.6c2.4,6.8,4.8,13.7,6.9,20.6
	c1.5,5,0.3,7.6-4.9,8.3c-7.4,1-15,1.7-22.4,1s-9.6-4.1-8.5-11.1c1.5-9.2,3.4-18.3,5-27.5L251.7,921.2z"/>
<path fill="#454545" d="M185.5,918.5c-0.3,4.4-1,8.8-0.8,13.1c0.3,6,1,12,2.1,17.8c0.3,1.4,2.8,3.3,4.2,3.3s3.4-2.2,3.8-3.7
	c2.5-9.2,4.6-18.4,7-28.1c0.6,0.7,1,1.4,1.3,2.2c1.8,9.5,3.9,19,5.1,28.5c0.3,2-2,5.4-4.1,6.4c-9.8,4.6-19.8,3.2-29.5-0.4
	c-1.5-0.6-3.1-4-2.6-5.6c3.5-11.4,7.4-22.7,11.3-34L185.5,918.5z"/>
<path fill="#464646" d="M173.2,810.7c2.3,3.8,5,6.7,6,10.1c4,13.9,8.3,27.8,10.7,41.9c2.5,15.2,3,30.7,4.4,46
	c0.2,1.5,0.2,2.9-0.1,4.4c-0.3,1.2-1.4,2.2-2.2,3.3c-0.9-1.1-2.4-2-2.5-3.2c-0.5-4.4-0.6-8.8-0.8-13.2c-1.4-25.4-7.7-49.9-16.1-73.9
	C170.4,819.5,170.5,816.7,173.2,810.7z"/>
<path fill="#454545" d="M282.6,812.4c-0.6,4.5-0.5,9.3-1.9,13.6c-7.1,21.5-13.1,43.1-15.2,65.6c-0.6,6.8-0.8,13.7-1.5,20.6
	c-0.1,1.4-1.7,2.7-2.6,4.1c-0.7-1.4-2.1-2.8-2.1-4.2c0.9-24.8,2.6-49.4,8.9-73.6c1.9-7.1,4.8-14,7.6-20.8c0.9-2.2,2.9-4,4.4-6
	L282.6,812.4z"/>
<path fill="#464646" d="M199.7,912.5c-1-3.1-2.2-5-2.2-6.9c0.4-8.2,1.2-16.3,1.7-24.5c0.6-11,0.9-21.9,1.4-32.9
	c0.5-10,1.1-19.9,2.1-29.9c0.3-3,2-5.9,3.4-9.9C209.5,816.3,204.1,903.4,199.7,912.5z"/>
<path fill="#464646" d="M254.9,911.2c-5-5.6-11-93.3-7.9-102.5c1.4,2.9,2.9,4.9,3.2,7.1c1.1,6.8,2,13.6,2.4,20.5
	c1.3,21.9,2.5,43.8,3.5,65.7C256.2,905,255.3,908.1,254.9,911.2z"/>
<path fill="#464646" d="M21.8,504.7c-1.9,2-1.6,7.5-6.1,5.4c-4.1-1.9-0.5-5.6,0.5-8.1c2.9-7.6,6.2-15.1,9.7-22.6
	c0.7-1.5,2.9-2.5,4.4-3.7c0.3,1.9,0.7,3.8,0.9,5.7c0,0.5-0.1,1-0.2,1.4L21.8,504.7z"/>
<path fill="#474747" d="M8.7,501.4c0.8-4.8,0.9-8.8,2.3-12.2c2.8-6.2,5.9-12.2,9.3-18c0.5-0.8,2.5-1.6,3.2-1.3c0.9,0.4,2,2.3,1.6,3
	c-4.3,9-8.8,18-13.3,26.9C11.6,500.3,10.7,500.4,8.7,501.4z"/>
<path fill="#A4A4A4" d="M32.1,485c-3.1,7.2-6.2,14.5-9.3,21.7l-1-2l9.1-21.9L32.1,485z"/>
<path fill="#B8B8B8" d="M211.4,44.3c10.4,7.2,20.3,8.7,29.4-1.7c0.5,5-3.3,8.9-9.8,10.6C222.6,55.4,215,52.2,211.4,44.3z"/>
<path fill="#BEBEBE" d="M438.7,452.6c5.8,1.5,11,3.9,14.6,8.7v5.9c-7.9,3.2-13.2-2.5-20.9-5.8c2.1,2.9,3.4,4.6,4.6,6.4
	c6.1,9.8,9,20.5,10.2,31.7c0.5,4.2,0.1,8-5.6,8.9c0.4,1.6,1.1,2.9,1,4.1c-0.2,1.7-0.4,3.9-1.6,4.7s-3.4,0.3-5.2,0.2
	c-1.1-0.1-2.6-1.3-3.1-0.9c-6.4,4.3-8.4-0.8-11-4.6c-0.4-0.5-0.6-1.1-1.1-2.1c-5.2,3.5-8.3-0.2-10-3.7c-5-10-9.6-20.2-13.9-30.6
	c-1.9-4.7-3.2-9.7-4-14.7c-2.5-15.1-12.9-25.8-22-37.2c-13.5-17-27-33.9-40-51.2c-5.9-8.1-9.3-17.6-9.9-27.6c0-1.8-0.5-3.6-1.2-5.2
	c-10.3-17.4-15.7-36.2-19.4-56c-3.4,8.2-12.4,13.1-11.7,24.1c1,18.1-0.2,36.4-0.8,54.5c-0.2,7.5,1.5,13.6,6.5,19.9
	c12,14.9,19.3,32,23.5,50.4c7.3,31.6,6.5,63.4,2.7,95.3c-3.3,27.4-9.3,54.3-16.8,80.9c-4.5,16-9.8,31.8-13.9,47.8
	c-2.5,10-3.4,20.4-4.8,30.6c-1.5,11.2,3.2,21.6,5.4,32.3c3.7,17.7,7.2,35.3,7,53.5c-0.1,11.9-3.2,23-7.3,34
	c-8.7,22.8-14.8,46.4-18.4,70.5c-1.2,8.6-1.5,17.6,1.9,26.2c1.3,3.4,0.2,7.5,0.9,11.2c0.7,4,1.8,7.8,3.4,11.5
	c2.2,4.8,4.8,9.4,7.8,13.8c2.5,3.6,5.7,6.8,8.7,10.1c1.1,1.2,2.9,2,3.8,3.2c3.6,4.7,1.9,10.1-4.3,9.6c-1.3-0.1-2.6,0.5-4,0.9h-41.4
	c-8.2-2.6-9.5-4-9.3-12.7c0.1-5.7,0.9-11.4,1.4-17.1c1.2-12.8,3.1-25.7,3.5-38.5c0.4-14.1-0.2-28.2-1.1-42.2
	c-0.5-9-1.2-18.1-3.6-26.8c-7.8-29.2-10.2-58.5-3.6-88.1c6-27,4.7-54.1,2.9-81.3c-1.8-26.5-4.6-52.8-6.7-79.3
	c-0.9-11.3-1.2-22.6-1.4-33.9c-0.2-10.6-0.2-21.3,0.1-31.9c0.1-5.4,1-10.9,1.7-16.7l-10.7,0.5c0.7,11.1,1.9,21.5,1.8,31.9
	c-0.2,18.8-1,37.7-2.1,56.5c-0.8,14.9-2.4,29.7-3.7,44.5c-1.2,14.2-2.7,28.3-3.8,42.5c-2,26,0.2,51.7,5.4,77.2
	c3.1,15.6,3.3,31.7,0.6,47.4c-1.7,10.2-4.5,20.2-5.8,30.5c-1.8,13.9-3.5,28-3.9,42c-0.4,18.6,0.2,37.3,1,55.9
	c0.4,9.1,2.7,18.1,3.2,27.3c0.5,8.2-1.2,9.8-9.2,12.2h-41.4c-1.2-0.2-2.3-0.5-3.4-0.9c-2.2-0.9-6-1.9-6.1-3
	c-0.2-2.6,0.6-6.8,2.5-7.8c11.9-6.5,13.3-19.6,20.7-28.8c1.7-2.1,1.3-5.9,1.6-9c0.4-3.4-0.4-7,0.7-10.1c4.6-13.3,3.3-26.7-0.1-39.8
	c-5.5-21.3-11.8-42.4-18.4-63.4c-4.9-15.5-7-31.1-4.3-47c3-17.3,6.5-34.5,10.4-51.6c2.9-12.9,0.5-25.6-2.2-38
	c-4.1-18.4-9.8-36.5-14.9-54.7c-9.4-33.5-16.8-67.3-19.2-101.9c-2.3-33.7-1.5-67.4,12.8-99.1c4.8-10.6,12.2-20,18.1-30.2
	c1.9-3.3,3.8-7.2,3.8-10.9c0-22.3-0.6-44.5-1.1-66.8c-0.1-1.8-0.7-3.5-1.8-4.9c-3-4.1-6.3-8-9.8-12.4c-0.5,2.5-1.1,5-1.6,7.6
	c-2.8,16.4-8.5,32.3-16.7,46.8c-0.9,1.4-1.5,2.9-1.8,4.6c-0.9,18.5-11.2,33.2-22.2,47.3c-12.7,16.2-26,31.8-39.3,47.5
	c-5.6,6.6-8,14.4-10.4,22.3c-3.5,11.5-7.1,22.9-11.2,34.2c-1.7,4.6-4.7,8.7-7.4,12.9c-2.2,3.4-5,6-9.8,3.5c-1,1.7-1.9,3.1-2.6,4.6
	c-1.8,3.4-4.2,4.4-8,2.5c-1.2-0.6-3-0.1-4.5,0c-1.8,0-4,0.7-5.1-0.1s-1.7-3.2-1.4-4.7c0.5-2.4,0.5-3.7-2.1-5.1
	c-1.5-0.8-2.5-3.5-2.5-5.3c0.1-13.5,4.5-26.5,12.5-37.3c0.6-0.7,0.9-1.7,0.8-2.6c-3.2,1.6-6.3,3.4-9.6,4.8c-3.1,1.3-7.2,3.1-9.2-0.5
	c-2-3.5,0.1-7.2,3.7-9.2c3.2-1.8,6.8-2.9,10.3-4.4l-10.2,6.7c7.3,3.5,27-8,32.4-18.9c-2.7,0.8-4.5,1-6,1.8c-4.5,2.6-9,5.4-13.4,8.1
	c5.5-6,11.2-11.6,19.7-13.6c1.6-0.6,2.9-1.6,3.9-2.9c13-15,21.2-32,25.7-50.9c4.8-19.9,15.3-37,28.8-52.7c2.1-2.5,3.3-5.5,3.5-8.8
	c0.1-21.1,3.7-41.4,12.4-60.9c1-2.2,0.9-4.8,1.1-7.2c1-12,1.1-24.2,3.2-36.1c2.9-16.7,13-27.9,31.4-31c6.8-1.1,13.6-2,20.4-3.1
	c2.1-0.5,4.2-1.2,6.2-2.1l15.3,0.8l-3.4,1.6l32.7,6.7c0.5-13.5,0.9-27,1.4-40.5h14c0.4,13.5,0.9,27,1.3,40.6l33.3-6.8
	c-2.8-1.1-4.4-1.8-6-2.3c-10-3.1-16.4-9.3-18.1-19.4l-2-12.1c1.2-1.4,2-3.5,3.5-4.1c5.5-2.3,11.2-4,16.8-6
	c-3.1,5.2-5.9,10.7-9.6,15.5c-2.3,3-3,5.5-1.8,9c2.4,6.6,6.8,11.8,13.6,13.9c8.6,2.7,17.6,4.2,26.5,6c7.1,1.5,14.3,2.1,21.2,4.1
	c12.9,3.6,20.9,12.7,23.5,24.7c2.7,12.4,3,25.3,4.5,37.9c0.6,4.6,1.1,9.4,2.8,13.7c6.5,16.4,10,33.8,10.3,51.4
	c0.1,6.8,1.3,12.4,6.3,17.9c15.5,17,24.1,37.2,29.2,59c3.8,15.9,12.9,29.2,23.2,41.8c0.8,1.1,2,1.8,3.3,2.2
	c8.8,1.9,14.4,7.9,19.9,14c-6.5-2.1-10.4-9-18.4-9.6c0.2,1.4,0.1,1.9,0.4,2.3c6.6,8.3,15.5,13.8,25.5,17.7c1.5,0.6,3.6-0.3,5.4-0.5
	c0.1-0.5,0.1-0.9,0.2-1.4L438.7,452.6z M32.1,485l-1.2-2.1c0.1-0.5,0.2-1,0.2-1.4c-0.3-1.9-0.6-3.8-0.9-5.7
	c-1.5,1.2-3.6,2.2-4.4,3.7c-3.5,7.4-6.7,15-9.7,22.6c-1,2.6-4.5,6.2-0.5,8.1c4.5,2.1,4.2-3.4,6.1-5.4l1,2c0.4,1.2,0.9,2.4,1.4,3.9
	c5.1-4.1,10.3-13.5,13.1-23.3c0.5-1.7-0.6-3.7-0.9-5.6L32.1,485z M430.5,505.7l0.9-1.9c0.8,1.6,1.2,3.6,2.3,4.8
	c0.9,1,2.8,1.1,4.2,1.6c0.4-1.3,1.6-2.8,1.2-3.8c-4-9.7-8.1-19.4-12.4-28.9c-0.4-0.9-2-1.3-3-2c-0.6,1.2-1.7,2.4-1.7,3.5
	c0.1,1.9,0.9,3.8,1.4,5.7c-0.3,0.6-0.6,1.3-1,1.9c-0.3-0.8-0.8-1.5-1.3-2.1c-1.2-1.1-2.6-2.1-4-3.1c-0.4,1.7-1.7,3.7-1.1,5
	c2.7,6.7,5.9,13.2,9,19.8c0.9,1.7,1.9,3.3,2.9,4.9l2.1-1.4C430.2,508.5,430.3,507.1,430.5,505.7L430.5,505.7z M81.7,369.7l4.3-12.5
	l5.1-11.2l-1.4-0.6c-1.7,3.2-3.3,6.3-5,9.5c-0.4,0.5-0.8,1.1-1.1,1.6c-9.4,22.5-18.8,45.1-28.2,67.6c-0.5,1.4-0.8,2.8-0.8,4.3
	c0,3.2,2,5.2,5.1,4.9c1.4-0.1,3.1-2.5,3.6-4.2c1.9-6.6,3.5-13.3,5.1-19.9c0.3,1.6,0.7,3.2,1,4.9c0.1,0.9,0.2,1.8,0.6,4.2l10.8-14.1
	l1,2c-1.2,3.3-2.4,6.7-3.7,10.1l1.4,0.6c20-19.1,34-42.2,47.2-66.3c-4.8,1.3-8.6,2.9-12.5,3.2s-6.6,1.2-8.3,4.6
	c-4.5,8.5-9.1,16.9-13.7,25.4l-1.2-2.2c3.6-11.8,6-23.7,5.9-36l-1.4-0.4c-4.2,8.9-8.4,17.8-12.6,26.7
	C82.4,371.2,82.1,370.5,81.7,369.7L81.7,369.7z M385,409.2c1.7,6.9,3.3,13.7,5.2,20.5c0.4,1.5,2.3,2.6,3.5,4
	c1.8-1.5,4.1-2.7,5.2-4.6c0.7-1.2-0.2-3.5-0.9-5.1c-9.3-22.2-18.6-44.5-28-66.7c-0.9-1.7-2-3.4-3.2-4.9l-1,0.6l5,13.7l-1.2,2.1
	c-3.8-8-7.7-15.9-11.6-23.8l-1.3,0.5c0.2,12.9,2.4,25.7,6.8,37.9l-1.2,2c-4.9-9.2-9.8-18.4-14.9-27.4c-0.9-1.8-2.5-3.1-4.3-3.8
	c-5.1-1.3-10.4-2-15.9-3c13,23.4,26.8,46.5,46.9,65.5l1.4-0.8c-1.7-4.2-3.3-8.4-5-12.6l1.1-1l11.2,14.9l1.1-0.7v-5.2
	C384.2,410.6,384.6,409.9,385,409.2z M153.1,547.8c0.2-11.2-8.8-30.9-17.2-35.5c3.2,19.5,6.4,38.2,9.5,56.9h1.8l2-5.4l1,0.9
	c-1.6,15.4,1,30.3,5,45.2c4.5,16.3,8.6,32.7,12.8,49.1c0.9,3.7,1.3,7.4,1.9,11.2l1.8-0.1c0.2-7.8,1.1-15.6,0.5-23.3
	c-0.8-10.3-2.5-20.5-4.2-30.7c-4.9-28.4-3.2-56.1,9-82.8c0.5-1.5,0.9-3.1,1.1-4.7c-13.7,3.7-18.8,13.5-24,23.3L153.1,547.8z
	 M253.6,591.5c-1.9,13.8-4.4,27.5-5.6,41.3c-1.5,16.4-2.4,33,2.3,49.2c0.7,1.9,1.4,3.7,2.3,5.4l1.7-0.2l2.5-36l2.9-5.8v24.3l1.6,0.4
	c1.3-1.8,2.7-3.6,4-5.4c11.6-17.3,17.2-36.3,18.2-56.7c1.1-23.2-3-45.7-9.5-67.9c-1.6-5.6-3.5-11-5.2-16.6l-1.5,0.1
	c-1.2,4-2.8,8-3.4,12.1c-2.3,17.2-4.2,34.4-6.3,51.7c-0.5,2.5-1,5.1-1.6,8c-0.5-2.2-0.9-3.8-1.3-5.5l-0.9,0.3L253.6,591.5z
	 M158.1,532.3c4.8-12.9,16.1-17,27.8-20.6c2.4-0.8,4.9-1.6,7.3-2.5c10.8-4,19.5-10.4,25.4-20c1.5-2.3,2.4-5,2.6-7.7
	c0-16.9-0.5-33.7-0.5-50.6c0-4.3-1.9-5.3-6-4.8c-13.4,1.5-26.5,4.5-38.7,10c-14.1,6.4-26.2,15-33.8,28.5
	C130.2,485.4,140,512.6,158.1,532.3L158.1,532.3z M295.6,532.8c8.4-10,14.4-19.7,18.1-30.5c7.1-20.4,1.2-40.2-16.1-54
	c-17.1-13.7-37.4-19.7-59.2-22.2c-4.1-0.5-5.5,1-5.6,4.8c0,17.2-0.3,34.4-0.2,51.6c0.2,2.4,0.9,4.8,2.3,6.9
	c7.1,11.9,18.6,18.1,31.7,22.1C278.7,515.2,290.4,519.1,295.6,532.8z M294.8,257.4c-2.1-0.2-3.1-0.3-4.1-0.4
	c-6.3-0.2-12.7,0.2-18.9-0.8c-3.4-0.6-5.2-0.3-7.5,1.9c-10.3,9.9-20.8,19.6-31.1,29.4c-1.1,1.2-2,2.6-2.4,4.2
	c-3.3,11.2-2.1,23.2,3.3,33.5c7.9,15.7,21,26.9,35.3,37.1c0.3,0.2,0.9,0.1,2.2,0.2C274.8,326.7,283.5,292,294.8,257.4L294.8,257.4z
	 M182,363.2c2.1-1,3.1-1.3,3.8-2c9.1-8.5,18.9-16.3,26.9-25.6c10.4-12.1,14.1-26.4,10.4-42c-0.5-2-1.1-4.4-2.5-5.7
	c-10.7-10.4-21.6-20.6-32.6-30.7c-1.1-1-3.3-1.4-4.9-1.3c-5.6,0.3-11.1,1.1-16.7,1.5c-2.6,0-5.1-0.1-7.7-0.3
	C170,292,178.7,326.6,182,363.2z M301.9,189.9c-2.6-0.5-4.2-1.1-5.8-1.2c-7.2,0-14.5-0.4-21.6,0.3c-12.8,1.2-25.2,3.9-36.5,9.9
	c-3.7,2-7.2,4.1-7.3,9.2c-0.1,20-0.5,40-0.7,60c0,5.6,1.3,6.2,6.3,3.5c12-6.5,20-16.4,25.4-28.2c4.5-9.9,8.4-20.1,12.9-30
	c4.8-10.7,12.2-19,24.6-22.1C300.2,191,301.1,190.5,301.9,189.9L301.9,189.9z M152.8,188.8l-0.6,2c15.2,3,22.9,13.3,28.3,25.8
	c0.6,1.4,1.1,2.7,1.7,4.1c2.9,7,5.6,14.1,8.7,21c5.6,12.5,13.6,23.2,26.4,30c4.9,2.6,6.2,2,6.1-3.3c-0.1-19.2-0.7-38.4-0.4-57.5
	c0.1-6.8-3.4-10.2-9-12.8c-11.6-5.4-24.1-8.5-36.8-9.2C169.1,188.4,160.9,188.8,152.8,188.8z M186.2,523.6h-1.4
	c-0.3,0.8-0.6,1.5-0.9,2.2c-7.1,20.8-12.3,42-13.8,63.9c-1.8,26.4,2.6,51.7,17.9,74.4c1.3,2,2.9,3.8,4.4,5.8
	C194.9,620.7,201,571.7,186.2,523.6z M181.3,814.8h1.8c0.7-2.8,1.9-5.5,1.9-8.3c0.4-11.9,0.8-23.9,0.6-35.8
	c-0.3-15.7-1.6-31.4-1.7-47.1c-0.1-16.4,0.8-32.8,1.2-49.1c0.1-5.5-2.8-8.5-8.7-9c-0.7,6.3-1.2,12.6-2.2,18.9
	c-4,26.8-7.7,53.6-12.3,80.2C158.5,785.2,169.5,800,181.3,814.8L181.3,814.8z M276.9,665.3c-7.1,1.3-8.7,4.2-8.6,10.9
	c0.5,24.9,0.9,49.8,0.8,74.6c0,17.7-0.9,35.3-1,53c0,3.7,1.4,7.4,2.3,11.7c6.7-5.2,16.3-20,19.4-28.3c4-10.5,2-21.1,0.5-31.6
	c-3.6-24.3-7.6-48.6-11.3-72.9C278.1,676.9,277.7,671.1,276.9,665.3L276.9,665.3z M189.6,673.5l-1.3,0.2c-0.3,3.3-1.1,6.6-0.9,9.9
	c1.7,34.7,3.6,69.3,5.5,103.9c0.4,7.6,5.2,13,11.6,17.1c5.3,3.4,6.9,3,8.5-3c1.5-5,2.3-10.2,2.3-15.5c-0.3-37.8-10-73.8-23.6-109.1
	C191.2,675.8,190.5,674.6,189.6,673.5L189.6,673.5z M265.2,673.7l-1.6-0.2c-1,1.6-1.9,3.4-2.6,5.1c-4.2,12.6-8.9,25.2-12.3,38
	c-6.3,23.5-11.6,47.2-10.6,71.7c0.2,5.3,2,10.6,3.4,15.8c0.7,2.8,2.9,3.6,5.5,1.6c3.1-2.3,6-4.8,8.8-7.4c5.2-5.2,4.8-12,5.5-18.5
	c3.3-33.4,5.5-66.9,4.6-100.5C265.8,677.5,265.6,675.6,265.2,673.7L265.2,673.7z M207.9,617.2c1.1-6.6,2.1-15.6,4.1-24.4
	c4.9-21.3,9-42.7,6.5-64.7c-0.9-8.2-2.6-16.3-4-25.2c-3,1.4-4.5,2.1-5.9,2.9c-18.3,10.7-17.9,11-15.2,29.6
	C197.4,563.5,203.2,591.4,207.9,617.2L207.9,617.2z M245.8,616.3c3-16.5,6.6-35.8,10-55.2c2-11.5,4-22.9,5.1-34.5
	c0.9-10.5-9.6-21-21.4-22.4c-0.5,1.7-1.1,3.4-1.5,5.1c-4.6,21-4.8,42.8-0.6,63.9C240.5,588.5,243.3,603.8,245.8,616.3L245.8,616.3z
	 M276,529.6c-0.2,0.8-0.4,1.2-0.3,1.4c0.3,1,0.6,1.9,1,2.8c8.3,17.3,12.1,36.4,11.1,55.5c-0.9,16.1-3.7,32.2-5.6,48.3
	c-1.3,10.9-2.2,21.8,1,33.5c0.5-1.4,0.8-1.9,0.9-2.5c4.6-18.8,9-37.7,13.8-56.4c4-15.7,6.8-31.3,4.7-47.5
	c-1.3-10.6-6-20.5-13.3-28.2C285.8,532.9,282.2,528.5,276,529.6L276,529.6z M235,414.2c3.6-3.7,6.3-6.3,8.8-9.2
	c7.9-9,15.7-18.1,23.6-27.3c1.5-1.8,2-3.3-0.3-5.4c-9.4-8.4-18.6-17-27.8-25.5c-1.5-1.4-3.1-2.8-4.7-4.2l-1.4,0.5
	C233.5,366.4,231.5,389.7,235,414.2L235,414.2z M219.6,343.4l-1.7-1.8c-1.5,2.1-2.7,4.6-4.6,6.4c-8.3,8-16.6,16.1-25.5,23.6
	c-3.1,2.7-3.5,4.3-1,7c10.1,11.3,20.2,22.7,30.3,34c0.2,0.3,0.9,0.2,2.4,0.5v-69.7H219.6z M314.6,239.2l-1.2,0.8
	c-1.8,12.6-4,25.2-5.3,37.8c-1.8,17.2,2.1,33.2,12.6,47.6c0.9,1.2,2,2.3,3.8,4.4c0.5-7.6,0.8-13.7,1.2-19.9
	c0.8-12.4,2-24.8,2.4-37.3c0.2-8.5-1.2-17.1-5.9-24.6C320,244.8,317.1,242.1,314.6,239.2L314.6,239.2z M140.8,240.1l-1.8-0.7
	c-2.2,2.4-5.2,4.4-6.5,7.2c-2.6,5.6-5.8,11.6-6,17.5c-0.5,14.2,0.6,28.4,1.2,42.6c0.3,7.4,1.1,14.8,1.7,23.2
	c10.6-13,16.6-26.8,16.1-42C145.1,271.9,142.6,256,140.8,240.1L140.8,240.1z M312.7,456.1c0.3-0.7,0.5-1.3,0.6-2
	c-0.2-2.3-0.4-4.6-0.8-6.8c-2.6-15.3-7.8-29.6-20-40.6c-1.7-1.5-4.4-3-6.6-3c-14.5,0.2-23.3,8.6-31.4,19.8
	C278.3,427.4,298.1,436.9,312.7,456.1z M199.3,423.4c-7.6-9-14.2-17.1-26.1-19.3c-6.2-1.1-10.6,0.2-14.6,4.6
	c-8.6,9.5-14.4,21.2-16.6,33.8c-0.8,4.2-1.2,8.4-1.8,12.6l1.2,0.5C155.3,436.9,175.2,427.5,199.3,423.4z M166.3,203.7
	c-12.4-13.9-31.3-12.8-40.2,2c-8,13.4-7.8,28-5.2,42.9C133.3,231,149.5,217,166.3,203.7L166.3,203.7z M290,202.8l41.9,45.7
	c0.3-3.1,1.1-6.3,1-9.4c-0.3-8.8-0.1-17.7-1.8-26.3c-1.9-9.2-8.6-15.9-18.1-18.4C303.7,191.9,296.4,196.5,290,202.8L290,202.8z
	 M56.8,449c0-1.5,0.4-3-0.1-4.4c-0.7-2-1.5-5.1-2.9-5.4c-3.6-0.8-9.4-2-11-0.2c-6.4,7-11.7,14.8-16.9,22.7c-0.9,1.3,0.4,4.6,1.7,6.2
	c3,3.5,6.7,6.5,9.9,9.7c4.6,4.7,8.3,4.6,11.9-0.9C55,468.3,56.5,458.8,56.8,449z M396.6,449c0.2,8.6,1.7,18.2,7,27
	c3.9,6.4,8.2,6.4,13,0.7c2.1-2.7,4.7-5.2,7.5-7.2c4.4-2.9,5.5-6.3,2.6-10.4c-5-6.9-10.2-13.5-15.5-20.1c-0.7-0.8-2.4-1.2-3.6-1.3
	C398.9,437.3,396.7,439.3,396.6,449z M268.4,249.4c12.9-2.1,24.7-4,36.4-6.2c1-0.2,2.3-2.9,2-4c-3.2-10.8-10.3-20-19.9-25.9
	c-1-0.6-3.8-0.6-4.3,0C274.8,223.6,269.5,234.7,268.4,249.4z M185.1,249c-1.1-14.2-6.4-25.2-13.9-35.3c-0.6-0.8-3.8-0.7-5.1,0
	c-8.7,5.3-14.4,13-18.3,21.9c-2.9,6.7-2.6,7.1,4.9,8.5c2,0.4,4,0.8,6.1,1.1C167.3,246.5,175.7,247.7,185.1,249z M251.7,921.2
	l-1.3-0.1c-1.7,9.2-3.6,18.3-5,27.5c-1.1,7,1,10.5,8.5,11.1c7.5,0.5,15,0.2,22.4-1c5.2-0.7,6.4-3.3,4.9-8.3
	c-2.1-6.9-4.4-13.8-6.9-20.6c-1.4-3.9-3.2-7.7-4.9-11.6l-1.4,0.3c0.2,3.3,0.6,6.7,0.5,10c-0.1,6.7-0.5,13.3-1.4,19.9
	c-0.2,1.8-3.2,3.1-4.9,4.7c-1.3-1.7-3.3-3.3-3.9-5.2C256,939,253.9,930.1,251.7,921.2L251.7,921.2z M185.5,918.5l-2.1-0.4
	c-3.8,11.3-7.8,22.6-11.3,34c-0.5,1.6,1.1,5,2.6,5.6c9.7,3.6,19.8,5,29.5,0.4c2-1,4.3-4.4,4.1-6.4c-1.2-9.6-3.3-19-5.1-28.5
	c-0.3-0.8-0.8-1.6-1.3-2.2c-2.4,9.7-4.5,18.9-7,28.1c-0.4,1.5-2.4,3.7-3.8,3.7s-4-1.9-4.2-3.3c-1.1-5.9-1.8-11.9-2.1-17.8
	C184.5,927.3,185.2,922.9,185.5,918.5z M173.2,810.7c-2.8,6-2.8,8.7-0.6,15.3c8.4,24.1,14.6,48.5,16,73.9c0.2,4.4,0.3,8.8,0.8,13.2
	c0.1,1.1,1.6,2.1,2.5,3.2c0.8-1.1,1.9-2.1,2.2-3.3c0.3-1.5,0.3-2.9,0.1-4.4c-1.3-15.3-1.8-30.8-4.4-46c-2.4-14.2-6.8-28-10.7-41.9
	C178.3,817.4,175.6,814.5,173.2,810.7z M282.6,812.4l-2.4-0.8c-1.5,2-3.5,3.8-4.4,6c-2.8,6.8-5.8,13.7-7.6,20.8
	c-6.3,24.1-8,48.8-8.9,73.6c0,1.4,1.4,2.8,2.1,4.2c0.9-1.4,2.4-2.7,2.6-4.1c0.7-6.8,0.9-13.7,1.5-20.6c2.1-22.5,8.1-44.2,15.2-65.6
	C282.1,821.7,282,817,282.6,812.4z M200.7,687.1c11.2-31.5,3.8-62.7-1.1-93.9C196.7,624.6,195.2,655.9,200.7,687.1z M199.7,912.5
	c4.4-9.1,9.8-96.2,6.5-104c-1.4,4-3.1,6.8-3.4,9.9c-1,9.9-1.5,19.9-2.1,29.9c-0.6,11-0.8,21.9-1.4,32.9c-0.4,8.2-1.3,16.3-1.7,24.5
	C197.5,907.5,198.7,909.4,199.7,912.5L199.7,912.5z M254.9,911.2c0.4-3.1,1.4-6.2,1.2-9.3c-1-21.9-2.2-43.8-3.5-65.7
	c-0.4-6.8-1.4-13.7-2.4-20.5c-0.3-2.1-1.9-4.1-3.2-7.1C243.9,818,249.9,905.6,254.9,911.2L254.9,911.2z M306.9,569.5
	c4.4-11,10.4-50.2,8.9-56.6C300.3,526.5,296.4,550.1,306.9,569.5z M110.3,319.4c3.8-20.2,7.5-40.5,11.5-61.8
	C111.2,269.6,105.8,298,110.3,319.4z M168.7,398.8c11.7-2.5,14.2-5.8,12.3-15.8c-0.4-2.4-1-4.8-1.8-7.1c-1.3-3.2-3-6.3-4.4-9.4
	l-1.8,0.4C169.3,377.1,169.4,387.9,168.7,398.8L168.7,398.8z M331.7,258.2l11.8,62.4C345,298.9,346.1,277.2,331.7,258.2L331.7,258.2
	z M279.7,366.9c-6.3,7.1-7.5,15.5-8.1,24c0,0.8,0.3,1.6,0.9,2.2c3.7,2.2,7.5,4.2,12.5,7C283.9,387.9,284.2,377.1,279.7,366.9
	L279.7,366.9z M106.3,353.5c4.2-4.3,8.4-8.3,12.3-12.6c2.3-2.4,4.1-5.1,5.6-8.1c0.5-1.2-1.1-4.7-2-4.8c-3.1-0.2-6.8-0.2-9.3,1.3
	C107.3,332.7,103.7,346.6,106.3,353.5z M346.1,353.2l2.2-1.1c0.8-6.7-1.3-12.9-4.4-19c-2.1-4.2-5.8-5.8-10.5-5.6
	c-4.5,0.2-6.4,2.7-3.8,6.1C334.7,340.4,340.5,346.7,346.1,353.2L346.1,353.2z M120.1,323.5c5.1-6.2,5.3-33.4,0.6-39.9
	C115.9,296.5,115.4,318.5,120.1,323.5L120.1,323.5z M332.6,283c-4.9,10.4-4.2,35.9,1.2,40.3C338.2,318.2,337.5,295.2,332.6,283z
	 M8.7,501.4c2-1,2.9-1.1,3.1-1.5c4.5-8.9,9-17.9,13.3-26.9c0.3-0.7-0.7-2.6-1.6-3c-0.7-0.3-2.7,0.5-3.2,1.3
	c-3.4,5.8-6.5,11.8-9.3,18C9.5,492.6,9.5,496.6,8.7,501.4z M442.7,501l1.6-0.7c-0.2-2.4,0.2-5-0.7-7.2c-2.7-6.7-5.8-13.3-9.1-19.7
	c-0.8-1.5-3-2.4-4.6-3.6c-0.2,2.1-1.2,4.4-0.5,6.2c2.6,6.4,5.5,12.7,8.6,18.9C439.2,497.1,441.1,499,442.7,501L442.7,501z
	 M407.2,483.4c-1.1,5.9,4.5,16.9,9.4,19.1C414.8,495.5,413.2,489,407.2,483.4L407.2,483.4z M37.2,503.1c5.7-4.1,10.7-15,9-19.6
	C40.5,489,38.5,495.5,37.2,503.1L37.2,503.1z"/>
<path fill="#595959" d="M189.1,181.8l-15.3-0.8c-9.8-0.3-19.5-0.7-29.3-1c-3.4-0.1-6.9,0.2-10.3,0.2c-10.6,0-11.5-1-8.4-10.8
	c2-6.8,4.6-13.4,7.7-19.8c13.1-25.3,15-51.8,9.9-79.1c-2.7-14.5-0.6-28.3,4.9-41.9c6.1-14.9,18.4-22.7,33.7-27.2
	c1.8-0.5,3.6-1,5.4-1.5h15.5c5.8,1.5,11.7,2.7,17.4,4.7c9.5,3.4,17.3,8.6,21.2,18.2c0.7,1.5,1.9,2.6,3.4,3.2
	c21.8,6.4,32,21.7,35.3,41.9c3.5,21,0.2,41.4-7.2,61.3c-1.9,5-5,8.4-10.2,10.1c-5.6,2-11.4,3.7-16.8,6c-1.5,0.6-2.4,2.7-3.5,4.1
	c-2.9-4.1-5.7-0.4-8.5,0h-14l-8.7-0.1L197,142v27v1.9c0,2.6-0.1,5.3-0.1,7.9L189.1,181.8z M211.4,44.3c3.6,8,11.2,11.1,19.6,8.9
	c6.4-1.7,10.3-5.6,9.8-10.6C231.7,53,221.8,51.4,211.4,44.3z"/>
<path fill="#474747" d="M17.5,450.4c4.5-2.7,8.9-5.5,13.4-8.1c1.4-0.8,3.3-1,6-1.8c-5.4,10.9-25,22.4-32.4,18.9l10.1-6.7L17.5,450.4
	z"/>
<path fill="#484848" d="M438.7,452.6l10,6.4c-0.1,0.5-0.1,0.9-0.2,1.4c-1.8,0.2-3.9,1.1-5.4,0.5c-10-3.9-18.9-9.4-25.5-17.7
	c-0.3-0.3-0.2-0.9-0.4-2.3c8,0.6,11.9,7.5,18.4,9.6L438.7,452.6z"/>
<path fill="#454545" d="M158.1,532.3c-18.1-19.7-27.9-46.9-16.1-67.7c7.6-13.5,19.7-22.1,33.8-28.5c12.2-5.5,25.3-8.5,38.7-10
	c4.1-0.5,6,0.5,6,4.8c0.1,16.9,0.5,33.7,0.5,50.6c-0.2,2.8-1,5.4-2.6,7.7c-5.8,9.6-14.6,16-25.4,20c-2.4,0.9-4.8,1.8-7.3,2.5
	C174.2,515.4,162.9,519.4,158.1,532.3z"/>
<path fill="#454545" d="M295.6,532.8c-5.2-13.7-17-17.6-29-21.4c-13.1-4.1-24.6-10.3-31.7-22.1c-1.3-2.1-2.1-4.4-2.3-6.9
	c-0.1-17.2,0.2-34.4,0.2-51.6c0-3.9,1.5-5.3,5.6-4.8c21.8,2.5,42.1,8.5,59.2,22.2c17.3,13.8,23.2,33.6,16.1,54
	C310,513.1,304,522.7,295.6,532.8z"/>
<path fill="#454545" d="M294.8,257.4c-11.4,34.6-20,69.4-23.2,105.2c-1.2-0.1-1.8,0-2.2-0.2c-14.3-10.2-27.4-21.5-35.3-37.1
	c-5.3-10.3-6.5-22.3-3.3-33.5c0.4-1.6,1.2-3,2.4-4.2c10.3-9.9,20.8-19.5,31.1-29.4c2.3-2.2,4.2-2.5,7.5-1.9c6.1,1,12.5,0.6,18.9,0.8
	C291.7,257.1,292.7,257.2,294.8,257.4z"/>
<path fill="#454545" d="M182,363.2c-3.3-36.6-12-71.2-23.4-106.1c2.6,0.3,5.1,0.4,7.7,0.3c5.6-0.4,11.1-1.2,16.7-1.5
	c1.6-0.1,3.8,0.3,4.9,1.3c11,10.1,21.9,20.4,32.6,30.7c1.4,1.4,2.1,3.7,2.5,5.7c3.6,15.6,0,30-10.4,42c-8,9.3-17.9,17.2-26.9,25.6
	C185.1,361.9,184.1,362.2,182,363.2z"/>
<path fill="#454545" d="M301.9,189.9c-0.8,0.5-1.7,1-2.7,1.4c-12.5,3-19.8,11.4-24.6,22.1c-4.5,9.9-8.3,20.1-12.9,30
	c-5.4,11.9-13.4,21.8-25.4,28.3c-5,2.7-6.4,2-6.3-3.5c0.2-20,0.6-40,0.7-60c0-5.1,3.5-7.2,7.3-9.2c11.3-6,23.8-8.7,36.5-9.9
	c7.2-0.7,14.4-0.3,21.6-0.3C297.7,188.7,299.3,189.4,301.9,189.9z"/>
<path fill="#454545" d="M152.8,188.8c8.2,0,16.4-0.4,24.5,0.1c12.7,0.7,25.2,3.8,36.8,9.2c5.6,2.7,9,6.1,9,12.8
	c-0.2,19.2,0.3,38.3,0.4,57.5c0,5.2-1.3,5.9-6.1,3.3c-12.8-6.8-20.8-17.5-26.4-30c-3.1-6.9-5.8-14-8.7-21c-0.6-1.4-1.1-2.8-1.7-4.1
	c-5.4-12.4-13.1-22.8-28.3-25.8C152.4,190.1,152.6,189.5,152.8,188.8z"/>
<path fill="#454545" d="M257.7,587.3c2.1-17.2,4-34.5,6.3-51.7c0.5-4.1,2.2-8.1,3.4-12.1l1.5-0.1c1.7,5.5,3.6,11,5.2,16.6
	c6.5,22.2,10.6,44.7,9.5,67.9c-1,20.3-6.6,39.4-18.2,56.7c-1.3,1.9-2.7,3.6-4,5.4l-1.6-0.4v-24.3c-0.3-3.4-0.7-6.8-0.8-10.2
	C258.4,619.2,258.1,603.2,257.7,587.3z"/>
<path fill="#454545" d="M186.2,523.6c14.7,48.1,8.7,97.1,6.2,146.3c-1.5-2-3.1-3.8-4.4-5.8c-15.3-22.8-19.6-48-17.9-74.4
	c1.4-21.9,6.7-43.1,13.8-63.9c0.3-0.8,0.6-1.5,0.9-2.2L186.2,523.6z"/>
<path fill="#454545" d="M207.9,617.2c-4.7-25.9-10.5-53.7-14.6-81.8c-2.7-18.5-3.1-18.8,15.2-29.5c1.4-0.8,3-1.5,5.9-2.9
	c1.4,9,3.1,17.1,4,25.2c2.5,22-1.6,43.3-6.5,64.7C210,601.6,209,610.6,207.9,617.2z"/>
<path fill="#454545" d="M245.8,616.3c-2.4-12.5-5.3-27.8-8.4-43.1c-4.2-21.1-4-42.9,0.6-63.9c0.4-1.7,1-3.4,1.5-5.1
	c11.8,1.4,22.3,11.9,21.4,22.4c-1,11.6-3.1,23-5.1,34.5C252.4,580.5,248.8,599.8,245.8,616.3z"/>
<path fill="#454545" d="M154.2,551.8c5.1-9.8,10.2-19.6,24-23.3c-0.3,1.6-0.6,3.2-1.1,4.7c-12.2,26.7-13.9,54.4-9,82.8
	c1.8,10.2,3.4,20.4,4.2,30.7c0.6,7.7-0.3,15.5-0.5,23.3l-1.8,0.1c-0.6-3.7-0.9-7.5-1.9-11.2c-4.2-16.4-8.4-32.8-12.8-49.1
	c-4.1-14.8-6.6-29.8-5-45.2C151.6,560.4,152.9,556.1,154.2,551.8z"/>
<path fill="#454545" d="M276,529.6c6.2-1,9.8,3.3,13.1,6.8c7.4,7.7,12,17.6,13.3,28.2c2.1,16.2-0.7,31.9-4.7,47.5
	c-4.8,18.8-9.2,37.6-13.8,56.4c-0.1,0.6-0.4,1.2-0.9,2.5c-3.1-11.7-2.3-22.6-1-33.5c2-16.1,4.8-32.1,5.6-48.3
	c1-19.1-2.8-38.2-11.1-55.5c-0.4-0.9-0.7-1.8-1-2.8C275.7,530.5,275.8,530,276,529.6z"/>
<path fill="#454545" d="M235,414.2c-3.5-24.5-1.5-47.9-1.9-71.1l1.4-0.5c1.6,1.4,3.1,2.8,4.7,4.2c9.2,8.5,18.4,17.2,27.8,25.5
	c2.3,2.1,1.9,3.6,0.3,5.4c-7.8,9.1-15.7,18.2-23.5,27.3C241.3,407.9,238.5,410.5,235,414.2z"/>
<path fill="#454545" d="M219.5,343.4v69.8c-1.5-0.3-2.1-0.3-2.4-0.5c-10.1-11.3-20.2-22.7-30.3-34c-2.5-2.8-2.1-4.4,1-7
	c8.9-7.5,17.1-15.6,25.5-23.6c1.9-1.8,3.1-4.2,4.6-6.4L219.5,343.4z"/>
<path fill="#454545" d="M314.6,239.2c2.5,2.9,5.4,5.6,7.4,8.8c4.7,7.6,6.2,16.1,5.9,24.6c-0.3,12.4-1.5,24.8-2.4,37.3
	c-0.4,6.1-0.7,12.3-1.2,19.9c-1.8-2.1-2.9-3.2-3.8-4.4C310,311,306.1,295,307.9,277.8c1.3-12.6,3.5-25.2,5.3-37.8L314.6,239.2z"/>
<path fill="#454545" d="M140.8,240.1c1.7,15.9,4.2,31.8,4.8,47.8c0.5,15.3-5.5,29-16.1,42c-0.6-8.5-1.4-15.8-1.7-23.2
	c-0.6-14.2-1.7-28.4-1.2-42.6c0.2-5.9,3.4-11.9,6-17.5c1.3-2.8,4.3-4.8,6.5-7.2L140.8,240.1z"/>
<path fill="#454545" d="M312.7,456.1c-14.5-19.2-34.3-28.7-58.2-32.7c8.1-11.1,17-19.6,31.4-19.8c2.2,0,4.9,1.5,6.6,3
	c12.2,11,17.4,25.2,20,40.6c0.4,2.2,0.6,4.5,0.8,6.8C313.2,454.8,313,455.5,312.7,456.1z"/>
<path fill="#454545" d="M199.3,423.4c-24.1,4.1-44,13.5-58,32.2l-1.2-0.5c0.6-4.2,1-8.4,1.8-12.6c2.3-12.6,8-24.3,16.6-33.8
	c4-4.4,8.4-5.8,14.6-4.6C185.1,406.3,191.7,414.3,199.3,423.4z"/>
<path fill="#454545" d="M166.4,203.7c-16.9,13.3-33,27.3-45.4,45c-2.6-15-2.8-29.6,5.2-42.9C135.1,190.9,154,189.9,166.4,203.7z"/>
<path fill="#454545" d="M290,202.8c6.4-6.2,13.7-10.9,22.9-8.5c9.5,2.5,16.3,9.2,18.1,18.4c1.7,8.6,1.5,17.5,1.8,26.3
	c0.1,3.2-0.6,6.4-1,9.4L290,202.8z"/>
<path fill="#454545" d="M56.8,449c-0.3,9.8-1.8,19.3-7.4,27.7c-3.6,5.4-7.2,5.5-11.9,0.9c-3.3-3.3-7-6.2-9.9-9.7
	c-1.3-1.6-2.6-4.9-1.7-6.2c5.2-7.9,10.5-15.7,16.8-22.7c1.6-1.7,7.4-0.6,11,0.2c1.4,0.3,2.3,3.5,2.9,5.4
	C57.2,446,56.8,447.6,56.8,449z"/>
<path fill="#454545" d="M396.6,449c0.1-9.7,2.3-11.7,11-11.3c1.2,0.1,3,0.5,3.6,1.3c5.3,6.6,10.6,13.3,15.5,20.1
	c2.9,4.1,1.8,7.5-2.6,10.4c-2.8,2-5.3,4.5-7.5,7.2c-4.8,5.8-9.2,5.7-13-0.7C398.3,467.3,396.8,457.6,396.6,449z"/>
<path fill="#454545" d="M268.4,249.4c1.1-14.6,6.4-25.8,14.1-36c0.5-0.7,3.3-0.7,4.3,0c9.6,5.9,16.7,15.1,19.9,25.9
	c0.3,1.1-1,3.8-2,4C293.1,245.4,281.3,247.2,268.4,249.4z"/>
<path fill="#454545" d="M185.1,249c-9.4-1.3-17.9-2.5-26.3-3.7c-2-0.3-4-0.8-6.1-1.1c-7.6-1.4-7.9-1.9-4.9-8.5
	c3.9-9,9.6-16.6,18.3-21.9c1.2-0.8,4.5-0.8,5.1,0C178.8,223.8,184,234.8,185.1,249z"/>
<path fill="#454545" d="M370.4,403.4c1.7,4.2,3.3,8.4,5,12.6l-1.4,0.8c-20.1-19-33.9-42.1-46.9-65.5c5.6,1,10.9,1.7,15.9,3
	c1.9,0.7,3.4,2.1,4.3,3.8c5.1,9.1,10,18.3,14.9,27.4L370.4,403.4z"/>
<path fill="#454545" d="M92.2,383.7c4.6-8.5,9.2-16.9,13.7-25.4c1.8-3.3,4.5-4.3,8.3-4.6s7.7-1.9,12.5-3.2
	c-13.2,24.1-27.1,47.1-47.2,66.3l-1.4-0.6c1.2-3.3,2.4-6.7,3.7-10.1C85.2,398.7,88.7,391.2,92.2,383.7z"/>
<path fill="#464646" d="M200.7,687.1c-5.4-31.3-3.9-62.6-1.1-93.9C204.5,624.5,211.8,655.7,200.7,687.1z"/>
<path fill="#464646" d="M256.8,651.2l-2.5,36l-1.7,0.2c-0.9-1.8-1.6-3.6-2.3-5.4c-4.8-16.2-3.8-32.8-2.3-49.2
	c1.3-13.8,3.7-27.5,5.6-41.3c0.5,1.7,0.9,3.4,1.1,5.2C255.4,614.8,256.1,633,256.8,651.2z"/>
<path fill="#454545" d="M383.8,411.4v5.2l-1.1,0.7l-11.2-14.9c-2.7-6.3-5.4-12.6-8.1-18.9c-4.3-12.2-6.6-25-6.8-37.9l1.3-0.5
	c3.9,7.9,7.7,15.9,11.6,23.8C374.3,383.1,379,397.2,383.8,411.4z"/>
<path fill="#454545" d="M233.8,149.6c2.8-0.5,5.7-4.1,8.5,0l2,12.1c1.7,10.1,8,16.3,18.1,19.4c1.7,0.5,3.3,1.2,6,2.3l-33.3,6.8
	C234.7,176.5,234.2,163.1,233.8,149.6z"/>
<path fill="#454545" d="M80.7,404.3L70,418.4c-0.3-2.4-0.4-3.3-0.6-4.2l13.4-42.3l12.6-26.7l1.4,0.4c0.1,12.2-2.3,24.2-5.9,36
	L80.7,404.3z"/>
<path fill="#454545" d="M189.1,181.8l7.5-2.9c7.9-4,11.6-10.7,12.8-18.9c0.5-3.5,1.1-7.1,1.7-10.6l8.7,0.1
	c-0.5,13.5-0.9,27-1.4,40.5l-32.6-6.7L189.1,181.8z"/>
<path fill="#474747" d="M306.9,569.5c-10.5-19.4-6.7-42.9,8.9-56.6C317.4,519.2,311.3,558.5,306.9,569.5z"/>
<path fill="#464646" d="M149.2,563.8l-2,5.4h-1.8c-3.1-18.7-6.2-37.3-9.5-56.9c8.3,4.6,17.4,24.3,17.2,35.5
	C151.8,553.1,150.5,558.5,149.2,563.8z"/>
<path fill="#464646" d="M370.7,366.8l-5-13.7l1-0.6c1.2,1.5,2.3,3.2,3.2,4.9c9.4,22.2,18.7,44.4,28,66.7c0.7,1.6,1.6,3.9,0.9,5.1
	c-1,1.9-3.4,3.1-5.2,4.6c-1.2-1.3-3-2.5-3.5-4c-2-6.8-3.5-13.7-5.2-20.5L370.7,366.8z"/>
<path fill="#464646" d="M68.4,409.3c-1.7,6.7-3.2,13.4-5.1,19.9c-0.5,1.6-2.2,4-3.6,4.2c-3.1,0.3-5.1-1.7-5.1-4.9
	c0-1.5,0.2-2.9,0.8-4.3c9.3-22.6,18.7-45.1,28.2-67.6c0.3-0.6,0.7-1.1,1.1-1.6l1.3,2.3l-4.3,12.5L68.4,409.3z"/>
<path fill="#484848" d="M110.3,319.4c-4.5-21.4,0.8-49.7,11.5-61.8C117.9,278.9,114.1,299.1,110.3,319.4z"/>
<path fill="#464646" d="M168.7,398.8c0.8-10.9,0.7-21.7,4.3-32l1.8-0.4c1.5,3.1,3.2,6.2,4.4,9.4c0.8,2.3,1.4,4.7,1.8,7.1
	C182.9,393,180.4,396.3,168.7,398.8z"/>
<path fill="#474747" d="M331.7,258.2c14.4,18.9,13.3,40.6,11.8,62.4L331.7,258.2z"/>
<path fill="#464646" d="M279.8,366.9c4.4,10.2,4.2,21,5.2,33.2c-5-2.8-8.8-4.8-12.5-7c-0.6-0.5-1-1.3-0.9-2.2
	C272.3,382.4,273.5,374,279.8,366.9z"/>
<path fill="#464646" d="M106.3,353.5c-2.7-6.9,0.9-20.8,6.7-24.2c2.5-1.5,6.2-1.4,9.3-1.3c0.8,0,2.5,3.5,2,4.8
	c-1.4,3-3.3,5.7-5.6,8.1C114.8,345.2,110.6,349.2,106.3,353.5z"/>
<path fill="#464646" d="M346.1,353.2c-5.6-6.5-11.5-12.8-16.6-19.6c-2.6-3.4-0.6-5.9,3.8-6.1c4.7-0.2,8.4,1.4,10.5,5.6
	c3.1,6,5.2,12.2,4.4,19L346.1,353.2z"/>
<path fill="#474747" d="M423.3,484.9c-0.5-1.9-1.3-3.8-1.4-5.7c0-1.2,1.1-2.4,1.7-3.5c1,0.6,2.6,1.1,3,2c4.3,9.6,8.4,19.2,12.4,28.9
	c0.4,1-0.7,2.5-1.2,3.8c-1.5-0.5-3.3-0.7-4.2-1.6c-1.2-1.3-1.6-3.2-2.3-4.8C428.7,497.5,426,491.2,423.3,484.9z"/>
<path fill="#474747" d="M120.1,323.5c-4.6-5-4.2-27,0.6-39.9C125.3,290.1,125.1,317.3,120.1,323.5z"/>
<path fill="#464646" d="M332.6,283c4.9,12.2,5.6,35.2,1.2,40.3C328.4,318.9,327.7,293.4,332.6,283z"/>
<path fill="#474747" d="M442.7,501c-1.6-2-3.5-3.9-4.6-6.1c-3.1-6.2-6.1-12.5-8.6-18.9c-0.7-1.8,0.3-4.1,0.5-6.2
	c1.6,1.2,3.8,2,4.6,3.6c3.3,6.5,6.4,13,9.1,19.7c0.9,2.1,0.5,4.8,0.7,7.2L442.7,501z"/>
<path fill="#474747" d="M430.5,505.7c-0.1,1.4-0.3,2.8-0.4,4.2l-2.1,1.4c-1.1-1.6-2-3.2-2.9-4.9c-3.1-6.5-6.3-13.1-9-19.8
	c-0.5-1.3,0.7-3.3,1.1-5c1.3,1,2.7,2,4,3.1c0.5,0.6,1,1.4,1.3,2.1L430.5,505.7z"/>
<path fill="#484848" d="M32.1,485l4.4-3.4c0.3,1.9,1.4,4,0.9,5.6c-2.8,9.9-8,19.2-13.1,23.3c-0.5-1.5-1-2.7-1.4-3.9L32.1,485z"/>
<path fill="#B3B3B3" d="M256.8,651.2c-0.7-18.2-1.3-36.3-2.1-54.5c-0.2-1.8-0.6-3.5-1.1-5.2c0.1-0.5,0.1-0.9,0.2-1.4l0.9-0.3
	c0.4,1.7,0.8,3.3,1.3,5.5c0.6-3,1.1-5.5,1.6-8c0.4,16,0.8,31.9,1.2,47.8c0.1,3.4,0.5,6.8,0.8,10.2L256.8,651.2z"/>
<path fill="#989898" d="M68.4,409.3l13.3-39.5c0.4,0.7,0.8,1.4,1.2,2.1l-13.4,42.3C69.1,412.6,68.8,411,68.4,409.3z"/>
<path fill="#4D4D4D" d="M407.1,483.4c6.1,5.6,7.6,12.1,9.4,19.1C411.6,500.3,406.1,489.3,407.1,483.4z"/>
<path fill="#9D9D9D" d="M370.7,366.8l14.3,42.5c-0.4,0.7-0.8,1.4-1.2,2.1c-4.8-14.2-9.6-28.3-14.4-42.5L370.7,366.8z"/>
<path fill="#4C4C4C" d="M37.1,503.1c1.3-7.6,3.4-14.1,9-19.6C47.8,488,42.8,499,37.1,503.1z"/>
<path fill="#A4A4A4" d="M80.7,404.3l10.2-22.8c0.4,0.7,0.8,1.5,1.2,2.2c-3.5,7.5-6.9,15-10.4,22.5L80.7,404.3z"/>
<path fill="#A3A3A3" d="M363.4,383.5c2.7,6.3,5.4,12.6,8.1,18.9l-1.1,1l-8.1-17.8L363.4,383.5z"/>
<path fill="#A8A8A8" d="M430.5,505.7l-8.1-18.9l1-2c2.7,6.3,5.3,12.6,8,19L430.5,505.7z"/>
<path fill="#595959" d="M86,357.3l-1.3-2.3c1.7-3.2,3.3-6.3,5-9.5l1.4,0.6L86,357.3z"/>
<path fill="#8C8C8C" d="M149.2,563.8c1.3-5.3,2.6-10.6,3.9-16l1.2,4l-4,12.8L149.2,563.8z"/>
<path fill="#BEBEBE" d="M211.1,149.5c-0.6,3.5-1.1,7.1-1.7,10.6c-1.2,8.2-4.9,14.8-12.8,18.9c0-2.6,0.1-5.3,0.1-7.9
	c7.2-5.5,8-13.2,1.4-16.3c-0.5,4.9-0.9,9.6-1.4,14.4v-27L211.1,149.5z"/>
</svg>
