<svg id="f94a5eae-b1cb-4381-99d3-05b686048bf9" data-name="MuscleMap-Male" xmlns="http://www.w3.org/2000/svg" viewBox="0 0 442.18 855.07">
  <g>
    <path d="M5.65,435.23a15.09,15.09,0,0,0,10.2-7.3c2.52-4.2,6-7.83,9.47-11.42-1.83,9.14-3.85,18.11-12.14,23.78a12.6,12.6,0,0,1-4.44,2.06,28.69,28.69,0,0,1-5.56.1l.31-5.52Z" fill="#3f3f3f"/>
    <path d="M21.22,487.72A73.38,73.38,0,0,1,23,480.38c3.29-9.3,6.72-18.55,10.09-27.83,1-2.89,3.62-3.66,7.27-2.24,3.41,1.32,1.66,3.37.8,5.27q-6.3,13.79-12.63,27.54C27.31,485.81,25.7,488,21.22,487.72Z" fill="#3f3f3f"/>
    <path d="M9.12,475.92c.24-1.87,0-4,.81-5.56,4.49-8.47,9.36-16.73,13.86-25.18,1.69-3.18,3.62-3.4,6.51-1.9,2.69,1.41,3.12,3.23,1.41,5.58Q23,460.79,14.2,472.64a41.41,41.41,0,0,1-3.71,3.9Z" fill="#3f3f3f"/>
    <path d="M417.22,416.23c3.23,3.86,6.36,7.82,9.73,11.57a89.57,89.57,0,0,0,7.32,7c.93.83,2.63,1.06,3.19,2,.89,1.52,1.11,3.42,1.62,5.17-1.39.31-2.86,1.08-4.15.85-5.3-.95-9-4.66-11.53-8.87-3.2-5.24-5.38-11.08-8-16.67Z" fill="#3f3f3f"/>
    <g id="aab8b9f2-1d02-4d51-b601-2563068c5c8d" data-name="traps">
      <path d="M178.37,131.08c3.53-1.89,6.94-4.11,10.64-5.6a15.61,15.61,0,0,0,9-8.89A66.51,66.51,0,0,0,203.2,90c0-2.49-.22-5.57,2.9-5.86s6.67.47,10,1.11c.5.09.91,2,.9,3.11-.19,13.47-.37,27-.85,40.42,0,1.37-2,3.74-3.18,3.85a162,162,0,0,1-34.1-.11Z"/>
      <path d="M263.24,132.38a62.53,62.53,0,0,1-6.69.76c-8.2.06-16.41.05-24.61-.08-4.46-.07-5.55-1.12-5.66-5.44q-.47-19.23-.72-38.45c0-4.32,1.77-5.79,6.68-5.8s6.46,1.46,6.3,6c-.34,10.4,2.92,19.88,7.1,29.17,2.35,5.25,7.66,6.49,11.93,9.16,2,1.23,4,2.39,6,3.59Z"/>
    </g>
    <g id="b8aef2e4-feba-4657-ad2e-3795551e4605" data-name="lads">
      <path d="M264.49,205.43c-3.67.09-5-1.46-4.26-4.1,2-7,4.28-13.91,6.3-20.9,1.32-4.55,2.29-9.19,3.53-13.76a90.59,90.59,0,0,1,3-9.52c1-2.66,3-3.7,5.86-2.41q12.39,5.67,24.81,11.28c2.68,1.21,3.24,2.88,1.86,5.5s-2.55,5.6-3.92,8.35c-3,5.93-6.69,11.18-12.86,14.29s-12.21,6.5-18.42,9.54A31,31,0,0,1,264.49,205.43Z"/>
      <path d="M182.09,203.16c-.91.64-2,2-3.29,2.17a9.26,9.26,0,0,1-4.82-1c-7-3.28-13.92-6.56-20.68-10.22a19.21,19.21,0,0,1-6.61-5.77c-3.85-5.71-7.17-11.78-10.68-17.72-1.07-1.79-.62-3.14,1.3-4,7.67-3.58,15.27-7.33,23-10.72,7-3.07,8.89-2.14,10.92,5.4,3.53,13,6.84,26.07,10.23,39.11C181.65,201,181.76,201.63,182.09,203.16Z"/>
      <path d="M176.45,208.33a22.29,22.29,0,0,1-3.58,2.83c-12.54,6.29-25.62,4.73-35.34-5.25-6.2-6.37-6.85-14.91-5.62-23.44.15-1,1.46-1.91,2.24-2.86a13.87,13.87,0,0,1,2.68,2.45,54.73,54.73,0,0,0,15.62,16.17,45.37,45.37,0,0,0,17.93,7.45c2,.34,3.83,1,5.75,1.51Z"/>
      <path d="M265.18,207.54a58.69,58.69,0,0,1,6.26-1.76c9.87-1.52,18-6.72,25.35-12.88,3.23-2.69,5.27-6.8,7.93-10.2a33.17,33.17,0,0,1,3.07-3.09c.85,1.33,2.33,2.6,2.46,4,1.64,18.52-8.36,32.42-28.54,30.93C275.89,214.11,270.15,212.58,265.18,207.54Z"/>
      <path d="M257.18,206.84c12.8,18.47,29,16,46.34,9.32a10.68,10.68,0,0,1,0,2.88c-1.26,4.42-1.86,9.28-4.14,13.12-4.06,6.86-5.46,14.15-6.68,21.83-1.68,10.62-4.57,21-6.69,31.58-1.64,8.18-2.85,16.45-4.35,24.66-1.68,9.1-8.15,15.23-13.94,21.68-2,2.21-3,.1-3.67-1.72-2.87-7.7-5.65-15.43-8.65-23.09-4.44-11.35-9-22.65-13.57-34-1.85-4.62-3.58-9.29-5.57-13.85-2.82-6.46-1.28-11.85,3.21-17a35,35,0,0,0,5-8.09c3.47-7.3,6.69-14.73,10-22.09C255.07,210.72,255.89,209.41,257.18,206.84Z"/>
      <path d="M184.89,207.36c2.4,4.28,4.56,7.87,6.49,11.58,4.89,9.42,9.9,18.81,14.38,28.43a13.38,13.38,0,0,1,.61,8.78c-2.72,9-5.88,17.79-9.3,26.51-6.27,16-12.84,31.85-19.3,47.76-.32.79-.79,1.52-2.76,3.53a42.08,42.08,0,0,0-2.74-4.68c-3.19-4.16-6.62-8.14-9.72-12.36a12.18,12.18,0,0,1-1.92-5c-4-22.22-7.78-44.47-11.9-66.66-.66-3.56-2.43-7-4.14-10.24-3.06-5.87-5.34-11.88-5.57-18.34,5.68,1.37,11.14,2.84,16.67,4a23.78,23.78,0,0,0,16.2-1.92c2.83-1.5,5.21-3.89,7.67-6C181.29,211.23,182.89,209.39,184.89,207.36Z"/>
      <path d="M152.89,361.41a54.5,54.5,0,0,1-1.1-7.41q-.12-10.72.27-21.44a16.23,16.23,0,0,1,1.93-6.18c2.67-5.39,7-6.3,10.76-1.82s7,9.72,10.38,14.72c1.64,2.46.89,4.63-1.54,6.24-.53.35-1,.74-1.59,1.08-6.73,4.1-14.29,7.18-17.76,15.32Z"/>
      <path d="M288.3,361.6c-4.5-7.62-11.68-11.65-18.77-15.77-3.2-1.85-3.75-4.35-1.68-7.3q5.29-7.54,10.79-14.95c2.1-2.84,4.59-2.48,6.9-.31a10.31,10.31,0,0,1,2.66,3.7C292.34,338.35,291.07,349.81,288.3,361.6Z"/>
    </g>
    <g id="b71cb170-81b3-4c80-8baf-0af61eeef0aa" data-name="traps-middle">
      <path d="M165.8,139.45c4.89-.78,10.39-2.13,16-2.39a85.8,85.8,0,0,1,16.09,1.07c9.33,1.33,19.52,6.7,19.76,20.68.27,15.51.87,31,.5,46.54-.34,14.22-1.73,28.42-2.74,42.63a25.69,25.69,0,0,1-2,8.36c-.5-1.19-1-2.38-1.48-3.57-2.13-5.07-3.64-10.53-6.5-15.16a243.83,243.83,0,0,1-28-65.88C174.53,161,169.89,150.8,165.8,139.45Z"/>
      <path d="M277.48,140.39c-8.44,16.52-13.67,34-19.28,51.46a186,186,0,0,1-13.47,32.2c-5.69,10.4-13,19.9-16.31,31.77a6.55,6.55,0,0,1-.65-1.83c-1.29-25.49-2.78-51-3.68-76.47-.27-7.76,1-15.59,1.69-23.38.72-8.38,6.29-13.06,13.59-14.87,11.78-2.92,23.83-3.71,35.73.09A22.78,22.78,0,0,1,277.48,140.39Z"/>
    </g>
    <g id="f76f804b-9d6d-4e31-b91e-9fed3db17171" data-name="lowerback">
      <path d="M211.06,266.86c5.7,33.92,8,67.9,1.93,102.64a24.8,24.8,0,0,1-3-1.28c-9.57-6-19.07-12.07-28.72-17.92-2.73-1.66-4-3.7-3-6.64,3.72-11,7.39-22,11.5-32.89,3.36-8.88,7.19-17.58,11-26.26,2.68-6,5.73-11.94,8.61-17.89Z"/>
      <path d="M229,369.82c-4.68-34.93-3.25-69,1.69-102.95l1.77-.74a14.08,14.08,0,0,0,.66,1.78,391.77,391.77,0,0,1,29.08,68.93c.23.73.41,1.48.6,2.23,2.12,8.38,2.13,8.39-5,13-5.28,3.42-10.52,6.88-15.86,10.2C238,364.7,234,366.91,229,369.82Z"/>
    </g>
    <g id="bc082955-6dfb-44a4-be29-87eb0dfe33e6" data-name="shoulders">
      <path d="M102.46,205c-.12-1.59-.29-2.81-.3-4-.06-7.84-.15-15.67-.11-23.51,0-9.6,3.56-17.45,11.87-22.8,3.55-2.28,6.86-5,10.64-6.85,8-3.8,18.63-1.45,24.7,5.24a92.72,92.72,0,0,1-8.11,5.67c-8.86,4.92-12,13.1-12.59,22.42a17.17,17.17,0,0,1-5.79,12.06A45.28,45.28,0,0,1,102.46,205Z"/>
      <path d="M338.65,204.84c-9.53-2.44-16.11-9.27-22.87-15.7-1.39-1.32-2.14-3.93-2.19-6-.28-12.25-5.53-21.39-16.26-27.36a24.78,24.78,0,0,1-3.12-2.26,5.11,5.11,0,0,1-.74-1.05c7-6.43,15.2-8.56,23.81-5,10.89,4.54,19.57,11.75,22,24.26a40.44,40.44,0,0,0-.63,4.91C338.62,186.09,338.65,195.46,338.65,204.84Z"/>
    </g>
    <g id="e16a32ed-0414-40a3-82ad-f40450ca9b28" data-name="triceps">
      <path d="M127.13,193.74c1.54,9.48,3,17.78,4.14,26.13.16,1.17-.93,2.88-1.94,3.78-6.5,5.75-13.16,11.31-19.72,17-2.25,2-3.54,1.34-4.49-1.27a31.42,31.42,0,0,1,8.95-34.32C118.17,201.47,122.3,197.92,127.13,193.74Z"/>
      <path d="M314.67,194.68c17.45,6.76,27.69,27.63,22.21,44.38-1.06,3.25-2.87,3.9-4.79,1.16-4.86-6.91-11.52-11.54-18.57-15.77-2.66-1.6-3.39-3.63-2.77-6.75C312.25,210.23,313.35,202.59,314.67,194.68Z"/>
      <path d="M94.34,288.4c-.8-2.54-2.06-5-2.33-7.63-1.36-13.48,1.35-26.56,4.26-39.6.49-2.22,1.19-4.38,2.1-7.64,5.46,11,11.42,20.53,6.07,32.5-2.76,6.19-4.65,12.77-7,19.15a23.36,23.36,0,0,1-1.71,3.15Z"/>
      <path d="M347.18,288.36a7.7,7.7,0,0,1-1.36-1.7c-3.2-8.22-6.33-16.46-9.49-24.68a17.83,17.83,0,0,1,.51-13.86c2-4.64,4.16-9.19,6.52-14.39C351.09,245.92,353.4,283,347.18,288.36Z"/>
      <path d="M105.35,298.14c0-4.78-.47-9.62.1-14.33,1.43-11.83,3.21-23.62,5.14-35.37a12.52,12.52,0,0,1,3.23-6.24c4.92-5,10.15-9.78,15.33-14.56a26.87,26.87,0,0,1,3.84-2.41c2.3,7.05,1.68,13.37-.42,19.69-1.58,4.74-2.82,9.6-4.65,14.24a41.12,41.12,0,0,1-5.08,9.35c-2.6,3.5-4.75,7-4.81,11.47-.1,8.36-5.89,13.18-11.18,18.3Z"/>
      <path d="M308.94,224.87C317,231,325,236.05,330.13,244.32a10.47,10.47,0,0,1,1.3,4c1.84,12.8,3.73,25.6,5.33,38.44a37.27,37.27,0,0,1-.66,11.44c-5.7-4.39-10.66-9.06-11.1-16.31-.41-6.76-3.38-11.89-8-16.47a12.16,12.16,0,0,1-2.56-4.64c-2-5.82-3.85-11.67-5.6-17.56A31.19,31.19,0,0,1,308.94,224.87Z"/>
    </g>
    <g id="f834dee3-a8e4-4503-b6e9-df1e4a75e610" data-name="forearm">
      <path d="M354.89,289c-3.19,11.24,2.54,23.52-4.38,35.15-5-4.95-6.75-10.5-7.24-16.53C342.74,300.82,346.05,295.35,354.89,289Z"/>
      <path d="M88.79,288.45c2.9,5.85,11.13,8.76,10.76,17.21-.28,6.62-1.83,12.85-7.64,18.9-1.24-3.65-2.88-6.38-3-9.17C88.57,306.46,88.79,297.52,88.79,288.45Z"/>
      <path d="M62.65,378.92c2.88-19.09,5.84-38.16,8.56-57.27.63-4.37.41-8.86.58-13.3a8.12,8.12,0,0,1,.91,2.2c.35,4.13.6,8.26.88,12.4-2.34,16.33-4.64,32.68-7,49-.62,4.18-1.57,8.31-2.37,12.46C63.66,382.58,63.16,380.75,62.65,378.92Z" fill="#c4c4c4"/>
      <path d="M373,307.23c6.3,31.32,9,63.4,19.44,93.86l-.93.55c-1.93-2.85-4.16-5.54-5.74-8.58A87.57,87.57,0,0,1,377,363.7c-2.18-16.92-4.08-33.87-6-50.81-.21-1.87.3-3.83.48-5.74Z"/>
      <path d="M73.58,323q1.67-11.56,3.35-23.12l1.06-.32c1.74,5.08,4,10.06,5.11,15.28a154.25,154.25,0,0,1,2.61,18.66c.88,9.21-.07,18.28-3.94,26.77C76,372.94,69.94,385.56,63.89,398.17a11.06,11.06,0,0,1-4.1,4.24l4.38-18c.8-4.15,1.75-8.28,2.37-12.46C68.94,355.63,71.24,339.28,73.58,323Z"/>
      <path d="M364.89,299.78c2.63,17.16,5.13,34.35,7.94,51.48s5.89,34,8.88,51.13a24.84,24.84,0,0,1-2.2-3c-7.21-13.11-14.52-26.15-19.9-40.21s-3.87-28-1.26-42.08c1.11-6,3.47-11.69,5.26-17.53Z"/>
      <path d="M374.68,398.57c-7-6.51-42.9-77.33-44-86.19,5.44-2.52,11.46,2.63,13.43,8.16,4,11.12,7.63,22.34,11.52,33.48,2.75,7.87,5.41,15.79,8.61,23.48,2.45,5.88,5.69,11.42,8.56,17.12C373.4,395.72,373.89,396.86,374.68,398.57Z"/>
      <path d="M69.51,397.3c5.31-13.6,10.73-27.15,15.89-40.8,4.62-12.21,9-24.53,13.4-36.82,1.74-4.81,4.82-7.81,10.14-8a15.06,15.06,0,0,1,2.81.57C101.25,342.72,84,369.42,69.51,397.3Z"/>
      <path d="M62.65,378.92c-4.21,7.3-5.63,16.21-13.22,22.95,9.71-31.7,14.84-63.23,20.23-95.34l2.13,1.82c-.17,4.44,0,8.93-.58,13.3C68.49,340.76,65.53,359.83,62.65,378.92Z"/>
    </g>
    <g id="afe5f08e-f13a-49fa-b30d-dae7ba732b1e" data-name="glutes">
      <path d="M245,363.89c2.16-1.58,3.42-3.19,5-3.54,7.2-1.64,14.44-3.22,21.75-4.23,4.32-.6,8.07,1.51,10.44,5.28a125,125,0,0,1,7,12.34c2,4.11,3.41,8.47,5,12.76a15.5,15.5,0,0,1,.35,3.26c-2.16-1.14-3.89-1.87-5.42-2.89-2.88-1.93-5.74-3.89-8.43-6.06a79.83,79.83,0,0,0-31.84-15.58C247.83,365,246.89,364.56,245,363.89Z"/>
      <path d="M197.12,364.72c-19.22,2.25-33.08,14.84-49,25.38.28-2.3.15-3.65.63-4.74,3.37-7.71,6.64-15.47,10.38-23a11.38,11.38,0,0,1,11.93-6.22,200.82,200.82,0,0,1,21.76,4.2c1.62.38,2.92,2.12,4.37,3.23Z"/>
      <path d="M220.18,403.78c-1.41,9.62-2,19.48-4.5,28.81a80.49,80.49,0,0,0-3,21.1c0,5.81-3,9.52-9.13,9.92-5.47.35-11.09-.91-16.59-1.82A75,75,0,0,1,176.23,459a17.64,17.64,0,0,1-5.43-2.76c-13.66-10.8-22-24.76-24.58-42.06-1.65-11.19,3.12-19.8,12-25.73s18.67-11.09,28.26-16.18c3.57-1.91,7.64-3,11.57-4.11,5.37-1.57,6.7-.39,10.63,3.55C217.67,380.64,220,391.64,220.18,403.78Z"/>
      <path d="M229.24,445.68c-.93-4.8-2.88-13.29-4.18-21.88-1.8-11.93-3.06-23.91-.57-36,1.58-7.69,6.35-13.44,11.4-18.82,1.43-1.52,5.48-1.75,7.87-1,16.48,5,31.51,12.61,44.56,24.21,8.1,7.2,9.66,15.87,7.44,25.45-3.57,15.4-11.87,28.19-23.87,38.46-1.9,1.64-4.78,2.2-7.29,3-2.66.87-5.42,1.48-8.14,2.2-3.59.95-7.12,2.25-10.77,2.76C234.29,465.66,229.13,461,229.24,445.68Z"/>
    </g>
    <g id="a558390d-ad00-423b-96e2-a55a70934e26" data-name="hamstrings">
      <path d="M148.14,558.23c-8.5-13.58-15.47-105-11.22-119.29,1.34,1.72,2.65,2.84,3.25,4.27,8.21,19.57,10.72,40,9.17,61.05-1.27,17.12-3.88,34.21-1.21,51.43A16.57,16.57,0,0,1,148.14,558.23Z"/>
      <path d="M304.33,439.23c5.67,13.6-2.4,107.13-9.59,119.43a42.92,42.92,0,0,1,0-5.32c2.11-15.3.14-30.5-1.17-45.7-1.9-22.08.16-43.57,8.77-64.18.4-.95.93-1.83,1.37-2.76A13.78,13.78,0,0,0,304.33,439.23Z"/>
      <path d="M146.89,610.94c1.19-9.15,2-18.37,3.65-27.43,3.37-18.3,3.86-36.75,4-55.26.15-19.39.33-38.78.72-58.17a73.56,73.56,0,0,1,1.8-13.71c.82-3.92,2.5-4.33,5.54-1.74,6.9,5.86,10.94,13.56,13.11,22.14.68,2.71-.35,5.84-.49,8.78-.74,15.9-1.56,31.81-2.14,47.72-.5,13.78-4,27-8.48,39.8-3.94,11.21-9,22-13.68,33a40.76,40.76,0,0,1-3.18,5.15Z"/>
      <path d="M287.12,532.23c.33,8.07.19,16.2,1.1,24.2,1.4,12.18,3.58,24.27,5.32,36.41.83,5.8,1.4,11.63,2.08,17.44l-.91.41c-1.84-2.65-4.15-5.08-5.43-8-11-24.92-19.52-50.45-20.16-78.11-.34-14.87-1.72-29.72-2-44.59-.08-4.13,1.49-8.6,3.38-12.37A75.37,75.37,0,0,1,279.17,455c2.61-3.29,5-2.79,5.65,1.4,1.11,7.58,1.45,15.27,2.11,22.92a38.13,38.13,0,0,0-.65,4.88q-.07,27,0,54.1c0,1,.11,2.07.18,3.11h.69Z"/>
      <path d="M257.89,473.43c4.28,6.34,4.51,12.82,5.13,19.14,1,10.21,2,20.44,2.53,30.69,1.1,20.06,2.07,40.14,2.77,60.22A95.61,95.61,0,0,1,267,600c-.36,2.63-1.75,5.12-2.67,7.68l-1.38-.07c-1-6.24-1.92-12.49-2.91-18.73q-4.6-29.05-9.24-58.11a10.23,10.23,0,0,0-.71-2.6c-6-13.5-3.72-26.95.63-40.2C252.3,483,255.25,478.59,257.89,473.43Z"/>
      <path d="M183.51,473.48c11.27,15.92,16,32.35,10.25,50.63S185.24,561.3,183,580.28c-.89,7.39-2,14.75-3.1,22.11-.26,1.72-.82,3.4-1.24,5.09l-1.32.1c-.68-3.37-1.86-6.73-2-10.12-.43-14.23-1.28-28.51-.59-42.71,1.12-23.2,3.31-46.34,5.09-69.5a21.53,21.53,0,0,1,.94-4.91C181.43,478.28,182.36,476.31,183.51,473.48Z"/>
      <path d="M251.79,470.47C242,486.35,235,502.3,239.55,521.24c-.29-.4-.74-.77-.84-1.22-3.16-14-6.68-27.92-9.26-42-1.6-8.78,0-9.95,8.85-9.42,3.71.22,7.39.85,11.07,1.33C250.19,470.07,251,470.25,251.79,470.47Z"/>
      <path d="M190.34,469.89c6.62-.49,12.44-1.09,18.27-1.28,4-.13,4.53,3,4.17,5.93-.87,7.13-1.69,14.3-3.17,21.31a226.34,226.34,0,0,1-7,24.79C205.89,502.35,201.29,486,190.34,469.89Z"/>
      <path d="M200,520c0,5.91,1.28,12.17-.23,17.66-5.11,18.57-6.5,37.58-8.44,56.58-.8,7.79-3.17,15.43-4.82,23.14l-1.09-.18c.45-4.7,1.09-9.38,1.32-14.09.53-10.88,0-21.9,1.51-32.62,1.77-12.25,5.36-24.22,8.09-36.33,1.07-4.71,2-9.46,2.93-14.2Z"/>
      <path d="M243.37,519.9c3.34,15.55,6.82,30.81,9.81,46.16,1,4.85.62,10,.9,14.94.68,12.15,1.36,24.29,1.47,36.62-1.3-6.68-3-13.31-3.83-20-1.13-8.9-1.26-17.94-2.51-26.82S246.07,552.88,244,544C242.16,536,240.68,528.23,243.37,519.9Z"/>
    </g>
    <g id="a9865b4c-78c5-4744-becf-3721ad4f47d1" data-name="calves">
      <path d="M277,596.8c10.79,12.77,19.77,25.34,21.93,41.87,3.19,24.46,2.86,48.64-3.34,72.61-.86,3.32-1.94,6.39-6.08,7-3.78.56-6.86-.5-8.33-4a24.9,24.9,0,0,1-2-8.87c-.82-34.39-1.47-68.79-2.16-103.19C277,600.74,277,599.23,277,596.8Z"/>
      <path d="M163,702.76c-.54,3.52-.68,7.18-1.75,10.53a7,7,0,0,1-7.68,5.13c-3.83-.25-5.2-2.81-6.12-5.93A149.82,149.82,0,0,1,141.89,663a244,244,0,0,1,4.29-34.29c2.41-12.62,10.33-22.34,19.69-31.29q-.5,10.22-1,20.43-.93,19.76-1.85,39.5Z"/>
      <path d="M272.09,597.42c0,15.43-.09,30.29,0,45.15.12,15.79.42,31.57.67,47.36.12,7,.58,14.12.32,21.16-.09,2.39-1.31,5.75-3.11,6.84-2.82,1.7-5.54-.75-7.58-3-8.34-9.22-13.08-20-12.88-32.51.25-15.69,1.37-31.42,5.92-46.47,2.68-8.85,7.45-17.06,11.22-25.59C268.47,606.28,270.13,602.12,272.09,597.42Z"/>
      <path d="M170.57,598.32c5.56,15.56,15,29.34,18.23,45.78,3.14,15.84,5.64,31.64,3.32,47.65-1.4,9.58-7.11,17.5-13.86,24.33-4.06,4.12-7.69,2.85-8.48-2.84a86.83,86.83,0,0,1-.43-12.28c.17-23.62.42-47.23.61-70.85.08-9.5.08-19,.15-28.5A24.34,24.34,0,0,1,170.57,598.32Z"/>
      <path d="M163.37,812.76a43.32,43.32,0,0,1-1.21-5c-2.84-19.42-5.51-38.87-8.52-58.27-.76-4.91-2.42-9.69-3.84-14.48s-.13-8.3,3.87-9.19c4.63-1,8.6,1.58,9.06,6.47,1.43,15,3,30.07,3.81,45.15.5,10.2-.28,20.47-.61,30.7a20.89,20.89,0,0,1-1.19,4.6Z"/>
      <path d="M277.37,812.47c-.64-4.9-2-9.83-1.8-14.69,1-21.76,2.37-43.5,3.62-65.24.18-3.11,1.57-5.42,4.6-6.44,3.39-1.13,6.76-.28,8.67,2.37,1.1,1.54,1.12,4.91.18,6.69-4.6,8.66-5,18.2-6.37,27.51-2.37,15.58-4.56,31.18-6.85,46.77a29,29,0,0,1-.75,2.88Z"/>
      <path d="M269.94,810.94c-.83-6.57-1.41-13.18-2.54-19.7-1.89-10.84-4.53-21.57-6.09-32.45-1.14-8-1.15-16.12-1.46-24.2a6.61,6.61,0,0,1,5.7-7.1c4.66-.9,6.8.38,6.81,5.15q0,28.49-.4,57c-.11,7.1-.76,14.19-1.17,21.29Z"/>
      <path d="M171.89,810.81c-.34-5.48-.87-11-1-16.44-.43-19-.73-38-1-56.93a28.38,28.38,0,0,1,.26-4.22c.36-3,.53-6.09,4.87-5.89,3.88.18,7.16,2.83,7.12,6.63-.07,6.66,0,13.39-.94,20-2.67,19-5.8,38-8.75,57Z"/>
    </g>
    <path d="M260,47.6c-.7,4.82-3.15,7.83-7.89,9.78-2.71,1.12-4.69,4.2-6.75,6.62a27.41,27.41,0,0,0-2.91,5c-2.64,4.93-5.95,8.08-12.35,7.5-7.13-.65-14.36-.24-21.55-.12a6.22,6.22,0,0,1-6.23-3.57c-1.18-2.28-2.37-4.56-3.63-6.79-2.59-4.57-5.79-8.5-11.16-10-4-1.07-4.57-4.47-5.45-7.7-2.16-9.56-2.22-19,.75-28.49,2.5-8,7.72-12.91,15.48-15.78,15-5.54,29.8-5.1,44.89-.48,11.56,3.54,15.57,12.43,17.59,23A49.73,49.73,0,0,1,260,47.6Z" fill="#6f6f6f"/>
    <path d="M396.48,483.09q-3.06-10.86-6.13-21.73c-.44-1.53-1-3-1.44-4.56h-1.3c-.38,2.39-.86,4.76-1.12,7.15-.54,4.84-.82,9.71-1.55,14.51-.19,1.23-1.69,2.26-2.58,3.38-1-1.11-2.52-2.11-2.74-3.35-.87-4.91-1.06-9.95-2-14.85-1.89-9.93-4-19.82-6.21-29.69-1.11-5-2.64-9.88-3.83-14.85a13.38,13.38,0,0,1-.35-5c1.68-10.62-1-20.36-5.63-29.76-5.65-11.54-11.12-23.16-17-34.6-4-7.87-8.87-15.31-12.73-23.25-6.28-12.9-8.3-26.9-9.43-41.05a22,22,0,0,0-6-13.69c-3.23-3.58-5.09-8.55-6.94-13.16-1.95-4.87-3.1-10-4.74-15a22.75,22.75,0,0,0-2.11-3.88l-1.32.32c-.4,2.44-.85,4.88-1.19,7.34-1.39,10.2-2.92,20.24-8.8,29.22-1.81,2.75-2,6.92-2,10.42.28,13.08.67,26.18,1.65,39.22.77,10.18,2.46,20.3,3.81,30.45a22.94,22.94,0,0,0,1.26,5.23c7.5,19.5,9.71,40.05,12.57,60.53,3.31,23.81,2.51,47.69,2,71.53-.4,17.55-1.65,35.15-6.65,52.19a10.43,10.43,0,0,1-.93,2.93c-8,12.17-5.12,25.21-3.62,38.33.88,7.69-.09,15.58.24,23.36a168.09,168.09,0,0,0,2,19,237.27,237.27,0,0,1,1.74,58.69,333.53,333.53,0,0,1-11,60.94c-3,10.42-2.63,20.75-1.5,31.23.47,4.3,1.23,8.58,1.41,12.88.09,2.2-.73,4.46-1.28,6.66-1.49,6-2.1,11.58,3.37,16.19a71.51,71.51,0,0,1,9,9,26.67,26.67,0,0,1,5,8.47c2.42,7.51-.77,12.3-8.55,14a31,31,0,0,0-3.12,1.38c-4.67,1.49-9.34,3-14.06,4.27-.72.2-1.68-.69-2.53-.7-1.48,0-3.25-.21-4.38.5-4,2.47-6.57,2.55-10.1-.44-5.33-4.52-8-9.82-6.95-17.26.67-4.55-.45-9.39-.86-14.08-.1-1.14-.84-2.23-.85-3.35-.08-10.51-2.68-21,0-31.55a58.55,58.55,0,0,0,2-12.12c.75-21.22.1-42.36-5.37-63-1.44-5.44-4.17-10.6-5.14-16.09-2.81-16.08-1.62-32.24.28-48.34.92-7.77,2.52-15.47,3.18-23.26a26,26,0,0,0-1.52-11.19c-4.19-10.84-4.73-22-3.9-33.33.28-3.78.68-7.76-.16-11.38-3.86-16.62-8.24-33.11-12.24-49.7-2.57-10.6-5.83-21.18-6.93-32-1.31-12.83-.65-25.87-.84-38.81,0-.62.08-1.24.1-1.6h-9.84a87,87,0,0,1,.57,9.68c-.48,11.51-.11,23.2-2.09,34.46-2.66,15.12-7.31,29.89-10.93,44.85q-4,16.65-7.58,33.43a29.14,29.14,0,0,0-.42,8.79c1.27,13.07,1,25.83-4.64,38.11-1.08,2.35-.83,5.57-.46,8.28,2.61,18.82,5.42,37.59,5,56.69a86.63,86.63,0,0,1-7.35,32.36c-2.69,6.33-3.38,13.68-4,20.66a329,329,0,0,0-1.61,33.81c.1,7.61,1.92,15.19,3,22.79a14.25,14.25,0,0,1,.51,2.24c-.51,9.17-1,18.33-1.65,27.49-.37,5.58-1.75,11.22-1.19,16.68.83,8-2.86,13.47-8.33,18-1.44,1.18-5.44.69-7.34-.5-2.47-1.56-4.3-1.75-6.65-.51a2.88,2.88,0,0,1-1.83.47c-4.17-1.11-8.33-2.27-12.45-3.56-2-.62-3.85-1.9-5.89-2.28a10.82,10.82,0,0,1-8-7.23c-1.37-4.78.64-9.87,4.44-13.67a122.21,122.21,0,0,1,9.49-9c5.18-4.15,6-9.71,4.57-15.33-2-8.26-.91-16.32-.12-24.48,1-10,1-20-1.53-29.84-5.49-21.45-9.67-43.15-10.88-65.24-1.12-20.53-.87-41.08,3.83-61.32a24.49,24.49,0,0,0,.5-8.74c-1.84-13,0-25.81,1.64-38.7.8-6.49,1-13.16-2.7-19.59-5.79-10-7.64-21.37-8.92-32.8-2.75-24.57-2.67-49.23-2.15-73.86.24-11,2.11-21.95,3.26-32.92.45-4.21.58-8.5,1.51-12.6,2.44-10.74,4.58-21.62,8.09-32a118.72,118.72,0,0,0,5.91-30.08c1.19-17.15,1.94-34.33,2.7-51.5.28-6.38-1.88-12.14-4.25-18.11-2.94-7.41-4-15.56-5.8-23.41-.53-2.32-.77-4.7-1.14-7.06l-1.41-.5c-1.08,1.77-2.48,3.43-3.16,5.35-2,5.55-3.37,11.34-5.6,16.79a45,45,0,0,1-6.48,11.27c-4.7,5.81-4.1,12.76-5.33,19.36-1.59,8.55-3,17.18-5.37,25.54-1.4,5-4.31,9.55-6.68,14.23-6.09,12-12.26,24-18.41,36-3.28,6.38-6.77,12.65-9.84,19.13a48,48,0,0,0-4.66,24.25c.36,5.41-.62,11-1.71,16.37-1.4,6.91-3.84,13.61-5.21,20.52S66,462.15,65,469a82.61,82.61,0,0,1-1.79,10.23,4.64,4.64,0,0,1-3.1,2.71c-.71.13-2.44-1.63-2.6-2.7-.8-5.31-1.19-10.68-1.79-16-.25-2.14-.68-4.26-1-6.39H53.42c-.49,1.64-1,3.27-1.44,4.93-2,8.36-3.94,16.74-6,25.09a8.59,8.59,0,0,1-1.63,3.42c-1.89,2.22-4.64,1.64-5.09-1.22a28.21,28.21,0,0,1,0-8c.93-7.08,2.13-14.14,2.58-21.45-.54,1.21-1,2.44-1.62,3.62-3.78,7.55-7.45,15.15-11.43,22.59-1.36,2.56-3.59,5.69-6.85,4.18-3.66-1.7-2.08-5.27-1-8.17q4.86-13.14,9.79-26.25l-1.3-.73c-2.6,3.47-5.3,6.87-7.78,10.43-2,2.95-3.79,6.11-5.76,9.12-1.66,2.53-3.47,5.32-7.06,3.27-3.88-2.2-1.64-5.24-.32-7.67,3.73-6.87,8-13.47,11.55-20.41,1.66-3.19,2.41-6.89,3.32-10.42.25-.95-.41-2.13-.85-4.09-2,1.43-3.72,2.17-4.61,3.49-2.83,4.26-7.07,5.8-11.7,6.64-2.27.41-4.93.75-5.91-2.12s.43-4.94,3.21-6l-.31,5.52a28.69,28.69,0,0,0,5.56-.1,12.6,12.6,0,0,0,4.44-2.06c8.29-5.67,10.31-14.64,12.14-23.78-3.46,3.59-7,7.22-9.47,11.42a15.09,15.09,0,0,1-10.2,7.3c4.94-3.31,7.85-8.13,10.73-13.22,4-7.15,11.11-11.07,18.58-13.57,6.52-2.18,10.69-6,12.21-12.53,4.42-19,8.51-38,13.08-57,3.42-14.16,3.87-29,10.06-42.54C75,286.47,80,276.75,87.56,268.47a8.68,8.68,0,0,0,2-5.51,91.14,91.14,0,0,1,8.75-39.84c2.1-4.59.21-11,.24-16.55.05-10.64-.51-21.33.48-31.88.91-9.82,6.72-17.55,14.14-23.94,2.72-2.34,5.38-4.76,8.25-6.91a31.84,31.84,0,0,1,24.3-6.22c10.94,1.49,21.25-.06,30.23-7.11,4.94-3.88,10-7.59,14.81-11.65a9.69,9.69,0,0,0,3-5.12,108.51,108.51,0,0,0,1.52-12.58c.3-3.6.16-7-2.75-10-1.32-1.37-1.62-4-1.84-6.1a87.17,87.17,0,0,1-.08-9c-4.24,2.45-5.78-.38-6.85-3.07a133.16,133.16,0,0,1-5.94-17c-1.17-4.72.7-7.21,4.23-7.6.88,3.23,1.5,6.63,5.45,7.7,5.37,1.46,8.57,5.39,11.16,10,1.26,2.23,2.45,4.51,3.63,6.79a6.22,6.22,0,0,0,6.23,3.57c7.19-.12,14.42-.53,21.55.12,6.4.58,9.71-2.57,12.35-7.5a27.41,27.41,0,0,1,2.91-5c2.06-2.42,4-5.5,6.75-6.62,4.74-2,7.19-5,7.89-9.78,3.25.45,4.61,2.55,4.62,5.6,0,8.42-3.38,15.72-7.88,22.55-.53.81-2.44.72-3.77,1.06a70.55,70.55,0,0,1-.69,9.41c-.45,2.27-1.88,4.35-2.92,6.49-.27.56-.86,1-1.13,1.54-2.17,4.5.78,21.38,4.34,24.93A86.34,86.34,0,0,0,277.29,136c6.58,3.08,13.67,2.18,20.5,1.45A34,34,0,0,1,320.48,143c10.3,6.66,17.53,16.12,22.63,27.14a21,21,0,0,1,1.64,9c-.24,13-.87,25.88-1.19,38.82a12.21,12.21,0,0,0,1.25,5.88c6.36,11.72,8.67,24.28,8.69,37.48a14.12,14.12,0,0,0,2.58,7.7c11.23,15.53,20.35,31.81,23.55,51.18,3.61,21.89,8.15,43.62,12.62,65.35a50.79,50.79,0,0,0,5.29,14.35c1.68,3,4.81,5.51,7.82,7.4,4.87,3,10.57,4.87,15.18,8.22a29.73,29.73,0,0,1,8.11,9.95A27.64,27.64,0,0,0,438,435.92c1.17.77,2.59,1.55,3.2,2.7.71,1.34,1.3,3.37.76,4.57s-2.58,2.11-3.94,2.09a15.14,15.14,0,0,1-12.14-5.85c-1.45-1.82-2.89-4.83-5.61-2.93-2.46,1.73-1.95,4.76-.54,7.33l13.84,25.34c.49.9.85,1.87,1.27,2.81,1,2.22,1.18,4.3-1.34,5.61s-4.11-.2-5.45-2.11l-14.77-21-1.61.77c2.59,6.93,5.15,13.87,7.8,20.78,1.14,3,2.86,5.78,3.57,8.84.34,1.49-.57,4.14-1.77,4.86s-4,0-4.91-1.13a49.7,49.7,0,0,1-6.85-10.09c-3-6.18-5.52-12.62-9-18.75.55,3,1.23,6.05,1.61,9.1.76,6.22,1.51,12.46,1.91,18.72.07,1.24-1.49,2.58-2.3,3.87l-3.62-3.1,3.46,1A13.69,13.69,0,0,0,402,486q-2.15-15.37-4.48-30.75c-.48-3.24-3-2.36-4.79-1.83-.9.27-1.66,2-1.92,3.16s.34,2.25.58,3.38Q394,471.51,396.48,483.09ZM62.65,378.92c.51,1.83,1,3.66,1.52,5.49l-4.38,18a11.06,11.06,0,0,0,4.1-4.24c6-12.61,12.06-25.23,17.88-37.95,3.87-8.49,4.82-17.56,3.94-26.77a154.25,154.25,0,0,0-2.61-18.66c-1.16-5.22-3.37-10.2-5.11-15.28l-1.06.32q-1.68,11.57-3.35,23.11c-.28-4.13-.53-8.26-.88-12.39a8.12,8.12,0,0,0-.91-2.2l-2.13-1.82c-5.39,32.11-10.52,63.64-20.23,95.34C57,395.13,58.44,386.23,62.65,378.92ZM339.31,171.8c-2.46-12.51-11.14-19.72-22-24.26-8.61-3.59-16.8-1.46-23.81,5a5.11,5.11,0,0,0,.74,1.05,24.78,24.78,0,0,0,3.12,2.26c10.73,6,16,15.11,16.26,27.36a9.2,9.2,0,0,0,2.19,6c6.76,6.43,13.34,13.26,22.87,15.7.27-.4.78-.79.78-1.18C339.42,193,339.36,182.42,339.31,171.8ZM163,657.31q.93-19.75,1.85-39.5.49-10.21,1-20.43c-9.36,9-17.28,18.67-19.69,31.29A242.51,242.51,0,0,0,141.89,663a149.83,149.83,0,0,0,5.58,49.53c.92,3.12,2.29,5.68,6.12,5.93a7,7,0,0,0,7.68-5.13c1.07-3.35,1.21-7,1.75-10.53.49-1.37,1.37-2.73,1.38-4.1q.16-18.63,0-37.25C164.38,660,163.49,658.68,163,657.31ZM287.12,532.23q-.11-26.46-.2-52.92c-.66-7.65-1-15.34-2.11-22.92-.61-4.19-3-4.69-5.65-1.4a75.37,75.37,0,0,0-8.67,12.65c-1.89,3.77-3.46,8.24-3.38,12.37.29,14.87,1.67,29.72,2,44.59.64,27.66,9.19,53.19,20.16,78.11,1.28,2.9,3.59,5.33,5.43,8l.91-.41c-.68-5.81-1.25-11.64-2.08-17.44-1.74-12.14-3.92-24.23-5.32-36.41C287.31,548.44,287.45,540.31,287.12,532.23ZM220.18,403.78c-.19-12.14-2.51-23.14-11.5-32.14-3.93-3.94-5.26-5.12-10.63-3.55-3.93,1.14-8,2.2-11.57,4.11-9.57,5.12-19.23,10.2-28.25,16.21s-13.64,14.54-12,25.73c2.55,17.3,10.92,31.26,24.58,42.06a17.64,17.64,0,0,0,5.43,2.76A75,75,0,0,0,187,461.79c5.5.91,11.12,2.17,16.59,1.82,6.18-.4,9.12-4.11,9.13-9.92a80.49,80.49,0,0,1,3-21.1C218.21,423.23,218.77,413.4,220.18,403.78Zm9.06,41.9c-.11,15.31,5,20,16.46,18.41,3.65-.51,7.18-1.81,10.77-2.76,2.72-.72,5.48-1.33,8.14-2.2,2.51-.83,5.39-1.39,7.29-3,12-10.27,20.29-23.06,23.86-38.46,2.22-9.58.66-18.25-7.44-25.45-13-11.6-28.08-19.23-44.56-24.21-2.39-.72-6.44-.49-7.87,1-5,5.38-9.82,11.13-11.4,18.82-2.49,12.06-1.23,24,.57,36,1.3,8.56,3.25,17.05,4.18,21.85Zm27.94-238.84c-1.34,2.57-2.11,3.88-2.73,5.26-3.35,7.36-6.57,14.79-10,22.09a35,35,0,0,1-5,8.09c-4.49,5.14-6,10.53-3.21,17,2,4.56,3.72,9.23,5.57,13.85,4.53,11.33,9.13,22.63,13.57,34,3,7.66,5.78,15.39,8.65,23.09.68,1.82,1.68,3.93,3.67,1.72,5.79-6.45,12.26-12.58,13.94-21.68,1.5-8.21,2.71-16.48,4.35-24.66,2.12-10.55,5-21,6.69-31.58,1.22-7.68,2.62-15,6.68-21.83,2.28-3.84,2.88-8.7,4.14-13.12a10.68,10.68,0,0,0,0-2.88c-17.31,6.64-33.52,9.12-46.32-9.35Zm-72.29.52c-2,2-3.6,3.82-5.38,5.37-2.46,2.13-4.84,4.52-7.67,6a23.76,23.76,0,0,1-16.15,1.92c-5.53-1.13-11-2.6-16.67-4,.23,6.46,2.51,12.47,5.57,18.34,1.71,3.25,3.48,6.68,4.14,10.24,4.12,22.19,7.92,44.44,11.9,66.66a12.18,12.18,0,0,0,1.92,5c3.1,4.22,6.53,8.2,9.72,12.36a42.08,42.08,0,0,1,2.74,4.68c2-2,2.44-2.74,2.76-3.53,6.46-15.91,13-31.78,19.3-47.76,3.42-8.72,6.58-17.56,9.3-26.51a13.38,13.38,0,0,0-.61-8.78c-4.48-9.62-9.49-19-14.38-28.43-1.93-3.69-4.09-7.28-6.49-11.56ZM165.8,139.45c4.13,11.35,8.73,21.58,11.58,32.28a243.83,243.83,0,0,0,28,65.88c2.86,4.63,4.37,10.09,6.5,15.16.5,1.19,1,2.38,1.48,3.57a25.69,25.69,0,0,0,2-8.36c1-14.21,2.4-28.41,2.74-42.63.37-15.5-.23-31-.5-46.54-.24-14-10.43-19.35-19.76-20.68a85.8,85.8,0,0,0-16.09-1.07c-5.56.26-11.06,1.61-15.95,2.39Zm111.68.94a22.58,22.58,0,0,0-2.38-1c-11.9-3.8-24-3-35.73-.09-7.3,1.81-12.87,6.49-13.59,14.87-.68,7.79-2,15.62-1.69,23.38.9,25.5,2.39,51,3.68,76.47a6.55,6.55,0,0,0,.65,1.83c3.29-11.87,10.62-21.37,16.31-31.77a186,186,0,0,0,13.47-32.2c5.61-17.46,10.84-35,19.28-51.49ZM146.89,610.94l.85.27a40.76,40.76,0,0,0,3.18-5.15c4.67-11,9.74-21.78,13.68-33,4.51-12.84,8-26,8.48-39.8.58-15.91,1.4-31.82,2.14-47.72.14-2.94,1.17-6.07.49-8.78-2.17-8.58-6.21-16.28-13.11-22.14-3-2.59-4.72-2.18-5.54,1.74a73.56,73.56,0,0,0-1.8,13.71c-.39,19.39-.57,38.78-.72,58.17-.14,18.51-.63,37-4,55.26C148.89,592.57,148.05,601.79,146.89,610.94Zm64.2-344.08-1.66-.24c-2.88,5.95-5.93,11.84-8.61,17.89-3.84,8.68-7.67,17.38-11,26.26-4.11,10.86-7.78,21.89-11.5,32.89-1,2.94.28,5,3,6.64,9.57,5.85,19.1,11.93,28.67,17.93a24.8,24.8,0,0,0,3,1.28c6-34.75,3.77-68.73-1.93-102.65Zm17.93,103c5-2.91,9-5.12,12.93-7.54,5.34-3.32,10.58-6.78,15.86-10.2,7.14-4.62,7.13-4.63,5-13-.19-.75-.37-1.5-.6-2.23A391.77,391.77,0,0,0,233.13,268a14.08,14.08,0,0,1-.66-1.78l-1.77.74c-5,33.92-6.39,68-1.71,102.9Zm48,227v5.47c.69,34.4,1.34,68.8,2.16,103.19a24.9,24.9,0,0,0,2,8.87c1.47,3.46,4.55,4.52,8.33,4,4.14-.62,5.22-3.69,6.08-7,6.2-24,6.53-48.15,3.34-72.61-2.16-16.64-11.14-29.21-21.93-42Zm-4.91.62c-2,4.7-3.62,8.86-5.42,12.95-3.77,8.53-8.54,16.74-11.22,25.59-4.55,15-5.67,30.78-5.92,46.47-.2,12.5,4.54,23.29,12.88,32.51,2,2.24,4.76,4.69,7.58,3,1.8-1.09,3-4.45,3.11-6.84.26-7-.2-14.11-.32-21.16-.25-15.79-.55-31.57-.67-47.36-.13-14.93,0-29.79,0-45.22Zm-101.52.9a24.34,24.34,0,0,0-.46,3.29c-.07,9.5-.07,19-.15,28.5-.19,23.62-.44,47.23-.61,70.85a86.83,86.83,0,0,0,.43,12.28c.79,5.69,4.42,7,8.48,2.84,6.75-6.83,12.46-14.75,13.86-24.33,2.32-16-.18-31.81-3.32-47.65-3.29-16.5-12.69-30.28-18.25-45.84Zm87.3-124.95c-2.6,5.16-5.55,9.61-7.15,14.49-4.35,13.25-6.65,26.7-.63,40.2a10.23,10.23,0,0,1,.71,2.6q4.63,29.06,9.24,58.11c1,6.24,1.94,12.49,2.91,18.73l1.38.07c.92-2.56,2.31-5,2.67-7.68a95.61,95.61,0,0,0,1.3-16.47c-.7-20.08-1.67-40.16-2.77-60.22C265,513,264,502.78,263,492.57,262.36,486.23,262.13,479.77,257.89,473.43Zm-74.34.05c-1.15,2.83-2.08,4.8-2.74,6.86a21.53,21.53,0,0,0-.94,4.91c-1.78,23.16-4,46.3-5.09,69.5-.69,14.2.16,28.48.59,42.71.1,3.39,1.28,6.75,2,10.12l1.32-.1a50.3,50.3,0,0,0,1.24-5.09c1.09-7.36,2.21-14.72,3.1-22.11,2.29-19,5-37.84,10.81-56.17s.94-34.71-10.33-50.63ZM71.79,421.58c.2-8.2-1.85-11.54-11.68-14.07-8.26-2.13-15.45-.95-21.9,4.66a18.41,18.41,0,0,1-3,1.76c-10.12,5.92-11.55,19-2.27,25.95,5.13,3.86,11.24,6.52,17.16,9.18,2.44,1.09,5.53,1.05,8.32,1,5.58-.14,8.34-2.25,9.54-7.68C69.52,435.48,70.55,428.51,71.79,421.58Zm299.23.66c1.15,6.56,2,13.18,3.53,19.66,1.43,6.31,4.61,8.49,11.12,8.21,9.58-.41,17.47-4.77,24.41-11,5.85-5.28,6.7-11.48,2.81-18.39-5.7-10.1-18.53-15.84-29.8-13.31-9.91,2.19-11.84,4.67-12.07,14.82ZM102.46,205a45.21,45.21,0,0,0,20.31-11.81,17.17,17.17,0,0,0,5.79-12.06c.55-9.32,3.73-17.5,12.59-22.42a92.72,92.72,0,0,0,8.11-5.67c-6.07-6.69-16.74-9-24.7-5.24-3.78,1.8-7.09,4.57-10.64,6.85-8.31,5.35-11.82,13.2-11.87,22.8,0,7.84,0,15.67.11,23.51C102.17,202.14,102.34,203.36,102.46,205Zm162,.48a30.58,30.58,0,0,0,5.86-1.73c6.21-3,12.25-6.42,18.42-9.54s9.89-8.36,12.86-14.29c1.37-2.75,2.48-5.64,3.92-8.35s.82-4.29-1.86-5.5q-12.44-5.58-24.81-11.28c-2.84-1.29-4.84-.25-5.86,2.41-1.18,3.1-2.09,6.31-3,9.52-1.24,4.57-2.21,9.21-3.53,13.76-2,7-4.33,13.9-6.3,20.9-.68,2.64.66,4.19,4.33,4.1Zm-82.4-2.27c-.33-1.53-.44-2.16-.6-2.78-3.39-13-6.7-26.11-10.23-39.11-2-7.54-3.89-8.47-10.92-5.4-7.76,3.39-15.36,7.14-23,10.72-1.92.89-2.37,2.24-1.3,4,3.51,5.94,6.83,12,10.68,17.72a19.21,19.21,0,0,0,6.61,5.77C160.06,197.74,167,201,174,204.3a9.26,9.26,0,0,0,4.82,1c1.27-.14,2.38-1.5,3.29-2.14Zm182.83,96.62-1.28-.17c-1.79,5.84-4.15,11.57-5.26,17.53-2.61,14-4.1,28.08,1.26,42.08s12.69,27.1,19.9,40.21a24.84,24.84,0,0,0,2.2,3c-3-17.1-6.09-34.09-8.88-51.13S367.53,316.94,364.89,299.78ZM148.14,558.23a15.39,15.39,0,0,0,0-2.54c-2.67-17.22-.06-34.31,1.21-51.43,1.55-21.05-1-41.48-9.17-61.05-.6-1.43-1.91-2.55-3.25-4.27C132.67,453.23,139.64,544.66,148.14,558.23Zm-42.79-260.1,1.5.14c5.29-5.12,11.08-9.94,11.18-18.3.06-4.47,2.21-8,4.81-11.47a41.12,41.12,0,0,0,5.08-9.35c1.83-4.64,3.07-9.5,4.65-14.24,2.1-6.32,2.72-12.64.42-19.69a26.87,26.87,0,0,0-3.84,2.41c-5.18,4.78-10.41,9.52-15.33,14.56a12.52,12.52,0,0,0-3.23,6.24c-1.93,11.75-3.71,23.54-5.14,35.37-.56,4.72-.1,9.56-.1,14.34Zm203.59-73.27a31.19,31.19,0,0,0-.12,18.35c1.75,5.89,3.63,11.74,5.6,17.56a12.16,12.16,0,0,0,2.56,4.64c4.64,4.58,7.61,9.71,8,16.47.44,7.25,5.4,11.92,11.1,16.31a37.27,37.27,0,0,0,.66-11.44c-1.6-12.84-3.49-25.64-5.33-38.44a10.47,10.47,0,0,0-1.3-4C325,236.05,317,231,308.94,224.87Zm-4.61,214.37c-.2.49-.37,1-.59,1.47-.44.93-1,1.81-1.37,2.76-8.61,20.61-10.67,42.1-8.77,64.18,1.31,15.2,3.28,30.4,1.17,45.7a42.92,42.92,0,0,0,0,5.32C301.89,546.38,310,452.85,304.33,439.23Zm-126-308.17.45,1.4a162,162,0,0,0,34.1.11c1.21-.11,3.13-2.48,3.18-3.85.48-13.47.66-26.95.85-40.42,0-1.08-.4-3-.9-3.11-3.28-.64-6.68-1.42-9.95-1.11s-2.91,3.37-2.9,5.86A66.51,66.51,0,0,1,198,116.57a15.61,15.61,0,0,1-9,8.89c-3.66,1.51-7.08,3.77-10.6,5.62Zm84.87,1.3.32-1.05c-2-1.2-4-2.36-6-3.59-4.27-2.67-9.58-3.91-11.93-9.16-4.18-9.29-7.44-18.77-7.1-29.17.16-4.58-1.48-6-6.3-6s-6.73,1.48-6.68,5.8q.27,19.23.72,38.45c.11,4.32,1.2,5.37,5.66,5.44,8.2.13,16.41.14,24.61.08a63.49,63.49,0,0,0,6.74-.78Zm-99.83,680.4h1.37a20.89,20.89,0,0,0,1.19-4.6c.33-10.23,1.11-20.5.61-30.7-.76-15.08-2.38-30.11-3.81-45.15-.46-4.89-4.43-7.5-9.06-6.47-4,.89-5.33,4.25-3.87,9.19s3.08,9.57,3.84,14.48c3,19.4,5.68,38.85,8.52,58.27C162.41,809.46,163,811.1,163.37,812.76Zm-36.24-619c-4.83,4.18-9,7.73-13.06,11.31a31.42,31.42,0,0,0-8.95,34.32c.95,2.61,2.24,3.22,4.49,1.27,6.56-5.68,13.22-11.24,19.72-17,1-.9,2.1-2.61,1.94-3.78-1.14-8.36-2.6-16.65-4.14-26.14Zm187.54.94c-1.32,7.91-2.42,15.5-3.92,23-.62,3.12.11,5.15,2.77,6.75,7,4.23,13.71,8.86,18.57,15.77,1.92,2.74,3.73,2.09,4.79-1.16,5.48-16.75-4.76-37.62-22.21-44.38Zm-37.3,617.79,1.3-.15a29,29,0,0,0,.75-2.88c2.29-15.59,4.48-31.19,6.85-46.77,1.42-9.31,1.77-18.85,6.37-27.51.94-1.78.92-5.15-.18-6.69-1.91-2.65-5.28-3.5-8.67-2.37-3,1-4.42,3.33-4.6,6.44-1.25,21.74-2.66,43.48-3.62,65.24-.21,4.84,1.16,9.77,1.8,14.67ZM269.94,811h.85c.41-7.1,1.06-14.19,1.17-21.29q.42-28.49.4-57c0-4.77-2.15-6-6.81-5.15a6.61,6.61,0,0,0-5.7,7.1c.31,8.08.32,16.22,1.46,24.2,1.56,10.88,4.2,21.61,6.09,32.45,1.13,6.49,1.71,13.1,2.54,19.67ZM197.12,364.72l.06-1.14c-1.45-1.11-2.75-2.85-4.37-3.23a200.82,200.82,0,0,0-21.76-4.2,11.38,11.38,0,0,0-11.93,6.22c-3.74,7.52-7,15.28-10.38,23-.48,1.09-.35,2.44-.63,4.74C164,379.56,177.89,367,197.12,364.72ZM171.89,810.81l.53.08c3-19,6.08-37.94,8.75-57,.92-6.58.87-13.31.94-20,0-3.8-3.24-6.45-7.12-6.63-4.34-.2-4.51,2.92-4.87,5.89a28.38,28.38,0,0,0-.26,4.22c.31,19,.61,38,1,56.93C171,799.86,171.55,805.33,171.89,810.81ZM245,363.89c1.94.67,2.88,1.08,3.85,1.33a79.85,79.85,0,0,1,31.84,15.59c2.69,2.17,5.55,4.13,8.43,6.06,1.53,1,3.26,1.75,5.42,2.89a15.5,15.5,0,0,0-.35-3.26c-1.59-4.29-3-8.65-5-12.76a125,125,0,0,0-7-12.34c-2.37-3.77-6.12-5.88-10.44-5.28-7.31,1-14.55,2.59-21.75,4.23C248.37,360.7,247.11,362.31,245,363.89Zm-68.5-155.56-.32-1.17c-1.92-.51-3.8-1.17-5.75-1.51a45.31,45.31,0,0,1-17.93-7.42,54.75,54.75,0,0,1-15.62-16.14,13.87,13.87,0,0,0-2.68-2.45c-.78,1-2.09,1.82-2.24,2.86-1.23,8.53-.58,17.07,5.62,23.44,9.72,10,22.8,11.54,35.34,5.25A22.47,22.47,0,0,0,176.45,208.33Zm88.73-.79c5,5,10.7,6.57,16.53,7,20.2,1.49,30.2-12.41,28.54-30.94-.13-1.39-1.61-2.66-2.46-4a33.17,33.17,0,0,0-3.07,3.09c-2.66,3.4-4.7,7.51-7.93,10.2-7.4,6.16-15.48,11.36-25.35,12.88a56.48,56.48,0,0,0-6.26,1.77ZM152.89,361.41l1.35.51c3.47-8.14,11-11.22,17.76-15.32.55-.34,1.06-.73,1.59-1.08,2.43-1.61,3.18-3.78,1.54-6.24-3.33-5-6.51-10.15-10.38-14.72S156.66,321,154,326.38a16.23,16.23,0,0,0-1.93,6.18c-.31,7.14-.35,14.29-.27,21.44A54.5,54.5,0,0,0,152.89,361.41Zm135.39.19c2.77-11.79,4-23.25-.1-34.63a10.31,10.31,0,0,0-2.66-3.7c-2.31-2.17-4.8-2.53-6.9.31q-5.49,7.41-10.79,14.95c-2.07,3-1.52,5.45,1.68,7.3C276.62,350,283.8,354,288.3,361.6ZM263,800.69l-1.78.32c.72,9.15,1.38,18.31,2.16,27.45.29,3.34,2.37,4.94,5.66,5.06,3.71.14,7.43.35,11.14.41,5.54.09,6.59-.63,7-6.26.63-9.71.92-19.45,1.31-29.17a8.42,8.42,0,0,0-.42-2.1l-1-.34c-1,2.19-2.4,4.3-3.06,6.6-1,3.56-1.53,7.27-2.3,10.9-.64,3-2.17,5.16-5.51,5.55s-6.58-.26-8.29-3.49a49.82,49.82,0,0,1-3.05-8.11c-.76-2.28-1.25-4.55-1.84-6.82Zm111.7-402.12c-.79-1.71-1.28-2.85-1.84-3.95-2.87-5.7-6.11-11.24-8.56-17.12-3.2-7.69-5.86-15.61-8.61-23.48-3.89-11.14-7.57-22.36-11.52-33.48-2-5.53-8-10.68-13.43-8.16C331.78,321.23,367.67,392.06,374.68,398.57ZM180.59,800.89l-1.5-.27c-.55,1.65-1.22,3.27-1.64,5-.74,3-1,6.1-2,9-1.37,3.75-4.52,4.92-8.38,4.65s-6.19-2.08-6.91-5.92c-.63-3.4-1.1-6.86-2-10.17a49.76,49.76,0,0,0-3.1-6.91l-1.21.39c-.07,1.21-.22,2.42-.18,3.62q.4,12.48.89,25c.06,1.53.34,3,.54,4.57.37,2.9,2,4.29,4.94,4.21,4.1-.11,8.19-.28,12.29-.29,3.64,0,6-1.52,6.27-5.26C179.26,819.23,179.89,810.05,180.59,800.89ZM347.18,288.36c6.22-5.36,3.91-42.44-3.82-54.63-2.36,5.2-4.53,9.75-6.52,14.39a17.83,17.83,0,0,0-.51,13.86c3.16,8.22,6.29,16.46,9.49,24.68A7.7,7.7,0,0,0,347.18,288.36ZM69.51,397.3c14.48-27.88,31.74-54.58,42.24-85a15.06,15.06,0,0,0-2.81-.57c-5.32.17-8.4,3.17-10.14,8C94.38,332,90,344.34,85.4,356.55,80.24,370.15,74.82,383.7,69.51,397.3Zm182.28,73.17c-.8-.23-1.6-.42-2.42-.57-3.68-.48-7.36-1.11-11.07-1.33-8.88-.53-10.45.64-8.85,9.42,2.58,14.11,6.1,28,9.26,42,.1.45.55.82.84,1.22C235,502.3,242,486.35,251.79,470.47ZM94.34,288.4l1.39-.07a23.36,23.36,0,0,0,1.71-3.15c2.35-6.38,4.24-13,7-19.15,5.35-12-.61-21.52-6.07-32.5-.91,3.26-1.61,5.42-2.1,7.64-2.91,13-5.62,26.12-4.26,39.6C92.28,283.36,93.54,285.86,94.34,288.4Zm96,181.49c10.95,16.15,15.55,32.46,12.32,50.75a226.34,226.34,0,0,0,7-24.79c1.48-7,2.3-14.18,3.17-21.31.36-3-.2-6.06-4.17-5.93-5.88.19-11.7.79-18.32,1.28ZM373,307.23l-1.49-.08c-.18,1.91-.69,3.87-.48,5.74,1.91,16.94,3.81,33.89,6,50.81a87.57,87.57,0,0,0,8.75,29.36,95,95,0,0,0,5.74,8.58l.93-.55C382,370.59,379.27,338.51,373,307.23ZM306.89,839.42c0-.54-.06-1.07-.1-1.61-1-.54-2.1-1.56-3.13-1.54-11.66.23-23.33.47-35,1-3.73.18-6.63,4.31-5.93,7.88.79,4,4.24,3.29,6.85,3,8.78-1.08,17.58-2.15,26.24-3.91C299.65,843.48,303.18,841.08,306.89,839.42Zm-170.8-1.91v1.88c4.32,1.75,8.5,4.17,13,5.11q12.24,2.4,24.66,3.58c2,.21,5.79-1.14,5.81-1.87a15.25,15.25,0,0,0-2-7.78c-.63-1.09-3.21-1.4-4.92-1.46q-16.11-.54-32.23-.73c-1.52,0-2.93.83-4.36,1.27ZM200,520h-.73c-1,4.74-1.86,9.49-2.93,14.2-2.73,12.11-6.32,24.08-8.09,36.33-1.54,10.72-1,21.74-1.51,32.62-.23,4.71-.87,9.39-1.32,14.09l1.09.18c1.65-7.71,4-15.35,4.82-23.14,1.94-19,3.33-38,8.44-56.58C201.27,532.23,200,526,200,520Zm43.38-.14c-2.69,8.28-1.21,16.13.64,24.08,2.06,8.86,3.93,17.79,5.2,26.78s1.38,17.92,2.51,26.82c.86,6.73,2.53,13.36,3.83,20-.11-12.33-.79-24.47-1.47-36.62-.28-5,0-10.09-.9-14.94C250.19,550.71,246.71,535.45,243.37,519.9ZM21.22,487.72c4.48.27,6.09-1.91,7.32-4.6l12.63-27.54c.86-1.9,2.61-4-.8-5.27-3.65-1.42-6.22-.65-7.27,2.24-3.37,9.28-6.8,18.53-10.09,27.83A73.38,73.38,0,0,0,21.22,487.72ZM354.89,289c-8.85,6.33-12.16,11.8-11.62,18.62.49,6,2.21,11.58,7.24,16.53C357.44,312.54,351.71,300.23,354.89,289Zm-266.11-.57c0,9.07-.22,18,.13,26.94.11,2.79,1.75,5.52,3,9.17,5.81-6.05,7.36-12.28,7.64-18.9.34-8.43-7.86-11.36-10.76-17.21ZM422,486.38c-1.69-3.57-3.06-6-4-8.58-3.14-8.39-6.14-16.83-9.17-25.26-1-2.91-2.94-3.56-6.42-2.28-2.69,1-2.11,2.62-1.25,4.59,4.11,9.38,8,18.84,12.31,28.14.87,1.9,2.86,3.44,4.66,4.67C418.7,488.06,420.31,487,422,486.38Zm9.42-10.24,1.58-.56c-.53-2.37-.57-5-1.68-7.05-4.43-8.22-9.17-16.3-13.89-24.3-1.45-2.47-4-2.48-6.87-.27-2.28,1.75-1.41,3.54-.06,5.31l16.59,21.65c1.39,1.75,2.89,3.47,4.33,5.22Zm-422.3-.22,1.37.62a41.41,41.41,0,0,0,3.71-3.9Q23,460.81,31.71,448.86c1.71-2.35,1.28-4.17-1.41-5.58-2.89-1.5-4.82-1.28-6.51,1.9-4.5,8.45-9.37,16.71-13.86,25.18C9.11,471.92,9.36,474.05,9.12,475.92Zm42.35-21c-.85-.51-2-1.7-3-1.67s-3.08,1.08-3.22,1.93c-1.73,10.09-3.25,20.22-4.64,30.36-.16,1.12.84,2.39,1.3,3.59,1.12-1,2.78-1.88,3.23-3.14A63.25,63.25,0,0,0,47,477.38c1.41-7.15,2.86-14.3,4.44-22.44Zm365.75-38.69-1.83,1.06c2.63,5.59,4.81,11.43,8,16.67,2.56,4.21,6.23,7.92,11.53,8.87,1.29.23,2.76-.54,4.15-.85-.51-1.75-.73-3.65-1.62-5.17-.56-1-2.26-1.19-3.19-2a89.57,89.57,0,0,1-7.32-7C423.58,424,420.45,420.08,417.22,416.23ZM58.68,478.77l1.93.1C66,470.63,62,461,64.17,452.24c-6.14-.18-6.67.26-6.72,5.36,0,3.19-.14,6.4.06,9.58C57.75,471.05,58.27,474.9,58.68,478.77Zm320.56-26.69c-1.64,9.1.23,24,3.65,26.87a27.38,27.38,0,0,0,1-4.55c.22-5.74.13-11.5.48-17.23C384.61,453.23,382.83,451.88,379.24,452.08Z" fill="#bdbdbd"/>
    <path d="M396.48,483.09q-2.52-11.58-5.05-23.16c-.24-1.13-.8-2.34-.58-3.38s1-2.89,1.92-3.16c1.75-.53,4.31-1.41,4.79,1.83Q399.85,470.61,402,486a14.18,14.18,0,0,1-.46,3.37l-3.46-1C397.56,486.63,397,484.86,396.48,483.09Z" fill="#3f3f3f"/>
    <path d="M71.79,421.58c-1.24,6.93-2.27,13.9-3.78,20.77-1.2,5.43-4,7.54-9.54,7.68-2.79.08-5.88.12-8.32-1-5.92-2.66-12-5.32-17.16-9.18-9.28-7-7.85-20,2.27-26a18.41,18.41,0,0,0,3-1.76c6.45-5.61,13.64-6.79,21.9-4.66C69.94,410,72,413.38,71.79,421.58Z" fill="#3f3f3f"/>
    <path d="M371,422.23c.23-10.16,2.16-12.64,12.07-14.86,11.27-2.53,24.1,3.21,29.8,13.31,3.89,6.91,3,13.11-2.81,18.39-6.94,6.26-14.83,10.62-24.41,11-6.51.28-9.69-1.9-11.12-8.21S372.17,428.8,371,422.23Z" fill="#3f3f3f"/>
    <path d="M263,800.69c.59,2.27,1.08,4.58,1.81,6.82a49.82,49.82,0,0,0,3.05,8.11c1.71,3.23,4.85,3.89,8.29,3.49s4.87-2.54,5.51-5.55c.77-3.63,1.28-7.34,2.3-10.9a43.19,43.19,0,0,1,3.06-6.6l1,.34a8.42,8.42,0,0,1,.42,2.1c-.39,9.72-.68,19.46-1.31,29.17-.37,5.63-1.42,6.35-7,6.26-3.71-.06-7.43-.27-11.14-.41-3.29-.12-5.37-1.72-5.66-5.06-.78-9.14-1.44-18.3-2.16-27.45Z" fill="#3f3f3f"/>
    <path d="M180.59,800.89c-.69,9.16-1.33,18.32-2.08,27.48-.31,3.74-2.63,5.26-6.27,5.26-4.1,0-8.19.18-12.29.29-2.93.08-4.57-1.31-4.94-4.21-.2-1.52-.48-3-.54-4.57q-.5-12.48-.89-25c0-1.2.11-2.41.18-3.62l1.21-.39a49.76,49.76,0,0,1,3.1,6.91,94.36,94.36,0,0,1,2.05,10.17c.72,3.84,3.07,5.66,6.91,5.92s7-.9,8.38-4.65c1-2.85,1.3-6,2-9,.42-1.68,1.09-3.3,1.64-5Z" fill="#3f3f3f"/>
    <path d="M306.89,839.42c-3.67,1.66-7.2,4.06-11.05,4.83-8.66,1.76-17.46,2.83-26.24,3.91-2.61.32-6.06,1.06-6.85-3-.7-3.57,2.2-7.7,5.93-7.88,11.65-.57,23.32-.81,35-1,1,0,2.09,1,3.13,1.54A9.59,9.59,0,0,0,306.89,839.42Z" fill="#3f3f3f"/>
    <path d="M136.05,837.51c1.43-.44,2.87-1.29,4.29-1.27q16.11.19,32.23.73c1.71.06,4.29.37,4.92,1.46a15.25,15.25,0,0,1,2,7.78c0,.73-3.86,2.08-5.81,1.87q-12.41-1.17-24.66-3.58c-4.49-.94-8.67-3.36-13-5.11C136,838.77,136,838.14,136.05,837.51Z" fill="#3f3f3f"/>
    <path d="M58.68,478.77c-.41-3.87-.93-7.72-1.17-11.59-.2-3.18-.09-6.39-.06-9.58,0-5.1.58-5.54,6.72-5.36C62,461,66,470.63,60.61,478.87Z" fill="#3f3f3f"/>
    <path d="M422,486.38c-1.69.59-3.3,1.68-3.9,1.28-1.8-1.23-3.79-2.77-4.66-4.67-4.28-9.3-8.2-18.76-12.31-28.14-.86-2-1.44-3.6,1.25-4.59,3.48-1.28,5.37-.63,6.42,2.28,3,8.43,6,16.87,9.17,25.26C418.94,480.38,420.31,482.81,422,486.38Z" fill="#3f3f3f"/>
    <path d="M431.42,476.14c-1.44-1.75-2.94-3.47-4.33-5.27q-8.32-10.8-16.59-21.65c-1.35-1.77-2.22-3.56.06-5.31,2.91-2.21,5.42-2.2,6.87.27,4.72,8.07,9.45,16.13,13.89,24.35,1.11,2.05,1.15,4.68,1.68,7.05Z" fill="#3f3f3f"/>
    <path d="M51.47,454.94c-1.62,8.14-3,15.3-4.47,22.46A63.25,63.25,0,0,1,45.11,486c-.45,1.26-2.11,2.1-3.23,3.14-.46-1.2-1.46-2.47-1.3-3.59,1.39-10.14,2.91-20.27,4.64-30.36.14-.85,2.09-1.9,3.22-1.93S50.62,454.43,51.47,454.94Z" fill="#3f3f3f"/>
    <path d="M379.24,452.08c3.59-.2,5.37,1.13,5.12,5.09-.35,5.73-.26,11.49-.48,17.23a27.38,27.38,0,0,1-1,4.55C379.47,476.13,377.6,461.23,379.24,452.08Z" fill="#3e3e3e"/>
    <path d="M163,702.76V657.31c.48,1.37,1.37,2.73,1.38,4.1q.17,18.63,0,37.25C164.38,700,163.5,701.39,163,702.76Z" fill="#c2c2c2"/>
    <path d="M287.12,532.23v9.15h-.69c-.07-1-.18-2.08-.18-3.11v-54.1a38.13,38.13,0,0,1,.65-4.88Q287,505.78,287.12,532.23Z" fill="#2c2c2c"/>
    <path d="M338.65,204.84V176.71a40.44,40.44,0,0,1,.63-4.91c.05,10.62.11,21.24.12,31.86C339.43,204.05,338.89,204.44,338.65,204.84Z" fill="#2a2a2a"/>
  </g>
</svg>
