<svg id="a3ea69f7-c008-49ec-82fb-d7842ebf6f14" data-name="MuscleMap-Male" xmlns="http://www.w3.org/2000/svg" viewBox="0 0 453.52 859.84">
  <g>
    <g id="a0acd132-dd4f-4342-b57b-9aca1be603de" data-name="chest">
      <path d="M228.5,191.74c-.69,7.79-1.19,15.6-2.13,23.35-.72,5.86-3.89,10.1-8.83,13.7-14.74,10.72-37.78,8.15-50.41-2.2-3.82-3.12-6.47-8.33-8.28-13.11-4.45-11.7-4.43-23.86-1.43-36,1.6-6.43,6-10.52,11.34-14.35,12.82-9.18,27.09-8.26,41.46-7.14,5.71.45,10,3.63,12.69,8.8C227.33,173.28,228.32,182.38,228.5,191.74Z"/>
      <path d="M265.78,155.32c11.83-1.49,22,2.88,31.43,9.24A20.61,20.61,0,0,1,306,176.35,61.66,61.66,0,0,1,304.16,216c-4.4,11.24-13.62,15.94-24.68,18.46-12.79,2.92-24.62.93-35-7A18.57,18.57,0,0,1,238,217c-2.28-13-3.59-26.23-1.27-39.41a57.62,57.62,0,0,1,4.05-12.35c2.49-5.82,7.34-8.74,13.51-9.37C258.08,155.52,261.94,155.5,265.78,155.32Z"/>
    </g>
    <g id="b5c66c9b-27fe-4303-97b7-981f758922a0" data-name="shoulders">
      <path d="M313.13,181.15c.27-12.89-3.62-17.7-16.19-21.83-1.78-.58-3.32-1.88-5-2.85,1.46-1.93,2.52-4.63,4.45-5.66,15.13-8,25.56-6.8,38.39,4.48a86.46,86.46,0,0,1,12.68,13.33c5.52,7.57,5.27,21.77-1.29,28.4-3.75,3.8-7.62,7.52-11.72,10.93-3,2.5-5.84,1.63-8.31-1.38-1.94-2.36-4.2-4.46-6.36-6.62A23.54,23.54,0,0,1,313.13,181.15Z"/>
      <path d="M112.51,182.69c.1-7.1,1.9-13.12,6.83-17.83s9.56-9.79,15.07-13.64c12.47-8.71,23.85-6.27,34.56.36,1.39.86,2.38,3.07,2.62,4.79.1.7-2.18,1.94-3.55,2.61-2.29,1.12-4.75,1.9-7.09,2.94-7.47,3.36-11.27,8.83-10.53,17.35.61,7-.1,13.9-5.37,19.42-2.91,3-5.61,6.33-8.78,9.08a6,6,0,0,1-5.12,1C122.72,205.18,111.83,194,112.51,182.69Z"/>
    </g>
    <g id="aab96977-8c00-4c01-a0c0-ae0371c8182a" data-name="biceps">
      <path d="M103.87,263.52c.33-12.31,1.11-23.88,7.73-34a79.17,79.17,0,0,1,9-11.32c3.78-4,7.69-3,9.87,2.17,2.28,5.35,3.25,11.1,1.62,16.59-2.8,9.42-6.23,18.67-9.73,27.86-2.16,5.66-7.37,8-12.72,9.63-4.25,1.3-5.7,0-5.79-4.32V269Z"/>
      <path d="M360,264.21v6.93c0,2.88-1.6,4.12-4.15,3.65-5-.93-9.92-2.76-12.69-7.21-6.65-10.69-11.12-22.3-11.82-35a32.56,32.56,0,0,1,1.74-11.29c2-6.32,6.2-7.09,10.92-2.47a50,50,0,0,1,15.08,31.57c.47,4.59.75,9.2,1.11,13.8Z"/>
      <path d="M148.31,201.9c3.5,9.76,6.24,19.65,3.11,30.16-2,6.88-3.75,14-6.75,20.44-5.5,11.8-10.47,24-19.06,34.08-3.52,4.15-5.93,3.95-8.39-.77a4.1,4.1,0,0,1,.08-3.06c7.06-17.32,14.5-34.49,21.19-52,3.23-8.44,5.07-17.42,7.57-26.15a26.51,26.51,0,0,1,1.14-2.75Z"/>
      <path d="M316.8,201.67c.64,2.5,1.3,4.89,1.87,7.3,3.84,16.37,9.72,32.06,16.18,47.54,3.36,8,7,16,10.4,24,.59,1.38,1.53,3.06,1.19,4.28-.48,1.69-1.73,3.72-3.2,4.36-1,.44-3.5-.78-4.41-2a112.73,112.73,0,0,1-9.12-13.28,190.29,190.29,0,0,1-17.09-40.57c-3-10.47-1-20.27,2.35-30.1a3,3,0,0,1,.58-1A10.3,10.3,0,0,1,316.8,201.67Z"/>
    </g>
    <g id="bdd5d270-f72e-493c-8f37-e3e543628bdf" data-name="forearms">
      <path d="M104.81,292.52c.5,18.43-4.83,35.42-12.09,52.09-6.8,15.62-12.89,31.55-19.37,47.31a107.79,107.79,0,0,1-5,10.39c-.52.94-1.92,1.39-2.91,2.06-.47-1.09-1.48-2.27-1.32-3.27.94-6,2.12-12,3.28-18q5.37-27.6,10.78-55.17a13.21,13.21,0,0,0,.29-3.07c-.64-16.55,7.76-29.35,17.46-41.52,1.49-1.86,4.06-2.86,6.13-4.26a59.36,59.36,0,0,1,2.36,7A40.8,40.8,0,0,1,104.81,292.52Z"/>
      <path d="M359.06,291.48c.14-1.81.19-5.16.7-8.44.73-4.73,2.4-5.37,5.88-2,3.09,3,6.24,6.27,8.31,10,4.89,8.77,10.2,17.18,11.28,27.87,1.56,15.39,4.64,30.65,7.44,45.9,2,11,4.74,21.77,6.83,32.7.4,2.11-.67,4.5-1.05,6.77-1.58-1.64-3.75-3-4.62-5-3.24-7.26-6-14.73-9-22.08C379,363.1,373.5,348.88,367.27,335,361.22,321.58,359.55,307.46,359.06,291.48Z"/>
      <path d="M388.51,403.64a22.11,22.11,0,0,1-2.83-3.35,67.54,67.54,0,0,1-3.45-7.3,407.74,407.74,0,0,0-26.48-53.69c-4.75-8-7.58-17.26-10.64-26.17-1.11-3.23-.63-7.12-.37-10.67.11-1.44,1.73-4,2.38-3.94,2,.28,4.51,1.1,5.77,2.59s1.95,4.19,2.27,6.44c2,13.79,7.85,26.16,13.29,38.78,7.29,16.92,13.78,34.2,20.52,51.35.65,1.65.64,3.56.94,5.35Z"/>
      <path d="M74,403.12c.21-1.65.1-3.42.66-4.94,5-13.61,10-27.21,15.15-40.73,1.6-4.16,3.81-8.08,5.8-12.09,6-12.11,11-24.53,13.07-38,.33-2.24.91-4.82,2.32-6.41s3.8-2.1,5.88-2.4c.55-.08,2,2.37,2.14,3.77.78,6-.5,11.68-2.26,17.6-5.32,18-18.16,32.11-24.65,49.47-3.22,8.6-7.37,16.86-11.23,25.21-1.46,3.15-3.29,6.13-5,9.19Z"/>
      <path d="M122.2,307.19c4.73,3.74,5.29,4.76,3.08,9.44-5.09,10.77-10.5,21.38-15.8,32-4.16,8.39-8.39,16.75-12.52,25.15-4.74,9.65-9.4,19.35-14.12,29a7.08,7.08,0,0,1-2.58,3c.48-1.58.89-3.18,1.45-4.72,6.9-19.08,14.93-37.55,26.13-54.66,7.17-10.94,12.47-23,13.79-36.33C121.71,309.31,122,308.48,122.2,307.19Z"/>
      <path d="M383,406.21c-.58-.94-1.23-1.83-1.72-2.82-4.83-9.87-9.49-19.84-14.48-29.64-6.74-13.22-13.87-26.25-20.54-39.51-3.16-6.29-5.78-12.86-8.38-19.42-1.27-3.19-.35-4.64,3.55-7.17a6.73,6.73,0,0,1,.69,1.72c1.6,15.75,8.39,29.37,17.23,42.17a46.53,46.53,0,0,1,4.51,7.6c6.44,14.77,12.73,29.61,19,44.43a21.7,21.7,0,0,1,.71,2.38Z"/>
    </g>
    <g id="b578646a-b52e-4bdd-997b-975443044472" data-name="traps">
      <path d="M176.51,147.89l27.63-18.66c0,4.32.16,7.94,0,11.54a23.85,23.85,0,0,1-1.32,7.15c-.5,1.27-2.3,3-3.42,2.92-7.13-.43-14.23-1.28-21.33-2.06C177.47,148.72,177,148.17,176.51,147.89Z"/>
      <path d="M260,129.44l27.62,18.69c-2.25.68-4.19,1.59-6.21,1.8a146.64,146.64,0,0,1-15.66,1c-1.49,0-3.88-1-4.35-2.23C259,142.71,259.41,136.38,260,129.44Z"/>
    </g>
    <g id="f1d67652-b1b9-45a9-8daa-223939486408" data-name="abs">
      <path d="M229.12,285.21v11.54c0,3.05-1.38,5.13-4.44,5.16q-13.62.15-27.24-.28c-.9,0-2.44-1.83-2.51-2.89-.61-9.38,1.69-17.18,11.37-21.28,5.77-2.45,11.2-5.67,16.82-8.45,3.11-1.54,5.59-.16,5.82,3.52.27,4.21.06,8.45.06,12.68Z"/>
      <path d="M234.59,285.24c0-4-.22-8,0-11.93.33-4.78,2.79-6,7-3.79,6,3.13,12.2,6,18.11,9.37a18.73,18.73,0,0,1,9.12,20.62,3.47,3.47,0,0,1-2.51,2.16c-9.09.22-18.19.33-27.28.25-3.35,0-4.56-2.46-4.58-5.52V285.24Z"/>
      <path d="M214,333.49c-5.25-.4-10.13-.6-14.95-1.26-1.37-.19-3.4-1.49-3.69-2.64-1.48-6-4.2-12-1.12-18.27.45-.92,1.23-2.21,2-2.34q14.17-2.4,28.42-4.45c3.58-.52,5.22,1.25,5.09,4.87-.25,6.66-.37,13.33-.62,20-.11,3-1.71,4.28-4.76,4.14C220.82,333.37,217.22,333.49,214,333.49Z"/>
      <path d="M249.49,333.49c-3.06,0-6.65-.11-10.24,0-2.86.12-4.5-1.12-4.59-3.9-.24-7.3-.46-14.6-.3-21.9,0-1.08,2.18-3,3.37-3a88.16,88.16,0,0,1,13.78.83c4.81.67,9.52,2,14.32,2.86,2.56.44,4,1.5,3.92,4.19-.21,5.11-.39,10.22-.73,15.32-.2,2.84-1.93,4.34-4.79,4.53Z"/>
      <path d="M228.32,426.47c-10.23-1.62-15.64-7.85-19.29-16.17-5.85-13.29-8.7-27.38-10.85-41.61-1.37-9.12-2.16-18.34-3.22-27.52-.27-2.32.14-4.35,3-4.25,8.83.31,17.66.67,26.48,1.25,3.94.27,5.57,2.53,5.49,6.75-.47,25-.68,50.06-1,75.09C228.86,422.14,228.52,424.27,228.32,426.47Z"/>
      <path d="M234.45,340.74a28.61,28.61,0,0,1,.6,4.12q.06,20.1,0,40.21a25.94,25.94,0,0,1-.66,4.1q-.15-23.09-.29-46.16A13.39,13.39,0,0,1,234.45,340.74Z"/>
      <path d="M195.49,279.18c-4.32-9.78-5.77-19.2-4.21-29.09a8.36,8.36,0,0,1,4.59-6.66c7.69-3.81,15.32-7.78,23.19-11.21,5.06-2.21,8.07-.5,8.74,4.93a189.29,189.29,0,0,1,1,19.19c.06,3-1.61,5-4.49,6.48-6.91,3.65-13.53,7.82-20.3,11.74C201.38,276.08,198.66,277.47,195.49,279.18Z"/>
      <path d="M268.27,279.28c-4.51-2.57-8.51-4.83-12.5-7.11-5.78-3.3-11.68-6.43-17.24-10.06a7.9,7.9,0,0,1-3.33-5.45,143.42,143.42,0,0,1,.81-19.55c.61-5.3,3.53-7,8.37-4.94,8,3.43,15.88,7.2,23.5,11.39,2.11,1.16,3.94,4.15,4.47,6.61C274.47,260,272.35,269.4,268.27,279.28Z"/>
      <path d="M234.45,340.74c2.52-1.05,5-2.82,7.57-3,7.67-.62,15.38-.64,23.08-.86,3-.09,4.1,1.33,3.82,4.32-1.91,20.35-4.37,40.61-10.73,60.17a81.43,81.43,0,0,1-4,10c-4.51,9.46-7.66,12-18.6,15.41-1.45-12.58-1.35-25.08-1.21-37.58a25.94,25.94,0,0,0,.66-4.1q.08-20.1,0-40.21A29,29,0,0,0,234.45,340.74Z"/>
      <path d="M195.49,279.18c-4.32-9.78-5.77-19.2-4.21-29.09a8.36,8.36,0,0,1,4.59-6.66c7.69-3.81,15.32-7.78,23.19-11.21,5.06-2.21,8.07-.5,8.74,4.93a189.29,189.29,0,0,1,1,19.19c.06,3-1.61,5-4.49,6.48-6.91,3.65-13.53,7.82-20.3,11.74C201.38,276.08,198.66,277.47,195.49,279.18Z"/>
    </g>
    <g id="a8466829-f777-4f6f-8576-567240163209" data-name="obliques">
      <path d="M305.33,223.15c1.61,6.94-.38,11.85-5.86,14.41a82.32,82.32,0,0,1-11.5,4.19c-1.16.33-2.67-.53-4-.85.63-1.52.85-3.54,2-4.48,2.13-1.78,4.87-2.8,7.18-4.4,3.22-2.25,6.27-4.76,9.42-7.13A30.42,30.42,0,0,1,305.33,223.15Z"/>
      <path d="M158.5,223.29a27.65,27.65,0,0,1,2.58,1.37c5.22,3.62,10.42,7.28,15.62,10.93.83.58,2,1,2.38,1.81a6.55,6.55,0,0,1,.45,3.88c-.1.44-2.11.94-3,.64a123,123,0,0,1-14.24-5.54C158.46,234.45,157.11,229.08,158.5,223.29Z"/>
      <path d="M156.7,249.81c3.44,4.15,6.54,7.38,9,11.07.93,1.41.59,3.9.29,5.82a63.89,63.89,0,0,1-2.16,7.68C157.87,267.07,155.79,259.43,156.7,249.81Z"/>
      <path d="M299.74,274c-.84-3.56-1.76-6.84-2.31-10.18a5.07,5.07,0,0,1,1-3.51c2.56-3.33,5.34-6.49,8.07-9.76C309.22,255,305.48,269.56,299.74,274Z"/>
      <path d="M278,288.82c-2.55-8.05-.81-13.25,5-17.09,3.29-2.17,6.57-4.36,10.29-6.83,1.35,3.06,2.68,5.87,3.78,8.76a2.56,2.56,0,0,1-.53,2.36C290.59,280.27,284.5,284.4,278,288.82Z"/>
      <path d="M278.34,245.53c4.53,4.1,9.12,8.13,13.5,12.37a3.25,3.25,0,0,1-.07,3.22c-3.81,3.39-7.77,6.64-11.84,9.72-1.64,1.24-3.11.43-3.14-1.64-.09-7.64,0-15.29,0-22.93Z"/>
      <path d="M170.43,264.85c4.84,3.24,9.43,5.89,13.44,9.23,1.56,1.31,2.19,4.1,2.6,6.33s.1,4.81.1,8a31.76,31.76,0,0,1-4.14-1.93c-4.91-3.27-9.82-6.54-14.56-10.05a4,4,0,0,1-1-3.56A75.52,75.52,0,0,1,170.43,264.85Z"/>
      <path d="M187.19,246.41c0,7.26.08,14.53,0,21.79-.06,3.3-1.42,4.1-4,2.22a115.63,115.63,0,0,1-10.61-8.77c-.74-.67-1.17-3-.68-3.49,4.39-4.33,9-8.43,13.59-12.59Z"/>
      <path d="M285.43,247.45c7.51-4.71,17-4.36,21.24-12.86l1.07.28c0,1.85.58,4-.11,5.51-2.22,5-4.86,9.82-7.44,14.66-1,1.85-2.77,2.62-4.47,1.28C292.25,253.61,289,250.59,285.43,247.45Z"/>
      <path d="M156.29,234.82c5,8.07,14.29,8,22.25,12.56-3.87,3.23-7.3,6.26-11,9a3.44,3.44,0,0,1-3.21-.61c-3-5.44-5.91-11-8.53-16.61C155.32,238,156.11,236.29,156.29,234.82Z"/>
      <path d="M165.88,277.47l9.94,7.61c1.12.85,2.27,1.67,3.38,2.54,2.57,2,6.78,3.68,7.35,6.16,1.16,5.05.35,10.56.35,15.87l-1,.46c-4.86-4.26-9.45-8.9-14.65-12.7C164.36,292.36,164.52,285.74,165.88,277.47Z"/>
      <path d="M298.14,278c.49,7.15,1.75,13.74-5,18.77-5.29,4-10,8.72-15.91,14-.77-6.61-1.2-12-.14-17.54.1-.53.74-1,1.23-1.4q8.34-6.18,16.71-12.29A21.93,21.93,0,0,1,298.14,278Z"/>
      <path d="M166.59,296.44c3.83,3.24,6.56,6.24,9.89,8.23,8.74,5.25,12.19,12.56,10.12,22.53a37.45,37.45,0,0,0-.27,4.49c-3.78-2.4-6.94-4.43-10.12-6.43-8.46-5.33-12.2-12.72-10.13-22.75A56,56,0,0,0,166.59,296.44Z"/>
      <path d="M277.69,331.09c-.22-1-.29-1.4-.37-1.76-2.41-11.08.76-19.62,10.93-25.43,3.08-1.75,5.55-4.6,8.29-6.95l1,.57V314.6a2.34,2.34,0,0,1-.41,1.45C291.65,322.18,285.82,327.79,277.69,331.09Z"/>
      <path d="M297.85,320c.7,6.1,1.46,11,1.78,16,.47,7.56.55,15.14,1,22.7a8.22,8.22,0,0,1-2.66,6.83c-5.6,5.63-10.81,11.66-16.64,17-2.38,2.2-5.84,3.43-9,4.45-2,.65-3.29-1.12-2.24-3.06,4.21-7.83,3.23-16.49,4.22-24.82.74-6.24,1.12-12.52,1.52-18.8.17-2.68,1.36-4.33,3.56-5.91,4.88-3.51,9.48-7.42,14.2-11.16C294.62,322.33,295.73,321.54,297.85,320Z"/>
      <path d="M166.47,320.37c1.63,1.2,2.76,2,3.83,2.83,4.62,3.66,9.07,7.55,13.88,10.92a8.09,8.09,0,0,1,3.91,6.54c.86,11.25,1.71,22.51,2.89,33.73a38.43,38.43,0,0,0,2.71,9.51c.95,2.5-.42,3.49-2.18,3-2.88-.75-6.12-1.68-8.19-3.63-6.32-6-12.2-12.42-18.15-18.77a5.87,5.87,0,0,1-1.78-3.61c.57-12.29,1.32-24.57,2.07-36.85A23.18,23.18,0,0,1,166.47,320.37Z"/>
    </g>
    <g id="fe2e8bc4-f3c8-4b3a-9587-e790e00dbcdd" data-name="quads">
      <path d="M170,389.56c.93,1.89,1.52,3,2,4.09,6.73,15.68,13.09,31.53,20.23,47,9,19.6,14.76,40.14,18.57,61.25,2.67,14.75,3.29,29.58-.41,44.32-.25,1-.57,1.92-1.14,3.87C200.39,495.18,183.28,443.32,170,389.56Z"/>
      <path d="M293.62,390.32c-13.11,53-30.21,104.82-39.74,159-.88-5.43-2.15-10.84-2.56-16.31-1.54-20,2.39-39.37,8-58.43a262.51,262.51,0,0,1,8.9-26.64c7.93-19.06,16.43-37.87,24.72-56.77A3.49,3.49,0,0,1,293.62,390.32Z"/>
      <path d="M290.74,381.64c-1.12,2.68-2.2,5.38-3.37,8-4.86,11-10,21.94-14.57,33.1-5.87,14.47-11.23,29.15-16.89,43.7-.52,1.32-1.77,3.46-2.43,3.37a6.43,6.43,0,0,1-3.94-2.54,83,83,0,0,1-4.85-8.69,2.21,2.21,0,0,1,0-1.48c5.12-17.4,11.22-34.42,21.43-49.57C272.8,397.68,280.49,388.62,290.74,381.64Z"/>
      <path d="M173.74,380.67c3.59,3.41,7.4,6.64,10.75,10.28,17.26,18.73,28,40.85,33.83,65.52.76,3.24-3.47,11.72-6.44,13.21-2.28,1.14-3-.37-3.59-2-2.41-6.63-4.54-13.37-7.25-19.88-8.12-19.49-16.48-38.89-24.74-58.33-1.17-2.75-2.26-5.54-3.39-8.31Z"/>
      <path d="M269.29,602.49a5.89,5.89,0,0,1,0-.84c.73-13.09,2.19-12.09,11.84-13a102.25,102.25,0,0,1,10.35-.59c6.35.06,9.32,2.92,8.36,9.07-.87,5.6-2.9,11-4.54,16.49a88.69,88.69,0,0,1-3.1,8.68c-3.16,7.5-9.08,8.55-14.69,2.69C273.13,620.44,269.72,611.35,269.29,602.49Z"/>
      <path d="M194.23,602c-.59,8.12-1.94,16.09-7.47,22.52-5.75,6.67-12.32,5.59-15.3-2.64A212.23,212.23,0,0,1,164,598.13c-1.58-6.8,1.73-10.14,8.85-10,4.36.06,8.72.44,13.06.88,6,.6,7.64,2.29,8.27,8.39A44.12,44.12,0,0,1,194.23,602Z"/>
      <path d="M195.81,512.18c8,16.57,11.3,33.81,9,52-.68,5.32-.81,10.72-1.43,16.05-.18,1.49-.88,3.6-2,4.1s-3.22-.35-4.29-1.3c-3.44-3-5.93-6.71-5.22-11.71,1.06-7.45,2.58-14.89,3-22.38.68-11.11.61-22.26.85-33.39C195.83,514.42,195.81,513.3,195.81,512.18Z"/>
      <path d="M268.27,510.9a78.64,78.64,0,0,0-.55,8.54c.62,13,1.26,26.08,2.15,39.1.29,4.17,1.44,8.28,2,12.44.71,5.06-1.74,8.93-5.28,12.1a5.4,5.4,0,0,1-4.35,1.21c-.92-.28-1.66-2.4-1.81-3.77-.69-6.35-1-12.75-1.71-19.1-1.85-17.17,1.65-33.39,8.35-49.08A10.42,10.42,0,0,1,268.27,510.9Z"/>
      <path d="M216.41,514.5,212.8,493c-.34-2-.32-4.2-1.07-6.05-3.6-8.84,1.66-14.52,6.87-20.33a48.54,48.54,0,0,0,3.45-5.18C225.47,468.34,220.83,506.55,216.41,514.5Z"/>
      <path d="M241.73,462.49c3.81,5,7.65,9.94,11.39,15a3.36,3.36,0,0,1,.17,2.23q-2.76,16.68-5.61,33.35a10,10,0,0,1-.93,1.78c-5.63-17.3-5.88-34.47-6.93-51.55Z"/>
      <path d="M301,394.24c6.61,10.88,10,22.52,12.74,34.44,4.62,20,1.49,39.58-3.27,59-4.06,16.58-7.91,33.24-12.58,49.65-3.23,11.31-7.54,22.32-11.74,33.32-.91,2.38-3.41,4.16-5.18,6.21-1.59-2.34-4.17-4.52-4.6-7.06-2-11.87-4-23.79-4.87-35.78-2.23-31.32,3.18-61.65,13.23-91.26,3.42-10.09,6.52-20.29,9.87-30.41C296.55,406.48,298.72,400.63,301,394.24Z"/>
      <path d="M162.84,393.63c10.21,32.46,23.08,63.16,27.75,96.1a226.18,226.18,0,0,1-1.73,75.09,40,40,0,0,1-3.37,9.76c-1.52,3.11-3.66,3.22-5.47.3a51.78,51.78,0,0,1-4.9-10c-12-34.06-21.62-68.8-26.61-104.55C145.27,437.09,151.58,415.13,162.84,393.63Z"/>
      <path d="M170.12,582.16c-1.51-1.73-2.94-2.76-3.54-4.15-4.17-9.78-8.68-19.46-12.1-29.5-4.57-13.42-6.21-27.48-7.06-41.61-.38-6.27-1-12.52-1.43-18.79-.17-2.66,0-5.35,0-8l1.84-.27c.92,2.81,2.21,5.54,2.7,8.42a375.56,375.56,0,0,0,15.36,61.52c2.09,6,4.72,11.86,6.29,18C173.29,572.2,173.84,577.09,170.12,582.16Z"/>
      <path d="M317.49,480.07a18.69,18.69,0,0,1,.54,4.34c-1.92,18-3.48,36-6.13,53.87-1,6.94-4.47,13.55-7,20.25-2.18,5.9-4.37,11.8-7,17.52-.9,2-3,3.38-4.58,5.05-.78-2.06-2.15-4.1-2.21-6.19-.22-7.66,2.15-14.65,5.15-21.77a208.76,208.76,0,0,0,9.4-29.68c2.95-11.68,5-23.6,7.54-35.38a76.28,76.28,0,0,1,2.69-8.2Z"/>
    </g>
    <g id="b5ee42d1-3da4-4848-8880-d6f31d3c6b05" data-name="calves">
      <path d="M188.39,746.64c-.91-10.25-1.76-19.51-2.56-28.78-1.17-13.55-2.61-27.09-3.32-40.67A32.74,32.74,0,0,1,184.76,663c3.57-8.27,8.28-16,13.32-23.88,1.18,7.54,2.73,15,3.45,22.63,1,10.7,1.76,21.45,1.92,32.2.06,4.21-1.63,8.5-2.79,12.68-1.2,4.33-2.82,8.53-4.09,12.83-2.36,8-4.59,16-6.89,24C189.45,744.25,189.06,745,188.39,746.64Z"/>
      <path d="M275,745.86c-.33-.91-.69-1.8-1-2.72q-6.11-20-12.19-40c-2.93-9.69-2.29-19.58-1.13-29.4,1.32-11.08,3.11-22.1,4.72-33.14a18.92,18.92,0,0,1,.79-2.3c4.79,9.22,9.54,17.62,13.5,26.38a24.11,24.11,0,0,1,1.63,11.24c-1.19,17-2.79,34-4.23,51-.53,6.26-1,12.51-1.51,18.77Z"/>
      <path d="M308.11,626.33c.84,5.74,2.06,11.45,2.46,17.21,2.45,35.61.26,70.8-9.62,105.31-2.43,8.48-4.89,17.08-3.31,26.15.16.93-.63,2-1,3-1-.7-2.32-1.18-2.81-2.12-3.29-6.3-5.08-13.07-3.5-20.09,2.78-12.35,6-24.6,9.11-36.89,7.35-29.4,10.4-59.12,6.91-89.35a23.87,23.87,0,0,1,0-2.93Z"/>
      <path d="M157.51,626.81c-.27,3.54-.49,7.09-.82,10.63-2.92,31.66,2.54,62.36,10.44,92.81,2.31,8.89,4.63,17.8,6.45,26.81,1.29,6.35-.48,12.49-3.29,18.24a16.27,16.27,0,0,1-2.76,3.21l-1.1-.39c-.12-1.42-.27-2.83-.36-4.25-.33-5.2,0-10.53-1.06-15.59-3.23-16.09-8.07-31.93-10.19-48.15-3.42-26.24-3.86-52.69.06-79a29.12,29.12,0,0,1,1.45-4.56Z"/>
      <path d="M303,602.86c4.79,53.07,2,105.12-20.65,154.5l-1.43.07a39.87,39.87,0,0,1-1-6.42,336.72,336.72,0,0,1,4.9-55.9q4.81-28.46,9.76-56.88c1.91-10.83,4.05-21.61,6.13-32.41a21.3,21.3,0,0,1,1.08-3.12Z"/>
      <path d="M162,602.61a32.06,32.06,0,0,1,1.2,3.83c4.07,22.17,8.22,44.32,12.12,66.52,4.29,24.4,8.35,48.83,8.5,73.7,0,3.57-.34,7.14-.53,10.71l-1.53.17a35,35,0,0,1-2.4-4.53c-3.23-9.06-6.47-18.12-9.48-27.25-9.89-30-11-61.13-11.07-92.32,0-9.09,1-18.18,1.58-27.27a30.06,30.06,0,0,1,.66-3.53Z"/>
      <path d="M201.37,595.82c3.52,3.6,3.42,7.1,2.57,10.42-4.75,18.53-12.94,35.61-22.3,52.17a10,10,0,0,1-1.73,2.05c-.24.24-.67.29-1.74.72-.13-1.81-.64-3.44-.28-4.83,1.37-5.2,2.56-10.52,4.68-15.42,3.51-8.1,7.94-15.8,11.47-23.9,2-4.54,2.87-9.56,4.4-14.32C199.15,600.53,200.23,598.47,201.37,595.82Z"/>
      <path d="M284.49,661a26.34,26.34,0,0,1-2.81-3.42c-1.69-2.86-3.24-5.82-4.77-8.78-6.8-13.08-12.78-26.51-16.62-40.8-1.06-3.93-1.38-7.77,1.59-12.35,1.28,2.17,2.7,3.61,3,5.24,2.14,12.5,8.81,23.12,13.84,34.42a187.75,187.75,0,0,1,6.76,18.36c.7,2.14.37,4.61.51,6.93Z"/>
    </g>
    <path d="M450,441.76c2.67,1,4,2.87,3.36,5.65-.72,3-3.35,2.87-5.64,2.62a16,16,0,0,1-11.57-6.09c-1.17-1.49-2.87-2.57-4.79-4.24-1.88,4.22-1.69,7.49,0,10.7,4.08,7.71,8.24,15.37,12.32,23.08a14.59,14.59,0,0,1,2,5,4.59,4.59,0,0,1-1.62,3.73,4.42,4.42,0,0,1-4-.35c-1.54-1.24-2.56-3.16-3.72-4.85-3.17-4.65-6.29-9.35-9.47-14-.93-1.35-2-2.61-3-3.91l-1.36.93c.74,1.74,1.54,3.45,2.2,5.21q4.31,11.52,8.54,23.07c.22.6.6,1.31.45,1.84-.42,1.53-.68,3.63-1.75,4.28a4.56,4.56,0,0,1-4.37-.75A55.67,55.67,0,0,1,420,483.26c-2.67-5.08-4.57-10.58-6.82-15.9a6.85,6.85,0,0,0-2-2.78c1.07,7.28,2.19,14.56,3.18,21.85a19.27,19.27,0,0,1,.17,6.11c-.27,1.37-1.62,2.53-2.49,3.79a37.75,37.75,0,0,1-3.88-3.14c-.42-.42-.21-1.46-.29-2.22l4,3c.33-1.66,1.13-3.37.92-5-1.27-9.38-2.77-18.73-4.22-28.09-.26-1.69-.55-3.26-3-3.05-2.73.23-3.81,1.11-3.2,4.1,2,9.65,3.67,19.34,5.48,29-1.56-5.65-3.21-11.29-4.66-17-1-4.06-1.81-8.19-2.7-12.29l-1.47-.36c-.65,1.48-1.7,2.92-1.86,4.45-.51,4.85-.39,9.77-1.12,14.57-.34,2.26-2.07,4.31-3.18,6.46-1.17-2-2.89-3.78-3.38-5.89a50.88,50.88,0,0,1-1.22-11.07c-.14-11.63-4.61-22.32-7-33.44-1.71-7.79-2.85-15.47-2.36-23.6a35.27,35.27,0,0,0-6.19-22.64c-1.16-1.65-1.77-3.69-2.69-5.52Q359.48,363.76,349,342.91c-3.1-6.16-6.75-12.07-9.41-18.4-4.42-10.52-5.73-21.81-6.6-33.1a25.28,25.28,0,0,0-5.17-14.19c-6.48-8.35-10.09-18.06-12.52-28.28-.37-1.57-1.55-2.95-2.36-4.41l-1.25.43c-.85,5.4-1.32,10.9-2.64,16.18-1.45,5.79-3.83,11.35-5.53,17.09-1.23,4.14-3,8.44-2.84,12.62.56,18.07,2.1,36.11,2.54,54.18.37,14.82,6.76,28.14,9.28,42.34,3.26,18.3,5.15,36.83,8.21,55.17,2.79,16.74,2,33.6,1.07,50.25-1.15,20.12-1.63,40.53-8,60a3.12,3.12,0,0,1-.24.73c-7.31,11.59-5.66,24-3.94,36.65a120.85,120.85,0,0,1,.14,26c-.64,7.43,1.75,14.2,2.75,21.26a220.54,220.54,0,0,1,.54,61.42c-2.58,18.78-6.66,37.36-10.22,56-2.17,11.37-1.48,22.7-.43,34.12a79.32,79.32,0,0,1-.61,16.8c-.8,6.54-.91,12.5,5,17.08,2.51,2,4.56,4.51,6.87,6.75a19.26,19.26,0,0,1,6.1,12.93c.09,1.66-1.36,3.42-2.1,5.13-2.3,5.32-8.26,6.15-12.25,7-5.09,1.09-10.22,6-16.14,2.2-.52-.33-1.9.29-2.67.8-4.91,3.25-6.69,2.89-10.92-1.2-5.5-5.32-7.7-11.24-6.25-19,.72-3.82-.85-8-1.24-12.12-.46-4.68-.78-9.37-1.13-14.06,0-.5.3-1.08.16-1.52C264,799.93,268.86,790.59,269,781c.21-12.54-.13-25.1-.53-37.65-.45-13.86-4-27.05-8.78-40.06-1.9-5.14-1.94-11.09-2.18-16.71-.77-17.78,1.4-35.37,4.17-52.88,1-6.56,1.1-12.59-1.71-19.07-4-9.19-4.06-19.37-3.06-29.22a55.39,55.39,0,0,0-1.24-18.68c-3.2-13.49-6.38-27-9.66-40.46-2.75-11.33-6.31-22.51-8.29-34a148.17,148.17,0,0,1-1-40.29c.06-.61.06-1.23.07-1.42h-9.35c0,5.79-.24,12.06.05,18.3.64,14-1.67,27.61-5.08,41.12-5.18,20.52-10.35,41-15.15,61.65-1,4.11-.5,8.61-.27,12.91.58,11.11.45,22.12-4.1,32.51-1.85,4.22-1.87,8.36-1.38,12.79,1.77,15.67,3.81,31.33,4.83,47.06a92.7,92.7,0,0,1-5.63,37.36c-3.41,9.64-4.75,20.26-5.46,30.55-.91,13.13-.28,26.38-.26,39.58a11.65,11.65,0,0,0,.54,3.8c2.32,6.57,3.05,13.19,1.22,20-.31,1.17.24,2.54.17,3.81-.23,4.06-.55,8.11-.86,12.17-.43,5.7-1.31,11.41-1.18,17.1s-4.25,15.74-9.65,17.91c-2,.81-5-.77-7.49-1.19a25.33,25.33,0,0,0-4.42-.48c-1,0-2.08,1-2.91.71-4.72-1.37-9.38-3-14-4.5-.72-.24-1.41-1-2-1-5,.64-6.38-4.44-9.77-6.33-.58-.33-.79-1.87-.68-2.8.56-4.94,2-9.55,5.68-13.17,2.65-2.62,5.08-5.5,8-7.84,4.8-3.91,6-9.06,4.79-14.55a63.76,63.76,0,0,1-.46-23.33c2.06-14.14-.17-27.81-3.56-41.52a326,326,0,0,1-9-62.78,230.11,230.11,0,0,1,4.46-55.85c.77-3.89-.48-8.14-.29-12.2.47-10.21,1.31-20.41,1.84-30.62.29-5.49.27-11,.31-16.5a4.28,4.28,0,0,0-.72-2.16c-6.83-10.92-8.36-23.34-9.93-35.7-.89-7-.72-14.12-1.77-21.08-2.89-19-1.34-38.16-1.15-57.22.11-9.9,2.34-19.79,3.87-29.65,1.83-11.79,3.91-23.54,5.94-35.29a25.92,25.92,0,0,1,1.53-6c5.06-11.48,6.65-23.7,7.47-36,1.07-16.12,1.84-32.27,2.54-48.42.28-6.37-1.79-12.18-4.16-18.16-2.84-7.18-4.05-15-5.81-22.62-.61-2.59-.77-5.29-1.13-7.94l-1.09-.57a20.67,20.67,0,0,0-2.48,3.73c-2.93,7.49-5.71,15-8.57,22.57a5.86,5.86,0,0,1-1.07,2c-8.62,8.75-8.12,20.24-9.71,31.22a93.2,93.2,0,0,1-12.86,36.32c-6.93,11.21-12.23,23.44-18.24,35.22-2.85,5.59-5.78,11.15-8.52,16.8a45.05,45.05,0,0,0-4.58,23.5A46.36,46.36,0,0,1,84.56,428c-1.42,7.3-3.63,14.45-5.12,21.74-1.52,7.51-2.58,15.11-3.81,22.67-.6,3.67-.92,7.39-1.79,11-.29,1.2-1.9,2.07-2.91,3.09-.83-1.06-2.23-2-2.38-3.19-.69-5.07-1-10.2-1.5-15.29-.26-2.37.32-5.17-3-6.93-.58,1.78-1.19,3.26-1.55,4.81-1.9,8.12-3.72,16.26-5.63,24.38a8.18,8.18,0,0,1-1.4,3.55c-.91,1-2.49,2.27-3.57,2.1s-2.38-2.15-2.31-3.26c.37-6.26,1-12.5,1.79-18.73.38-3.23,1.1-6.41.91-9.82-2.7,6.32-5.09,12.8-8.23,18.9-2,3.79-4.89,7.11-7.69,10.37-.79.93-3.32,1.7-3.91,1.2-1.16-1-2.34-3.1-2.06-4.43.71-3.35,2.24-6.52,3.43-9.77l7.59-20.74-.81-.53A36.12,36.12,0,0,0,37.07,463c-3.38,4.84-6.63,9.77-9.93,14.67-.71,1.06-1.2,2.51-2.2,3.1-1.46.88-3.47,1.88-4.9,1.5-2.41-.65-2.64-3-1.55-5.08,3.83-7.41,7.83-14.73,11.61-22.17a42.83,42.83,0,0,0,3.67-9.18c.36-1.51-.92-3.41-1.46-5.14-1.43,1-2.94,1.83-4.27,2.91-1,.8-1.54,2.3-2.6,2.76A53.52,53.52,0,0,1,15.09,450c-1.33.26-3.83-1.12-4.44-2.4-1-2-.21-4.31,2.53-5.07-.12,5.64,1.05,6.57,6.46,4.79a17.15,17.15,0,0,0,4.28-2.45c8.12-5.66,9.92-14.59,11.83-23.54A78.87,78.87,0,0,0,26.05,433a15.83,15.83,0,0,1-9,7.18c3.26-4.52,6.62-9,9.77-13.58,3.52-5.16,8.15-9.28,14-11,11.35-3.35,16.32-10.92,19.16-22,5.8-22.76,11.3-45.5,14.28-68.84a94.75,94.75,0,0,1,15.17-40,112,112,0,0,1,7.91-10.39,12.55,12.55,0,0,0,2.94-8.84c-.27-12.79,2-25.08,8.4-36.31,2.8-4.9.61-9.8.6-14.69,0-11-.73-22.08-.24-33.08A28.62,28.62,0,0,1,118,162c4.4-4.28,8.51-8.92,13.23-12.82,7.16-5.92,15.59-8,24.88-6.76,11.07,1.45,21.47-.13,30.51-7.4,4.59-3.69,9.6-6.88,14-10.8a14.17,14.17,0,0,0,3.83-7.17c.92-4.1,1-8.38,1.4-12.59.27-3-.91-5.39-2.44-8.11-1.88-3.36-2-7.75-2.71-11.72a7.65,7.65,0,0,1,.19-2.61c-1.77-.65-3.57-.75-4.28-1.68-4.33-5.66-7.62-11.88-8.3-19.14a16.75,16.75,0,0,1,.3-5.33c.49-2,1.75-3.49,4.23-2.59A54.74,54.74,0,0,1,195,59.47c.77,3.51,1.22,7.1,1.81,10.66h1.13a29,29,0,0,0,.92-4.21c.32-4.22.37-8.46.77-12.66.22-2.26.38-4.87,1.59-6.62,3-4.43,4.09-9.29,4.61-14.45.44-4.32,2.45-5.8,6.92-6,5.75-.32,11.48-.87,17.23-1.27a32.7,32.7,0,0,1,4.2,0c5.36.39,10.71,1,16.08,1.22,5.83.23,7.2,1.71,8.13,7.39.66,4.07,2.44,8,3.67,11.93a52.82,52.82,0,0,1,2.26,8c.42,2.9,0,5.9.27,8.83.22,2.65.82,5.26,1.25,7.88l1.27-.07c.65-4,1.18-8,2-11.9a45.69,45.69,0,0,1,2.09-5.92c3.56.72,4.77,3.25,4.66,6.49-.28,8.43-3.8,15.61-9,22-.6.74-2.37.52-3.95.81,0,2.42.39,5.18-.11,7.76-.55,2.78-1.94,5.4-3,8.08-.53,1.39-1.61,2.8-1.54,4.15.29,5.75-.07,11.82,1.75,17.11,1.36,4,5.44,7.14,8.74,10.22,2.59,2.43,5.91,4.06,8.77,6.24,8.79,6.7,18.75,8.66,29.47,7.18,10-1.39,19,.78,26.58,7.37a130.22,130.22,0,0,1,14.8,15,30.44,30.44,0,0,1,6.86,20.43c-.29,12.17-1,24.33-1.26,36.51a16.41,16.41,0,0,0,1.66,7.7A73.44,73.44,0,0,1,363.71,265a14,14,0,0,0,3.34,9.85c13.53,15.93,20.79,34.51,23.59,55.12,1.68,12.32,3.7,24.64,6.41,36.77,2.62,11.74,6.29,23.25,9.56,34.84a15.67,15.67,0,0,0,10.3,11.06c3.95,1.46,8.08,3,11.34,5.6,3.84,3,7,7,10.15,10.74,3,3.59,5.64,7.48,8.45,11.23a17.21,17.21,0,0,1-9.27-7.57c-2.48-4-5.84-7.52-8.81-11.25l-1.13.72c1.41,4.35,2.45,8.85,4.32,13a22,22,0,0,0,12.31,12c1.74.66,4,.07,5.94.06Zm-215.53-101a14.5,14.5,0,0,0-.36,2.27q.12,23.09.29,46.16c-.14,12.5-.24,25,1.21,37.58,10.94-3.38,14.09-5.95,18.6-15.41a81.43,81.43,0,0,0,4-10c6.36-19.56,8.82-39.82,10.73-60.17.28-3-.86-4.41-3.82-4.32-7.7.22-15.41.24-23.08.86-2.61.19-5,2-7.59,3Zm-5.95-149c-.18-9.36-1.17-18.46-5.59-26.91-2.72-5.17-7-8.35-12.69-8.8-14.37-1.12-28.64-2-41.46,7.14-5.35,3.83-9.74,7.92-11.34,14.35-3,12.1-3,24.26,1.43,36,1.81,4.78,4.46,10,8.28,13.11,12.63,10.35,35.67,12.92,50.41,2.2,4.94-3.6,8.11-7.84,8.83-13.7.92-7.81,1.42-15.62,2.11-23.41Zm37.28-36.42c-3.84.18-7.7.2-11.52.59-6.17.63-11,3.55-13.51,9.37a57.62,57.62,0,0,0-4.05,12.35c-2.32,13.18-1,26.4,1.27,39.41a18.59,18.59,0,0,0,6.55,10.41c10.34,7.92,22.17,9.91,35,7,11.06-2.52,20.28-7.22,24.68-18.46A61.69,61.69,0,0,0,306,176.35a20.63,20.63,0,0,0-8.82-11.79c-9.44-6.36-19.57-10.73-31.4-9.24ZM301,394.24c-2.26,6.39-4.43,12.24-6.4,18.15-3.35,10.12-6.45,20.32-9.87,30.41-10,29.61-15.46,59.94-13.23,91.26.86,12,2.88,23.91,4.87,35.78.43,2.54,3,4.72,4.6,7.06,1.77-2,4.27-3.83,5.18-6.21,4.2-11,8.51-22,11.74-33.32,4.67-16.41,8.52-33.07,12.58-49.65,4.76-19.46,7.89-39,3.27-59C311,416.76,307.59,405.12,301,394.24Zm-138.14-.61c-11.26,21.5-17.57,43.46-14.33,66.72,5,35.75,14.64,70.49,26.61,104.55a51.78,51.78,0,0,0,4.9,10c1.81,2.92,4,2.81,5.47-.3a40,40,0,0,0,3.37-9.76,226.18,226.18,0,0,0,1.73-75.09c-4.69-33-17.56-63.66-27.77-96.12Zm65.48,32.84c.2-2.2.54-4.33.57-6.46.34-25,.55-50.06,1-75.09.08-4.22-1.55-6.48-5.49-6.75-8.82-.58-17.65-.94-26.48-1.25-2.84-.1-3.25,1.93-3,4.25,1.06,9.18,1.85,18.4,3.22,27.52,2.15,14.23,5,28.32,10.85,41.61,3.67,8.32,9.08,14.55,19.31,16.17Zm84.81-245.32A23.54,23.54,0,0,0,319.8,200c2.16,2.16,4.42,4.26,6.36,6.62,2.47,3,5.32,3.88,8.31,1.38a157.36,157.36,0,0,0,11.72-10.93c6.56-6.63,6.81-20.83,1.29-28.4a86.46,86.46,0,0,0-12.68-13.33c-12.8-11.34-23.26-12.53-38.39-4.53-1.93,1-3,3.73-4.45,5.66,1.66,1,3.2,2.27,5,2.85,12.55,4.13,16.44,8.94,16.17,21.83Zm-200.62,1.54c-.68,11.26,10.21,22.49,18.64,26.08a6,6,0,0,0,5.12-1c3.17-2.75,5.87-6,8.78-9.08,5.27-5.52,6-12.38,5.37-19.42-.74-8.52,3.06-14,10.53-17.35,2.34-1,4.8-1.82,7.09-2.94,1.37-.67,3.65-1.91,3.55-2.61-.24-1.72-1.23-3.93-2.62-4.79-10.71-6.63-22.09-9.07-34.56-.36-5.51,3.85-10.16,9-15.07,13.64s-6.75,10.73-6.85,17.83Zm-7.7,109.83a40.65,40.65,0,0,0-.41-6.52,59.36,59.36,0,0,0-2.36-7c-2.07,1.4-4.64,2.4-6.13,4.26-9.7,12.17-18.1,25-17.46,41.52a13.21,13.21,0,0,1-.29,3.07Q72.81,355.44,67.4,383c-1.16,6-2.34,12-3.28,18-.16,1,.85,2.18,1.32,3.27,1-.67,2.39-1.12,2.91-2.06a107.79,107.79,0,0,0,5-10.39c6.48-15.76,12.57-31.69,19.37-47.31,7.28-16.59,12.59-33.53,12.09-52Zm254.25-1c.49,16,2.16,30.1,8.18,43.56C373.49,349,379,363.2,384.82,377.3c3,7.35,5.79,14.82,9,22.08.87,2,3,3.33,4.62,5,.38-2.27,1.45-4.66,1.05-6.77-2.09-10.93-4.82-21.75-6.83-32.7-2.8-15.25-5.88-30.51-7.44-45.9-1.08-10.69-6.39-19.1-11.28-27.87-2.07-3.72-5.22-7-8.31-10-3.48-3.41-5.15-2.77-5.88,2-.5,3.18-.55,6.53-.69,8.34ZM303,602.86l-1.23-.16a21.3,21.3,0,0,0-1.08,3.12c-2.08,10.8-4.22,21.58-6.13,32.41q-5,28.41-9.76,56.88a336.72,336.72,0,0,0-4.9,55.9,39.87,39.87,0,0,0,1,6.42l1.43-.07C305,708,307.81,655.93,303,602.86Zm-141-.25h-.95a30.06,30.06,0,0,0-.66,3.53c-.58,9.09-1.59,18.18-1.58,27.27.05,31.19,1.18,62.3,11.07,92.32,3,9.13,6.25,18.19,9.48,27.25a35,35,0,0,0,2.4,4.53l1.53-.17c.19-3.57.55-7.14.53-10.71-.15-24.87-4.21-49.3-8.5-73.7-3.9-22.2-8-44.35-12.12-66.52A31.61,31.61,0,0,0,162,602.61ZM82.22,425.73c-.42-3.73,0-7.67-3.56-9.9-7.14-4.48-15.14-6.78-23-3a49.78,49.78,0,0,0-14.2,10.89c-6.71,7.08-6.18,13.21,1.09,19.75S57.74,454.94,67.91,455c6.16,0,9.25-2.11,10.53-8C80,439.91,81,432.79,82.22,425.73Zm299.41.46c1.2,6.8,2.16,13.66,3.67,20.4,1.44,6.41,4.41,8.46,11,8.3,10.56-.26,18.74-5.58,26-12.6,4.89-4.7,5.79-9,2.94-14.79a19.36,19.36,0,0,0-3.64-4.88c-8-8.12-16.59-14.06-29-10.33C384.19,414.85,382,417.2,381.63,426.19ZM188.39,746.64c.67-1.64,1.06-2.39,1.29-3.19,2.3-8,4.53-16,6.89-24,1.27-4.3,2.89-8.5,4.09-12.83,1.16-4.18,2.85-8.47,2.79-12.68-.16-10.75-.9-21.5-1.92-32.2-.72-7.59-2.27-15.09-3.45-22.63-5,7.83-9.75,15.61-13.32,23.88a32.7,32.7,0,0,0-2.25,14.18c.71,13.58,2.15,27.12,3.32,40.67C186.63,727.13,187.48,736.39,188.39,746.64Zm86.61-.78.6-.2q.75-9.39,1.51-18.77c1.44-17,3-34,4.23-51a24.11,24.11,0,0,0-1.63-11.24c-4-8.76-8.71-17.16-13.5-26.38a18.92,18.92,0,0,0-.79,2.3c-1.61,11-3.4,22.06-4.72,33.14-1.16,9.82-1.8,19.71,1.13,29.4q6,20,12.19,40C274.31,744.06,274.67,745,275,745.86ZM170,389.56c13.3,53.76,30.41,105.62,39.25,160.55.57-2,.89-2.9,1.14-3.87,3.7-14.74,3.08-29.57.41-44.32-3.81-21.11-9.53-41.65-18.57-61.25-7.14-15.49-13.5-31.34-20.23-47C171.5,392.53,170.91,391.45,170,389.56Zm123.64.76a3.71,3.71,0,0,0-.67.81c-8.29,18.9-16.79,37.71-24.72,56.77a262.51,262.51,0,0,0-8.9,26.64c-5.62,19.06-9.55,38.41-8,58.43.41,5.47,1.68,10.88,2.56,16.31,9.5-54.14,26.6-106,39.71-159ZM195.49,279.18c3.17-1.71,5.89-3.1,8.53-4.62,6.77-3.92,13.39-8.09,20.3-11.74,2.88-1.52,4.55-3.44,4.49-6.48a189.29,189.29,0,0,0-1-19.19c-.67-5.43-3.68-7.14-8.74-4.93-7.87,3.43-15.5,7.4-23.19,11.21a8.36,8.36,0,0,0-4.59,6.66C189.72,260,191.17,269.4,195.49,279.18ZM297.85,320c-2.12,1.59-3.23,2.38-4.3,3.22-4.72,3.74-9.32,7.65-14.2,11.16-2.2,1.58-3.39,3.23-3.56,5.91-.4,6.28-.78,12.56-1.52,18.8-1,8.33,0,17-4.22,24.82-1.05,1.94.22,3.71,2.24,3.06,3.18-1,6.64-2.25,9-4.45,5.83-5.37,11-11.4,16.64-17a8.22,8.22,0,0,0,2.66-6.83c-.43-7.56-.51-15.14-1-22.7C299.31,331,298.55,326.05,297.85,320Zm-131.38.42a23.38,23.38,0,0,0-1,3.69c-.75,12.28-1.5,24.56-2.07,36.85a5.87,5.87,0,0,0,1.78,3.61c6,6.35,11.83,12.8,18.15,18.77,2.07,2,5.31,2.88,8.19,3.63,1.76.47,3.13-.52,2.18-3a38.43,38.43,0,0,1-2.71-9.51c-1.18-11.22-2-22.48-2.89-33.73a8.09,8.09,0,0,0-3.91-6.54c-4.81-3.37-9.26-7.26-13.88-10.92-1.08-.92-2.21-1.7-3.84-2.9Zm101.8-41.09c4.08-9.88,6.2-19.29,4.08-29.11-.53-2.46-2.36-5.45-4.47-6.61a256.85,256.85,0,0,0-23.5-11.39c-4.84-2.09-7.76-.36-8.37,4.94a143.42,143.42,0,0,0-.81,19.55,7.9,7.9,0,0,0,3.33,5.45c5.56,3.63,11.46,6.76,17.24,10.06,4,2.23,8,4.49,12.5,7.06Zm-164.4-15.76v6.59c.09,4.35,1.54,5.62,5.79,4.32,5.35-1.63,10.56-4,12.72-9.63,3.5-9.19,6.93-18.44,9.73-27.86,1.63-5.49.66-11.24-1.62-16.59-2.18-5.13-6.09-6.13-9.87-2.17a79.17,79.17,0,0,0-9,11.32c-6.62,10.09-7.42,21.66-7.75,34Zm256.1.69h.2c-.36-4.6-.64-9.21-1.11-13.8A50,50,0,0,0,344,218.82c-4.72-4.62-9-3.85-10.92,2.47a32.56,32.56,0,0,0-1.74,11.29c.7,12.7,5.17,24.31,11.82,35,2.77,4.45,7.67,6.28,12.69,7.21,2.55.47,4.2-.77,4.15-3.65-.06-2.31,0-4.62,0-6.93ZM290.74,381.64c-10.25,7-17.94,16-24.59,25.92-10.21,15.15-16.31,32.17-21.43,49.57a2.21,2.21,0,0,0,0,1.48,83,83,0,0,0,4.85,8.69,6.43,6.43,0,0,0,3.94,2.54c.66.09,1.91-2,2.43-3.37,5.66-14.55,11-29.23,16.89-43.7,4.54-11.16,9.71-22.07,14.57-33.1C288.54,387,289.62,384.32,290.74,381.64Zm-117-1-.83.45c1.13,2.77,2.22,5.56,3.39,8.31,8.26,19.44,16.62,38.84,24.74,58.33,2.71,6.51,4.84,13.25,7.25,19.88.61,1.67,1.31,3.18,3.59,2,3-1.49,7.2-10,6.44-13.21-5.79-24.67-16.57-46.79-33.83-65.52-3.35-3.57-7.16-6.8-10.75-10.21ZM148.31,201.9H147.2a26.51,26.51,0,0,0-1.14,2.75c-2.5,8.73-4.34,17.71-7.57,26.15-6.69,17.47-14.13,34.64-21.19,52a4.1,4.1,0,0,0-.08,3.06c2.46,4.72,4.87,4.92,8.39.77,8.59-10.1,13.56-22.28,19.06-34.08,3-6.46,4.71-13.56,6.75-20.44C154.55,221.55,151.81,211.66,148.31,201.9Zm168.49-.23c-.81.37-1.1.42-1.25.59a3,3,0,0,0-.58,1c-3.31,9.83-5.39,19.63-2.35,30.1a190.29,190.29,0,0,0,17.09,40.57,112.73,112.73,0,0,0,9.12,13.28c.91,1.18,3.37,2.4,4.41,2,1.47-.64,2.72-2.67,3.2-4.36.34-1.22-.6-2.9-1.19-4.28-3.44-8-7-16-10.4-24C328.39,241,322.51,225.34,318.67,209,318.1,206.56,317.44,204.17,316.8,201.67ZM269.29,602.49c.43,8.86,3.84,18,8.22,22.53,5.61,5.86,11.53,4.81,14.69-2.69a88.69,88.69,0,0,0,3.1-8.68c1.64-5.47,3.67-10.89,4.54-16.49,1-6.15-2-9-8.36-9.07a102.25,102.25,0,0,0-10.35.59c-9.65.88-11.11-.12-11.84,13A5.47,5.47,0,0,0,269.29,602.49ZM194.23,602a44.5,44.5,0,0,0,0-4.62c-.63-6.1-2.25-7.79-8.27-8.39-4.34-.44-8.7-.82-13.06-.88-7.12-.09-10.43,3.25-8.85,10a214.4,214.4,0,0,0,7.44,23.72c3,8.23,9.55,9.31,15.3,2.64C192.29,618.06,193.64,610.09,194.23,602ZM214,333.49c3.21,0,6.81-.12,10.4,0,3,.14,4.65-1.16,4.76-4.14.25-6.66.37-13.33.62-20,.13-3.62-1.51-5.39-5.09-4.87q-14.24,2.07-28.42,4.45c-.8.13-1.58,1.42-2,2.34-3.08,6.26-.36,12.29,1.12,18.27.29,1.15,2.32,2.45,3.69,2.64C203.88,332.89,208.76,333.09,214,333.49Zm35.48,0c5.28-.38,10-.73,14.74-1.05,2.86-.19,4.59-1.69,4.79-4.53.34-5.1.52-10.21.73-15.32.11-2.69-1.36-3.75-3.92-4.19-4.8-.82-9.51-2.19-14.32-2.86a88.16,88.16,0,0,0-13.78-.83c-1.19,0-3.34,1.93-3.37,3-.16,7.3.06,14.6.3,21.9.09,2.78,1.73,4,4.59,3.9,3.6-.13,7.19,0,10.25,0Zm-14.9-48.25h-.08V296.4c0,3.06,1.23,5.48,4.58,5.52q13.63.12,27.28-.25a3.47,3.47,0,0,0,2.51-2.16,18.73,18.73,0,0,0-9.12-20.62c-5.91-3.36-12.07-6.24-18.11-9.37-4.23-2.18-6.69-1-7,3.79-.27,4,0,7.95,0,11.93ZM308.1,626.33l-1.76.33a23.87,23.87,0,0,0,0,2.93c3.49,30.23.44,59.95-6.91,89.35-3.07,12.29-6.33,24.54-9.11,36.89-1.58,7,.21,13.79,3.5,20.09.49.94,1.85,1.42,2.81,2.12.35-1,1.14-2.11,1-3-1.58-9.07.88-17.67,3.31-26.15,9.88-34.51,12.07-69.7,9.62-105.31-.39-5.8-1.56-11.51-2.45-17.25Zm-150.6.48-1.18-.26a29.12,29.12,0,0,0-1.45,4.56c-3.92,26.33-3.48,52.78-.06,79,2.12,16.22,7,32.06,10.19,48.15,1,5.06.73,10.39,1.06,15.59.09,1.42.24,2.83.36,4.25l1.1.39a16.27,16.27,0,0,0,2.76-3.21c2.81-5.75,4.58-11.89,3.29-18.24-1.82-9-4.14-17.92-6.45-26.81-7.9-30.45-13.36-61.15-10.44-92.81.32-3.52.56-7.07.83-10.61Zm71.61-341.6H229c0-4.23.21-8.47-.06-12.68-.23-3.68-2.71-5.06-5.82-3.52-5.62,2.78-11,6-16.82,8.45-9.68,4.1-12,11.9-11.37,21.28.07,1.06,1.61,2.87,2.51,2.89q13.6.44,27.24.28c3.06,0,4.47-2.11,4.44-5.16,0-3.85,0-7.69,0-11.54ZM274,819.55c3.66-2.92,6.67-5.46,9.82-7.81,3.7-2.75,7.44-5.47,11.32-8,3.18-2,3.57-4.58,2.53-7.94-1.76-5.7-2.93-11.6-5.05-17.15-1-2.61-3.26-5.71-5.65-6.51-1.75-.59-4.72,2.07-7,3.53a6.35,6.35,0,0,0-2,2.79C275.62,784,273.56,789.6,271,795,266.77,804.13,270.76,811.83,274,819.55Zm-84.1-.44c-.21.25.19-.09.42-.53.48-.9.85-1.86,1.28-2.79,5.67-11.94,1.66-22.95-3.54-33.7a30.25,30.25,0,0,0-6.13-8.29c-3.35-3.28-6.47-2.83-8.9,1.14-1.29,2.11-1.77,4.73-2.53,7.14-1.09,3.49-1.77,7.15-3.22,10.48-2.54,5.86-2.4,8.27,2.69,12.18,6.41,4.94,13.14,9.53,19.89,14.37ZM388.51,403.64l1.4-.61c-.3-1.79-.29-3.7-.94-5.35-6.74-17.15-13.23-34.43-20.52-51.35-5.44-12.62-11.33-25-13.29-38.78-.32-2.25-.89-4.81-2.27-6.44s-3.73-2.31-5.77-2.59c-.65-.08-2.27,2.5-2.38,3.94-.26,3.55-.74,7.44.37,10.67,3.06,8.91,5.89,18.15,10.64,26.17A408.48,408.48,0,0,1,382.23,393a67.54,67.54,0,0,0,3.45,7.3A21.55,21.55,0,0,0,388.51,403.64ZM74,403.12l1.93.65c1.66-3.06,3.49-6,5-9.19,3.86-8.35,8-16.61,11.23-25.21,6.49-17.36,19.33-31.46,24.65-49.47,1.76-5.92,3-11.57,2.26-17.6-.18-1.4-1.59-3.85-2.14-3.77-2.08.3-4.59,1-5.88,2.4s-2,4.17-2.32,6.41c-2,13.49-7.06,25.91-13.07,38-2,4-4.2,7.93-5.8,12.09-5.21,13.57-10.2,27.14-15.17,40.75C74.13,399.7,74.24,401.47,74,403.12Zm96.09,179c3.72-5.07,3.17-10,2-14.41-1.57-6.13-4.2-12-6.29-18a375.56,375.56,0,0,1-15.36-61.52c-.49-2.88-1.78-5.61-2.7-8.42l-1.84.27c0,2.67-.14,5.36,0,8,.4,6.27,1,12.52,1.43,18.79.85,14.13,2.49,28.19,7.06,41.61,3.42,10,7.93,19.72,12.1,29.5.69,1.46,2.12,2.49,3.63,4.22Zm147.4-102.05-1.52-.19a76.28,76.28,0,0,0-2.69,8.2c-2.57,11.78-4.59,23.7-7.54,35.38a208.76,208.76,0,0,1-9.4,29.68c-3,7.12-5.37,14.11-5.15,21.77.06,2.09,1.43,4.13,2.21,6.19,1.56-1.67,3.68-3.08,4.58-5.05,2.59-5.72,4.78-11.62,7-17.52,2.49-6.7,5.93-13.31,7-20.25,2.65-17.87,4.21-35.9,6.13-53.87A18.71,18.71,0,0,0,317.49,480.07ZM170.72,813.52a27.82,27.82,0,0,0-3.68,3.35c-5,6.62-9.92,13.36-14.94,20-4.51,6-4.23,7.16,3,9.73a48.94,48.94,0,0,0,7.44,1.82c3.38.65,6.87.9,10.19,1.77,2.69.71,3.3-.4,3.84-2.64,1-3.95,1.62-8.13,3.47-11.66,2.78-5.3.75-10.78,1.64-16.09.08-.49-.72-1.39-1.32-1.7C177.4,816.6,174.38,815.24,170.72,813.52ZM282.11,827.8l-.63.13c.88,2.79,1.69,5.6,2.64,8.36.75,2.18,1.81,4.25,2.47,6.45.72,2.42.38,5.93,1.92,7.1s4.75-.17,7.18-.69c5.23-1.1,10.56-2,15.58-3.72,4.43-1.53,4.57-3,1.77-6.76-4.71-6.24-9.62-12.32-14.16-18.67-5.17-7.22-4.21-7.16-13.54-3.06a9,9,0,0,0-2.25,1.45,2.56,2.56,0,0,0-.93,1.56C282.06,822.56,282.11,825.18,282.11,827.8Zm-86.3-315.62v3.36c-.24,11.13-.17,22.28-.85,33.39-.46,7.49-2,14.93-3,22.38-.71,5,1.78,8.66,5.22,11.71,1.07,1,3.26,1.79,4.29,1.3s1.78-2.61,2-4.1c.62-5.33.75-10.73,1.43-16.05,2.21-18.17-1.06-35.42-9.09-52Zm72.46-1.28a10.82,10.82,0,0,0-1.17,1.44c-6.7,15.69-10.2,31.91-8.35,49.08.68,6.35,1,12.75,1.71,19.1.15,1.37.89,3.49,1.81,3.77a5.4,5.4,0,0,0,4.35-1.21c3.54-3.17,6-7,5.28-12.1-.59-4.16-1.74-8.27-2-12.44-.89-13-1.53-26.06-2.15-39.1A78.76,78.76,0,0,1,268.27,510.9ZM216.88,107.25c.82.94,2.58,2.2,3.31,3.9,3.26,7.65,6.19,15.43,9.35,23.12a13.47,13.47,0,0,0,2.24,2.86,14.77,14.77,0,0,0,2.53-3c2.83-6.58,5.44-13.26,8.27-19.84,1.13-2.64,2.64-5.13,3.64-7ZM201.37,595.82c-1.14,2.65-2.22,4.71-2.93,6.89-1.53,4.76-2.42,9.78-4.4,14.32-3.53,8.1-8,15.8-11.47,23.9-2.12,4.9-3.31,10.22-4.68,15.42-.36,1.39.15,3,.28,4.83,1.07-.43,1.5-.48,1.74-.72a10,10,0,0,0,1.73-2.05c9.36-16.56,17.55-33.64,22.3-52.17C204.79,602.92,204.89,599.42,201.37,595.82ZM284.49,661l1.48-.4c-.14-2.32.19-4.79-.51-6.93a187.75,187.75,0,0,0-6.76-18.36c-5-11.3-11.7-21.92-13.84-34.42-.28-1.63-1.7-3.07-3-5.24-3,4.58-2.65,8.42-1.59,12.35,3.84,14.29,9.82,27.72,16.62,40.8,1.53,3,3.08,5.92,4.77,8.78A26.49,26.49,0,0,0,284.49,661Zm-29-557.57-1.26-.67c-2.22,3.79-4.5,7.56-6.64,11.39-1.06,1.88-1.85,3.91-2.81,5.85-4.42,8.89-8.52,17.9-8.23,28.15a37.16,37.16,0,0,0,1.24,6c8-7,21.46-35.83,17.68-50.68Zm-47-1c-2.1,15.87,9.69,48.9,18.61,51,0-3.72.38-7.27-.07-10.71-1.7-13-8.85-23.89-14.35-35.38-.82-1.58-2.46-2.8-4.23-4.82Zm-41.9,194a56,56,0,0,1-.51,6.07c-2.07,10,1.67,17.42,10.13,22.75,3.18,2,6.34,4,10.12,6.43a37.45,37.45,0,0,1,.27-4.49c2.07-10-1.38-17.28-10.12-22.53C173.15,302.68,170.42,299.68,166.59,296.44Zm111.1,34.65c8.13-3.3,14-8.91,19.39-15a2.34,2.34,0,0,0,.41-1.45V297.56l-1-.57c-2.74,2.35-5.21,5.2-8.29,6.95-10.17,5.81-13.34,14.35-10.93,25.43A11.75,11.75,0,0,1,277.69,331.09ZM216.41,514.5c4.42-7.95,9.06-46.16,5.64-53a48.54,48.54,0,0,1-3.45,5.18c-5.21,5.81-10.47,11.49-6.87,20.33.75,1.85.73,4,1.07,6.05Zm25.32-52-1.91.79c1.05,17.08,1.3,34.25,6.93,51.55a10,10,0,0,0,.93-1.78q2.83-16.66,5.61-33.35a3.36,3.36,0,0,0-.17-2.23c-3.74-5.05-7.58-10-11.39-15Zm-75.85-185c-1.36,8.27-1.52,14.89,5.41,19.94,5.2,3.8,9.79,8.44,14.65,12.7l1-.46c0-5.31.81-10.82-.35-15.87-.57-2.48-4.78-4.14-7.35-6.16-1.11-.87-2.26-1.69-3.38-2.54Zm132.26.52a22.51,22.51,0,0,0-3.08,1.51q-8.38,6.09-16.71,12.29c-.49.37-1.13.87-1.23,1.4-1.06,5.49-.63,10.93.14,17.54,5.91-5.25,10.62-10,15.91-14,6.72-5,5.46-11.62,5-18.76ZM122.2,307.19c-.25,1.29-.49,2.12-.57,3-1.32,13.35-6.62,25.39-13.79,36.33-11.2,17.11-19.23,35.58-26.13,54.66-.56,1.54-1,3.14-1.45,4.72a7.08,7.08,0,0,0,2.58-3c4.72-9.66,9.38-19.36,14.12-29,4.13-8.4,8.36-16.76,12.52-25.15,5.3-10.66,10.71-21.27,15.8-32C127.49,312,126.93,310.93,122.2,307.19Zm260.79,99,.62-.26a21.7,21.7,0,0,0-.71-2.38c-6.32-14.82-12.61-29.66-19-44.43a46.53,46.53,0,0,0-4.51-7.6c-8.84-12.8-15.63-26.42-17.23-42.17a6.73,6.73,0,0,0-.69-1.72c-3.9,2.53-4.82,4-3.55,7.17,2.6,6.56,5.22,13.13,8.38,19.42,6.67,13.26,13.8,26.29,20.54,39.51,5,9.8,9.65,19.77,14.48,29.64a22.06,22.06,0,0,0,1.68,2.84ZM176.51,147.89c.46.28,1,.83,1.51.89,7.1.78,14.2,1.63,21.33,2.06,1.12.06,2.92-1.65,3.42-2.92a23.85,23.85,0,0,0,1.32-7.15c.21-3.6,0-7.22,0-11.54ZM260,129.44c-.58,6.94-1,13.27,1.4,19.31.47,1.18,2.86,2.25,4.35,2.23,5.22-.06,10.46-.49,15.66-1,2-.21,4-1.12,6.21-1.8ZM31.74,492.32l1.21.94c1.65-1.13,3.65-2,4.86-3.45a29.64,29.64,0,0,0,3.75-6.62c3.52-7.83,6.9-15.72,10.36-23.57.76-1.7,1.81-3.56-.83-4.33-2.27-.65-5.12-2.32-6.55,1.31-3.94,10-7.84,20-11.63,30A34.75,34.75,0,0,0,31.74,492.32Zm398.94.9L432.1,492a54.46,54.46,0,0,0-1.75-6.9c-3-7.74-6.29-15.38-9.38-23.09-.76-1.9-1-4-1.92-5.84-1.45-2.9-4.05-1.6-6.07-.92-.82.28-1.87,2.36-1.56,3.06,4.67,10.53,9.44,21,14.5,31.37C426.69,491.26,429.05,492.06,430.68,493.22ZM278,288.82c6.46-4.42,12.55-8.55,18.56-12.8a2.56,2.56,0,0,0,.53-2.36c-1.1-2.89-2.43-5.7-3.78-8.76-3.72,2.47-7,4.66-10.29,6.83C277.23,275.57,275.49,280.77,278,288.82Zm.3-43.29-1.59.74c0,7.64,0,15.29,0,22.93,0,2.07,1.5,2.88,3.14,1.64,4.07-3.08,8-6.33,11.84-9.72a3.25,3.25,0,0,0,.07-3.22c-4.3-4.24-8.89-8.27-13.42-12.37ZM170.43,264.85a75.82,75.82,0,0,0-3.52,8,4,4,0,0,0,1,3.56c4.74,3.51,9.65,6.78,14.56,10a31.76,31.76,0,0,0,4.14,1.93c0-3.22.33-5.69-.1-8s-1-5-2.6-6.33C179.86,270.74,175.27,268.09,170.43,264.85Zm16.76-18.44-1.78-.84c-4.57,4.16-9.2,8.26-13.59,12.59-.49.49-.06,2.82.68,3.49a115.63,115.63,0,0,0,10.61,8.77c2.62,1.88,4,1.08,4-2.22.16-7.26.08-14.53.08-21.79ZM442.35,480.94l1.46-.58c-.5-2.25-.56-4.73-1.57-6.72-4.19-8.19-8.61-16.28-13.13-24.3-.6-1.06-2.47-2.28-3.45-2.06a10.3,10.3,0,0,0-5.36,3c-.51.6.78,3.21,1.76,4.52,2.57,3.45,5.54,6.6,8.14,10,3.24,4.29,6.24,8.75,9.4,13.09A36.21,36.21,0,0,0,442.35,480.94Zm-422.44-.69,1.76.87c2.95-3.94,5.87-7.91,8.86-11.83,3.63-4.73,7.39-9.37,10.93-14.17,1-1.44,2.6-4,2.07-4.79a8.45,8.45,0,0,0-5.29-3c-1.17-.16-3.15,1.34-3.87,2.6-4.37,7.66-8.6,15.42-12.62,23.27C20.68,475.32,20.5,477.89,19.91,480.25ZM186.49,821.07c-1.21,3.55-2.34,6.11-2.94,8.79-1.22,5.47-2.34,11-3.09,16.52-.24,1.84.17,4.64,1.38,5.62,1.89,1.51,6.87-1.5,7.55-4,.77-2.82,1.72-5.6,2.31-8.45a10.65,10.65,0,0,0,.11-5.23C190.44,830.21,188.62,826.27,186.49,821.07Zm98.94-573.62c3.6,3.14,6.82,6.16,10.29,8.87,1.7,1.34,3.49.57,4.47-1.28,2.58-4.84,5.22-9.66,7.44-14.66.69-1.55.11-3.66.11-5.51l-1.07-.28c-4.26,8.5-13.73,8.15-21.24,12.86ZM156.29,234.82c-.18,1.47-1,3.21-.45,4.34,2.62,5.64,5.51,11.17,8.53,16.61.36.64,2.59,1.07,3.21.61,3.66-2.74,7.09-5.77,11-9C170.58,242.85,161.32,242.89,156.29,234.82ZM277.78,821.94l-.92.21c-1.75,4.34-3.59,8.66-5.2,13.06a6.17,6.17,0,0,0,.14,3.38c.84,3.32,1.8,6.61,2.77,9.9.63,2.12,5,4.49,7.26,3.68,2.84-1,1.88-3.5,1.65-5.59-.06-.62-.43-1.21-.55-1.83-.84-4.37-1.56-8.78-2.52-13.12C279.69,828.37,278.67,825.17,277.78,821.94ZM50.67,490.81c.39.72,1.06,1.93,1.72,3.13,1.08-1.08,2.85-2,3.13-3.28,2.17-9.75,4-19.58,6-29.37.43-2.12-.41-3.11-2.49-3.38-1.83-.25-3.27-.21-3.63,2.14C53.93,470.06,52.35,480.06,50.67,490.81ZM305.33,223.15c-1.18.73-2.05,1.17-2.81,1.74-3.15,2.37-6.2,4.88-9.42,7.13-2.31,1.6-5.05,2.62-7.18,4.4-1.12.94-1.34,3-2,4.48,1.35.32,2.86,1.18,4,.85a82.32,82.32,0,0,0,11.5-4.19C305,235,306.94,230.09,305.33,223.15Zm-146.83.14c-1.39,5.79,0,11.16,3.82,13.09a123,123,0,0,0,14.24,5.54c.86.3,2.87-.2,3-.64a6.55,6.55,0,0,0-.45-3.88c-.35-.8-1.55-1.23-2.38-1.81-5.2-3.65-10.4-7.31-15.62-10.93a24.9,24.9,0,0,0-2.61-1.37Zm-1.8,26.52c-.91,9.62,1.17,17.26,7.08,24.57a63.89,63.89,0,0,0,2.16-7.68c.3-1.92.64-4.41-.29-5.82-2.41-3.69-5.51-6.88-9-11.07ZM299.7,274c5.74-4.44,9.48-19,6.76-23.45-2.73,3.27-5.51,6.43-8.07,9.76a5.07,5.07,0,0,0-1,3.51c.61,3.34,1.51,6.62,2.35,10.18ZM74.43,456.9c-5.46.25-5.76.52-5.78,5.21,0,3.84-.11,7.7.1,11.53.19,3.34.76,6.65,1.16,10h1.51C75.93,475.15,72.8,465.78,74.43,456.9Zm318,26.68,1.11.06a23.26,23.26,0,0,0,1-4.2c.3-5.88.55-11.78.62-17.67.06-4.38-.93-5.09-5.94-4.54,2,8.66-1.48,18,3.11,26.35ZM256.2,128.92c-3.82,8.53-7.49,16.73-11.14,24.86C256.15,150.53,259.72,142.64,256.2,128.92Zm-37.44,25-11.14-25c-4.25,11.54.38,21.74,11.14,25Zm64.88,608.91c-2.84-1.37-4.76,0-6.65,1.57-5,4.16-4.32,9.77-4.46,15.49,3.83-5.89,7.4-11.34,11.11-17Zm-103.49,0L191,779.39c1.28-10.7-3.33-18.14-10.85-16.55Z" fill="#bdbdbd"/>
    <path d="M271.17,52.3a45.69,45.69,0,0,0-2.09,5.92c-.83,3.93-1.36,7.93-2,11.9l-1.27.07c-.43-2.62-1-5.23-1.25-7.88-.24-2.93.15-5.93-.27-8.83a52.82,52.82,0,0,0-2.26-8c-1.23-4-3-7.86-3.67-11.93-.93-5.68-2.3-7.16-8.13-7.39-5.37-.21-10.72-.83-16.08-1.22a32.7,32.7,0,0,0-4.2,0c-5.75.4-11.48.95-17.23,1.27-4.47.25-6.48,1.73-6.92,6-.52,5.16-1.56,10-4.61,14.45-1.21,1.75-1.37,4.36-1.59,6.62-.4,4.2-.45,8.44-.77,12.66a29,29,0,0,1-.92,4.21h-1.13c-.59-3.56-1-7.15-1.81-10.66a53.79,53.79,0,0,0-2.19-6.29c-.41-6.5-2.17-13.25-1-19.44,3.79-19.55,9.67-23.76,25.53-27.41A65.11,65.11,0,0,1,255.2,8.94a22.52,22.52,0,0,1,12.52,11.28C273.14,30.49,273.86,41.19,271.17,52.3Z" fill="#6f6f6f"/>
    <path d="M17,440.15A15.81,15.81,0,0,0,26.05,433a78.87,78.87,0,0,1,9.7-11.71c-1.91,8.95-3.71,17.88-11.83,23.54a17.15,17.15,0,0,1-4.28,2.45c-5.41,1.78-6.58.85-6.46-4.79Z" fill="#3f3f3f"/>
    <path d="M450,441.76l.24,5.52c-2,0-4.2.6-5.94-.06a22,22,0,0,1-12.31-12c-1.87-4.14-2.91-8.64-4.32-13l1.13-.72c3,3.73,6.33,7.22,8.81,11.25a17.21,17.21,0,0,0,9.27,7.57Z" fill="#3f3f3f"/>
    <path d="M82.22,425.73C81,432.79,80,439.91,78.45,446.91c-1.28,5.89-4.37,8-10.53,8-10.17,0-18.18-5-25.36-11.48s-7.8-12.67-1.09-19.75a49.78,49.78,0,0,1,14.2-10.89c7.85-3.74,15.85-1.44,23,3C82.21,418.06,81.8,422,82.22,425.73Z" fill="#3f3f3f"/>
    <path d="M381.63,426.19c.39-9,2.56-11.34,11.07-13.9,12.38-3.73,21,2.21,29,10.33a19.36,19.36,0,0,1,3.64,4.88c2.85,5.82,2,10.09-2.94,14.79-7.3,7-15.48,12.34-26,12.6-6.62.16-9.59-1.89-11-8.3C383.79,439.85,382.83,433,381.63,426.19Z" fill="#3f3f3f"/>
    <path d="M274,819.55c-3.2-7.72-7.19-15.42-2.95-24.48,2.53-5.42,4.59-11.05,6.94-16.56a6.35,6.35,0,0,1,2-2.79c2.26-1.46,5.23-4.12,7-3.53,2.39.8,4.65,3.9,5.65,6.51,2.12,5.55,3.29,11.45,5.05,17.15,1,3.36.65,5.9-2.53,7.94-3.88,2.48-7.62,5.2-11.32,8C280.63,814.09,277.62,816.63,274,819.55Z" fill="#3f3f3f"/>
    <path d="M189.86,819.11c-6.75-4.84-13.48-9.43-19.93-14.37-5.09-3.91-5.23-6.32-2.69-12.18,1.45-3.33,2.13-7,3.22-10.48.76-2.41,1.24-5,2.53-7.14,2.43-4,5.55-4.42,8.9-1.14a30.25,30.25,0,0,1,6.13,8.29c5.2,10.75,9.21,21.76,3.54,33.7-.43.93-.8,1.89-1.28,2.79C190.05,819,189.65,819.36,189.86,819.11Z" fill="#3f3f3f"/>
    <path d="M170.72,813.52c3.66,1.72,6.68,3.08,9.62,4.58.6.31,1.4,1.21,1.32,1.7-.89,5.31,1.14,10.79-1.64,16.09-1.85,3.53-2.52,7.71-3.47,11.66-.54,2.24-1.15,3.35-3.84,2.64-3.32-.87-6.81-1.12-10.19-1.77a48.94,48.94,0,0,1-7.44-1.82c-7.21-2.57-7.49-3.77-3-9.73,5-6.64,9.9-13.38,14.94-20A27.31,27.31,0,0,1,170.72,813.52Z" fill="#3f3f3f"/>
    <path d="M282.11,827.8c0-2.62-.05-5.24.05-7.85a2.56,2.56,0,0,1,.93-1.56,9,9,0,0,1,2.25-1.45c9.33-4.1,8.37-4.16,13.54,3.06,4.54,6.35,9.45,12.43,14.16,18.67,2.8,3.71,2.66,5.23-1.77,6.76-5,1.74-10.35,2.62-15.58,3.72-2.43.52-5.76,1.76-7.18.69s-1.2-4.68-1.92-7.1c-.66-2.2-1.72-4.27-2.47-6.45-.95-2.76-1.76-5.57-2.64-8.36Z" fill="#3f3f3f"/>
    <path d="M216.88,107.25h29.34c-1,1.91-2.51,4.4-3.64,7-2.83,6.58-5.44,13.26-8.27,19.84-.49,1.15-1.67,2-2.53,3a13.47,13.47,0,0,1-2.24-2.86c-3.16-7.69-6.09-15.47-9.35-23.12C219.46,109.45,217.7,108.19,216.88,107.25Z" fill="#3f3f3f"/>
    <path d="M255.47,103.47c3.78,14.85-9.7,43.73-17.7,50.72a37.16,37.16,0,0,1-1.24-6c-.29-10.25,3.81-19.26,8.23-28.15,1-1.94,1.75-4,2.81-5.85,2.14-3.83,4.42-7.6,6.64-11.39Z" fill="#3f3f3f"/>
    <path d="M208.45,102.52c1.77,2,3.41,3.24,4.19,4.87,5.5,11.49,12.65,22.37,14.35,35.38.45,3.44.07,7,.07,10.71C218.14,151.42,206.35,118.39,208.45,102.52Z" fill="#3f3f3f"/>
    <path d="M31.74,492.32a34.17,34.17,0,0,1,1.17-5.74c3.79-10,7.69-20,11.63-30,1.43-3.63,4.28-2,6.55-1.31,2.64.77,1.59,2.63.83,4.33-3.46,7.85-6.84,15.74-10.36,23.57a29.64,29.64,0,0,1-3.75,6.62c-1.21,1.48-3.21,2.32-4.86,3.45Z" fill="#3f3f3f"/>
    <path d="M430.68,493.22c-1.63-1.16-4-2-4.76-3.54-5.06-10.34-9.83-20.84-14.5-31.37-.31-.7.74-2.78,1.56-3.06,2-.68,4.62-2,6.07.92.91,1.81,1.16,3.94,1.92,5.84,3.09,7.71,6.34,15.35,9.38,23.09a54.46,54.46,0,0,1,1.75,6.9Z" fill="#3f3f3f"/>
    <path d="M442.35,480.94a37.17,37.17,0,0,1-2.75-3c-3.16-4.34-6.16-8.8-9.4-13.09-2.6-3.43-5.57-6.58-8.14-10-1-1.31-2.27-3.92-1.76-4.52a10.3,10.3,0,0,1,5.36-3c1-.22,2.85,1,3.45,2.06,4.52,8,8.94,16.11,13.13,24.3,1,2,1.07,4.47,1.57,6.72Z" fill="#3f3f3f"/>
    <path d="M19.91,480.25c.59-2.36.77-4.93,1.84-7,4-7.85,8.25-15.61,12.62-23.27.72-1.26,2.7-2.76,3.87-2.6a8.45,8.45,0,0,1,5.29,3c.53.76-1,3.35-2.07,4.79-3.54,4.8-7.3,9.44-10.93,14.17-3,3.92-5.91,7.89-8.86,11.83Z" fill="#3f3f3f"/>
    <path d="M186.49,821.07c2.13,5.2,3.95,9.14,5.32,13.24a10.65,10.65,0,0,1-.11,5.23c-.59,2.85-1.54,5.63-2.31,8.45-.68,2.51-5.66,5.52-7.55,4-1.21-1-1.62-3.78-1.38-5.62.75-5.55,1.87-11,3.09-16.52C184.15,827.18,185.28,824.62,186.49,821.07Z" fill="#3f3f3f"/>
    <path d="M277.78,821.94c.89,3.23,1.91,6.43,2.63,9.69,1,4.34,1.68,8.75,2.52,13.12.12.62.49,1.21.55,1.83.23,2.09,1.19,4.57-1.65,5.59-2.27.81-6.63-1.56-7.26-3.68-1-3.29-1.93-6.58-2.77-9.9a6.17,6.17,0,0,1-.14-3.38c1.61-4.4,3.45-8.72,5.2-13.06Z" fill="#3f3f3f"/>
    <path d="M407.78,490.91c-1.81-9.67-3.52-19.36-5.48-29-.61-3,.47-3.87,3.2-4.1,2.44-.21,2.73,1.36,3,3.05,1.45,9.36,2.95,18.71,4.22,28.09.21,1.58-.59,3.29-.92,4.95l-4-3Z" fill="#3f3f3f"/>
    <path d="M50.67,490.81c1.68-10.75,3.26-20.75,4.78-30.76.36-2.35,1.8-2.39,3.63-2.14,2.08.27,2.92,1.26,2.49,3.38-2,9.79-3.88,19.62-6,29.37-.28,1.26-2,2.2-3.13,3.28C51.73,492.74,51.06,491.53,50.67,490.81Z" fill="#3f3f3f"/>
    <path d="M74.43,456.9c-1.63,8.88,1.5,18.25-3,26.69H69.92c-.4-3.33-1-6.64-1.16-10-.21-3.83-.13-7.69-.1-11.53C68.67,457.42,69,457.15,74.43,456.9Z" fill="#404040"/>
    <path d="M392.38,483.58c-4.59-8.33-1.08-17.69-3.16-26.35,5-.55,6,.16,5.94,4.54-.07,5.89-.32,11.79-.62,17.67a23.26,23.26,0,0,1-1.05,4.2Z" fill="#404040"/>
    <path d="M256.2,128.92c3.52,13.72-.05,21.61-11.14,24.86C248.71,145.65,252.38,137.45,256.2,128.92Z" fill="#3f3f3f"/>
    <path d="M218.76,153.94c-10.77-3.28-15.39-13.48-11.14-25Z" fill="#3f3f3f"/>
    <path d="M283.64,762.85c-3.71,5.7-7.28,11.19-11.11,17.06.14-5.72-.55-11.33,4.46-15.49C278.88,762.84,280.8,761.48,283.64,762.85Z" fill="#3e3e3e"/>
    <path d="M180.15,762.84c7.52-1.59,12.13,5.85,10.84,16.55Z" fill="#3d3d3d"/>
  </g>
</svg>
